<?xml version="1.0" encoding="iso-8859-1"?>
<!-- Generator: Adobe Illustrator 18.0.0, SVG Export Plug-In . SVG Version: 6.00 Build 0)  -->
<!DOCTYPE svg PUBLIC "-//W3C//DTD SVG 1.1//EN" "http://www.w3.org/Graphics/SVG/1.1/DTD/svg11.dtd">
<svg version="1.1" id="Capa_1" xmlns="http://www.w3.org/2000/svg" xmlns:xlink="http://www.w3.org/1999/xlink" x="0px" y="0px"
	 viewBox="0 0 395.79 395.79" style="enable-background:new 0 0 395.79 395.79;" xml:space="preserve">
<g>
	<path style="fill:#EDA856;" d="M395.79,303.345H0c0-20.31,2.7-39.95,7.75-58.52h380.29
		C393.09,263.395,395.79,283.035,395.79,303.345z"/>
	<path style="fill:#EDA856;" d="M252.43,68.495l-13.5,176.33h-82.05l-13.51-176.33l-0.91-11.88c17.65-4.86,36.24-7.47,55.44-7.47
		s37.79,2.61,55.44,7.47L252.43,68.495z"/>
	<polygon style="fill:#EDA856;" points="311.03,303.345 301.72,317.605 282.75,346.645 113.04,346.645 94.07,317.605 84.76,303.345 
			"/>
	<g>
		<path style="fill:#CC731B;" d="M156.88,244.821h82.05l0,0.004h143.69c0-6.83-0.37-13.58-1.1-20.22
			c-7.1-65.29-48.23-120.36-105.27-147.11c-7.38-3.47-15.03-6.46-22.91-8.93l-0.91-0.07l-11.952,156.113h-85.147L143.37,68.495
			l-0.91,0.07c-7.88,2.47-15.53,5.46-22.91,8.93c-57.05,26.75-98.18,81.82-105.28,147.11c-0.73,6.64-1.1,13.39-1.1,20.22h143.71
			L156.88,244.821z"/>
		<polygon style="fill:#CC731B;" points="94.07,317.605 301.72,317.605 311.03,303.345 84.76,303.345 		"/>
	</g>
	<g>
		<path style="fill:#EDA856;" d="M119.55,77.495l14.115,147.11H14.27C21.37,159.315,62.5,104.245,119.55,77.495z"/>
		<path style="fill:#EDA856;" d="M381.52,224.605H262.135l14.115-147.11C333.29,104.245,374.42,159.315,381.52,224.605z"/>
	</g>
</g>
<g>
</g>
<g>
</g>
<g>
</g>
<g>
</g>
<g>
</g>
<g>
</g>
<g>
</g>
<g>
</g>
<g>
</g>
<g>
</g>
<g>
</g>
<g>
</g>
<g>
</g>
<g>
</g>
<g>
</g>
</svg>
