<svg xmlns="http://www.w3.org/2000/svg" xmlns:xlink="http://www.w3.org/1999/xlink"x="0px" y="0px" viewBox="0 0 433.046 433.046" style="enable-background:new 0 0 433.046 433.046;" xml:space="preserve">
	<path d="M221.816,53.821V10.314c0-3.313-2.687-6-6-6H6c-3.313,0-6,2.687-6,6v96.626c0,3.313,2.687,6,6,6h209.816   c3.313,0,6-2.687,6-6V66.067c10.545,2.68,18.368,12.252,18.368,23.618v24.847c0,13.437-10.932,24.368-24.368,24.368h-74.54   c-20.054,0-36.368,16.314-36.368,36.368v76.822H92.306c-3.313,0-6,2.687-6,6v164.641c0,3.314,2.687,6,6,6h37.205   c3.313,0,6-2.686,6-6V258.091c0-3.313-2.687-6-6-6h-12.603v-76.822c0-13.437,10.932-24.368,24.368-24.368h74.54   c20.054,0,36.368-16.315,36.368-36.368V89.685C252.185,71.676,239.024,56.691,221.816,53.821z M209.816,100.94H12V16.314h197.816   V100.94z M123.511,416.732H98.306V264.091h25.205V416.732z"/>
	<path d="M432.885,94.668c0-3.313-2.687-6-6-6H290.616c-3.313,0-6,2.687-6,6l-0.227,179.297c0,20.434,16.624,37.059,37.059,37.059   c6.967,0,12.635,5.668,12.635,12.635v80.062c0,13.583,11.051,24.635,24.635,24.635s24.635-11.051,24.635-24.635v-80.062   c0-6.967,5.668-12.635,12.636-12.635c20.434,0,37.058-16.625,37.058-37.059L432.885,94.668z M311.526,100.668v108.859   c0,3.313,2.687,6,6,6s6-2.687,6-6V100.668h16v65.859c0,3.313,2.687,6,6,6s6-2.687,6-6v-65.859h16v97.859c0,3.314,2.687,6,6,6   s6-2.686,6-6v-97.859h15v75.859c0,3.313,2.687,6,6,6s6-2.687,6-6v-75.859h14.358v125.196H296.616V100.668H311.526z    M421.046,273.965c0,13.817-11.241,25.059-25.058,25.059c-13.584,0-24.636,11.051-24.636,24.635v80.062   c0,6.967-5.668,12.635-12.635,12.635s-12.635-5.668-12.635-12.635v-80.062c0-13.583-11.051-24.635-24.635-24.635   c-13.817,0-25.059-11.241-25.059-25.059v-36.101h124.656V273.965z"/>
</svg>
