<svg xmlns="http://www.w3.org/2000/svg" viewBox="0 0 421.197 421.197"><path d="M138.305 261.462c14.716-9.475 13.07-37.675 13.07-44.255h118.446c0 6.58-1.825 34.78 12.89 44.255l-72.113 80.771-72.293-80.771z" fill="#ffd7a3"/><path d="M256.661 289.59l26.051-28.129c-14.716-9.474-12.89-37.675-12.89-44.255H151.375c8.499 24.433 64.707 66.352 105.286 72.384z" fill="#fdc88e"/><path d="M302.723 131.663c0 52.696-30.343 118.446-92.124 118.446s-92.124-65.75-92.124-118.446 41.246-72.384 92.124-72.384 92.124 19.688 92.124 72.384z" fill="#ffe1b2"/><path d="M361.946 421.197c10.903 0 19.741-8.838 19.741-19.741v-63.463c0-28.954-22.562-59.864-50.138-68.687l-41.168-13.173c-22.149 16.936-53.802 40.039-79.782 40.039s-57.633-23.103-79.782-40.039l-41.168 13.173c-27.576 8.823-50.138 39.733-50.138 68.687v63.463c0 10.903 8.838 19.741 19.741 19.741h302.694z" fill="#e4ebf0"/><path d="M171.116 19.797h-13.161c-25.439 0-46.062 20.856-46.062 46.296 0 23.62 6.58 65.57 6.58 65.57s7.403-33.313 39.482-46.062c19.605-7.792 13.161-65.804 13.161-65.804z" fill="#545465"/><path d="M164.536 20.031c26.458-40.675 94.592-6.814 138.187-6.814 6.58 9.459 11.104 81.02 0 118.446l-19.741-32.902s-60.32 22.168-125.026-12.927" fill="#545465"/><path d="M210.598 296.171l-32.902 32.902-52.643-72.384 15.326-15.326a6.58 6.58 0 0 1 9.055-.238l61.164 55.046zm0 0l32.902 32.902 52.643-72.384-15.326-15.326a6.58 6.58 0 0 0-9.055-.238l-61.164 55.046z" fill="#d0d7dc"/><path fill="#545465" d="M125.527 257.825l-33.374 10.679v152.459h98.704zm170.142 0l33.375 10.679v152.459h-98.705zm-71.91 58.087c0 3.619-2.961 6.58-6.58 6.58h-13.161c-3.619 0-6.58-2.961-6.58-6.58v-13.161c0-3.619 2.961-6.58 6.58-6.58h13.161c3.619 0 6.58 2.961 6.58 6.58v13.161z"/><path d="M204.018 302.751l-36.89-15.81c-4.342-1.861-9.172 1.324-9.172 6.048v32.684c0 4.724 4.83 7.909 9.172 6.048l36.89-15.81v-13.16zm13.161 0l36.89-15.81c4.342-1.861 9.172 1.324 9.172 6.048v32.684c0 4.724-4.83 7.909-9.172 6.048l-36.89-15.81v-13.16z" fill="#545465"/><circle cx="210.598" cy="355.393" r="6.58" fill="#d0d7dc"/><circle cx="210.598" cy="388.295" r="6.58" fill="#d0d7dc"/><path d="M121.639 144.823c-9.864-2.468-16.326 2.805-16.326 13.161 0 13.709 13.265 47.296 27.21 26.321s-10.884-39.482-10.884-39.482zm176.424 0c10.767-2.468 17.821 2.805 17.821 13.161 0 13.709-14.479 47.296-29.701 26.321s11.88-39.482 11.88-39.482z" fill="#ffe1b2"/></svg>