<svg xmlns="http://www.w3.org/2000/svg" viewBox="0 0 460.65 460.65"><path d="M158.032 300.915c14.716-9.475 13.07-37.675 13.07-44.255h118.446c0 6.58-1.825 34.78 12.89 44.255l-72.113 80.771-72.293-80.771z" fill="#ffd7a3"/><path d="M276.387 329.044l26.051-28.129c-14.716-9.474-12.89-37.675-12.89-44.255H171.102c8.498 24.433 64.707 66.352 105.285 72.384z" fill="#fdc88e"/><path d="M322.45 171.116c0 52.696-30.343 118.446-92.124 118.446s-92.124-65.75-92.124-118.446 41.246-72.384 92.124-72.384 92.124 19.688 92.124 72.384z" fill="#ffe1b2"/><path d="M137.651 183.854c-4.935-18.918-12.484-84.348 2.468-103.366 19.831-25.225 35.647-8.458 35.647-8.458l3.835 43.964-30.16 72.521-11.79-4.661z" fill="#545465"/><path d="M261.649 51.664c-50.952-10.82-88.667 6.303-99.403 14.395-1.006.758-1.776 1.437-2.297 2.007l19.651 47.241c47.296 23.668 80.336 12.236 80.336 12.236l21.461-15.804 30.425 75.884 11.29-3.804s5.367-54.81 6.19-67.682-11.926-52.639-67.653-64.473z" fill="#545465"/><path d="M381.673 460.65c10.903 0 19.741-8.838 19.741-19.741v-63.463c0-28.954-22.562-59.864-50.138-68.687l-41.168-13.173c-22.149 16.936-53.802 40.039-79.782 40.039-25.981 0-57.633-23.103-79.782-40.039l-41.168 13.173c-27.576 8.823-50.138 39.733-50.138 68.687v63.463c0 10.903 8.838 19.741 19.741 19.741h302.694z" fill="#e4ebf0"/><path d="M230.325 335.624l-32.902 32.902-52.643-72.384 15.326-15.326a6.58 6.58 0 0 1 9.055-.238l61.164 55.046zm0 0l32.902 32.902 52.643-72.384-15.326-15.326a6.58 6.58 0 0 0-9.055-.238l-61.164 55.046z" fill="#d0d7dc"/><path d="M243.486 355.365c0 3.619-2.961 6.58-6.58 6.58h-13.161c-3.619 0-6.58-2.961-6.58-6.58v-13.161c0-3.619 2.961-6.58 6.58-6.58h13.161c3.619 0 6.58 2.961 6.58 6.58v13.161z" fill="#965449"/><path d="M223.745 342.205l-36.89-15.81c-4.342-1.861-9.172 1.324-9.172 6.048v32.684c0 4.724 4.83 7.909 9.172 6.048l36.89-15.81v-13.16zm13.161 0l36.89-15.81c4.342-1.861 9.172 1.324 9.172 6.048v32.684c0 4.724-4.83 7.909-9.172 6.048l-36.89-15.81v-13.16z" fill="#965449"/><circle cx="230.325" cy="394.847" r="6.58" fill="#d0d7dc"/><circle cx="230.325" cy="427.749" r="6.58" fill="#d0d7dc"/><path d="M141.366 184.277c-9.864-2.468-16.326 2.805-16.326 13.161 0 13.709 13.265 47.296 27.21 26.321s-10.884-39.482-10.884-39.482zm176.424 0c10.767-2.468 17.821 2.805 17.821 13.161 0 13.709-14.479 47.296-29.701 26.321s11.88-39.482 11.88-39.482z" fill="#ffe1b2"/><path d="M329.044 127.329H131.426V3a3 3 0 0 1 3-3h191.619a3 3 0 0 1 3 3v124.329z" fill="#a05f54"/><path d="M269.807 460.417H383.99c9.797-1.16 17.423-9.399 17.423-19.507v-63.464c0-28.954-22.562-59.864-50.138-68.687l-35.877-11.48h-.002l-45.589 163.138zM145.254 297.278h-.002l-35.877 11.48c-27.576 8.823-50.138 39.733-50.138 68.687v63.464c0 10.108 7.627 18.347 17.423 19.507h114.183l-45.589-163.138z" fill="#965449"/><path fill="#7f7474" d="M131.426 80.198h197.761v50.586H131.426z"/><path d="M230.235 145.647c-55.762 0-107.46-6.773-138.296-18.115-6.821-2.506-10.317-10.07-7.808-16.894 2.509-6.825 10.076-10.327 16.894-7.808 27.661 10.173 77.171 16.496 129.209 16.496s101.548-6.323 129.209-16.496c6.825-2.506 14.388.99 16.894 7.808 2.509 6.825-.986 14.388-7.808 16.894-30.833 11.342-82.531 18.115-138.294 18.115z" fill="#965449"/><path d="M230.325 231.956c0-6.169-8.431-7.565-13.983-6.07-10.179 2.741-21.386 10.388-30.845 5.659 0 0 3.29 9.87 8.841 9.87 11.104 0 35.987 1.029 35.987-9.459z" fill="#545465"/><path d="M230.235 231.956c0-6.169 8.431-7.565 13.983-6.07 10.179 2.741 21.386 10.388 30.845 5.659 0 0-3.29 9.87-8.841 9.87-11.104 0-35.987 1.029-35.987-9.459z" fill="#545465"/></svg>