<svg xmlns="http://www.w3.org/2000/svg" viewBox="0 0 495 495"><path fill="#957856" d="M247.5 0v40H455v415H247.5v40H495V0z"/><path fill="#a78966" d="M40 455V40h207.5V0H0v495h247.5v-40z"/><path d="M125.89 405h243.264c1.385 0 2.769-.102 4.166-.254 17.807-2.083 31.651-17.667 31.651-35.576V125.919c0-1.042.051-2.083-.102-3.124C402.938 104.035 387.405 90 368.505 90c-80.626 0-161.252 0-241.917.051-2.185 0-4.42.139-6.554.546-17.857 3.417-30.012 18.201-30.012 36.363v240.927c0 2.032.152 4.115.445 6.147C92.803 391.448 108.286 405 125.89 405zm182.235-266.532c.051-6.948 5.411-12.053 12.396-12.104h35.83c7.087.051 12.345 5.258 12.345 12.409.051 11.901.051 23.853 0 35.767 0 7.189-5.258 12.409-12.447 12.409h-35.817c-6.897 0-12.256-5.169-12.307-12.066-.051-12.156-.051-24.26 0-36.415zm-60.635 48.48c33.493 0 60.584 27.028 60.635 60.521 0 33.493-27.041 60.584-60.534 60.635-33.531 0-60.673-27.143-60.622-60.686.051-33.341 27.142-60.47 60.521-60.47zm-121.105 36.465h27.345c-6.109 24.653-3.328 48.264 8.777 70.592 8.827 16.321 21.477 28.971 37.608 38.104 31.905 18.01 71.596 16.27 101.951-4.458 16.829-11.52 28.933-26.85 36.173-45.952 7.188-19.052 8.091-38.498 3.074-58.336h27.383V355.48c0 8.192-4.954 13.197-13.146 13.197H153.679c-4.865 0-9.678.051-14.543 0-7.583 0-12.752-5.156-12.752-12.752V223.413z" fill="#a78966"/></svg>