<svg xmlns="http://www.w3.org/2000/svg" viewBox="0 0 397.426 397.426" width="512" height="512"><path d="M24.357 127.79a7.501 7.501 0 0 0 9.626 4.456l54.447-19.988a7.5 7.5 0 0 0 0-14.082L33.983 78.188a7.5 7.5 0 0 0-5.17 14.081l35.27 12.948-35.27 12.948a7.5 7.5 0 0 0-4.456 9.625zm284.64-15.532l54.447 19.988a7.488 7.488 0 0 0 2.584.461 7.5 7.5 0 0 0 2.586-14.542l-35.27-12.948 35.27-12.948a7.5 7.5 0 0 0-5.17-14.081l-54.447 19.989a7.5 7.5 0 0 0 0 14.081zm77.442 263.39a7.501 7.501 0 0 0-10.505 1.465 13.263 13.263 0 0 1-10.669 5.313 13.267 13.267 0 0 1-10.671-5.313c-5.411-7.164-13.663-11.273-22.641-11.273-8.977 0-17.229 4.109-22.64 11.273-2.55 3.376-6.438 5.313-10.67 5.313s-8.12-1.937-10.67-5.313a28.613 28.613 0 0 0-5.761-5.726V176.7c13.557-1.987 24-13.689 24-27.789v-19.41a7.5 7.5 0 0 0-7.5-7.5H269.72V90.113h6.554c4.143 0 7.5-3.358 7.5-7.5s-3.357-7.5-7.5-7.5h-7.284c-4.571-31.947-30.474-57.101-62.776-60.508V7.5c0-4.142-3.357-7.5-7.5-7.5s-7.5 3.358-7.5 7.5v7.105c-32.303 3.407-58.207 28.561-62.777 60.508h-7.284c-4.143 0-7.5 3.358-7.5 7.5s3.357 7.5 7.5 7.5h6.554v31.888H98.713a7.5 7.5 0 0 0-7.5 7.5v19.41c0 14.1 10.443 25.802 24 27.789v194.686a28.623 28.623 0 0 0-5.762 5.727 13.263 13.263 0 0 1-10.67 5.313c-4.23 0-8.119-1.937-10.669-5.313-5.411-7.164-13.663-11.273-22.641-11.273s-17.229 4.109-22.641 11.273c-2.55 3.376-6.438 5.313-10.67 5.313s-8.12-1.937-10.67-5.313a7.5 7.5 0 0 0-10.505-1.465 7.5 7.5 0 0 0-1.466 10.505c5.411 7.164 13.663 11.273 22.641 11.273s17.229-4.109 22.641-11.273c2.55-3.376 6.438-5.313 10.67-5.313s8.12 1.937 10.67 5.313c5.411 7.164 13.663 11.273 22.64 11.273 8.978 0 17.229-4.109 22.64-11.272a13.344 13.344 0 0 1 4.69-3.914l.042-.02a13.35 13.35 0 0 1 5.94-1.379c4.23 0 8.119 1.937 10.669 5.313 5.411 7.164 13.663 11.273 22.641 11.273s17.229-4.109 22.641-11.273a13.263 13.263 0 0 1 10.669-5.313c4.231 0 8.121 1.937 10.671 5.313 5.411 7.164 13.663 11.273 22.641 11.273 8.977 0 17.229-4.109 22.64-11.273a13.263 13.263 0 0 1 10.67-5.313c2.107 0 4.13.482 5.944 1.381l.035.017a13.341 13.341 0 0 1 4.691 3.915c5.411 7.164 13.663 11.273 22.641 11.273s17.229-4.109 22.641-11.273a13.263 13.263 0 0 1 10.669-5.313c4.231 0 8.12 1.937 10.671 5.313 5.411 7.164 13.663 11.272 22.641 11.272 8.978 0 17.229-4.109 22.64-11.273a7.503 7.503 0 0 0-1.469-10.505zM140.713 137.001h28.666v25h-28.666v-25zm116 0v25h-28.667v-25h28.667zm10.5 84.647l-137 35.974v-29.544l137-35.974v29.544zm-137 51.481l137-35.974V266.7l-137 35.974v-29.545zm82.833-136.128v25h-28.667v-25h28.667zm-10.134-15h-8.397v-9.039a4.204 4.204 0 0 1 4.199-4.199 4.203 4.203 0 0 1 4.198 4.199v9.039zm62.76 55L130.213 212.57v-35.569h135.459zM130.213 318.182l137-35.974v29.544l-137 35.974v-29.544zm161-169.271c0 7.218-5.872 13.09-13.09 13.09h-6.41v-25h19.5v11.91zm-39.016-26.91v-9.039a4.202 4.202 0 0 1 2.523-3.845v12.884h-2.523zm-53.484-92.795c27.433 0 50.306 19.831 55.077 45.907H143.635c4.771-26.076 27.645-45.907 55.078-45.907zm56.007 60.907v3.736c-9.804.853-17.523 9.093-17.523 19.114v9.039h-19.285v-9.039c0-10.586-8.612-19.199-19.198-19.199-10.587 0-19.199 8.612-19.199 19.199v9.039H160.23v-9.039c0-10.021-7.72-18.261-17.523-19.114v-3.736H254.72zm-112.014 19.004a4.202 4.202 0 0 1 2.523 3.845v9.039h-2.523v-12.884zm-36.493 39.794v-11.91h19.5v25h-6.41c-7.218 0-13.09-5.872-13.09-13.09zm136.48 228.202a13.263 13.263 0 0 1-10.669 5.313c-4.231 0-8.12-1.937-10.671-5.313-5.411-7.164-13.663-11.272-22.641-11.272-8.978 0-17.229 4.109-22.64 11.273-2.55 3.376-6.438 5.313-10.67 5.313s-8.12-1.937-10.67-5.313c-5.41-7.164-13.662-11.272-22.64-11.273h-.001c-.63 0-1.256.025-1.879.066v-2.672l137-35.974v38.645a29.31 29.31 0 0 0-1.88-.066c-8.976 0-17.228 4.109-22.639 11.273z" fill="#FFF"/></svg>