<svg xmlns="http://www.w3.org/2000/svg" viewBox="0 0 131.414 131.414"><circle cx="65.707" cy="65.708" r="65.706" fill="#67bc47"/><path d="M86.108 42.622v61.899c.897-1.173 21.673-28.464 21.673-40.193.001-11.977-9.7-21.688-21.673-21.706z" fill="#007f9b"/><path d="M86.075 42.622c-11.988 0-21.707 9.718-21.707 21.706s21.707 40.237 21.707 40.237l.034-.044V42.622h-.034z" fill="#006d89"/><path d="M96.735 63.515c0-5.876-4.754-10.641-10.627-10.659v21.318c5.873-.019 10.627-4.782 10.627-10.659z" fill="#fff"/><path d="M86.075 52.855c-5.887 0-10.66 4.771-10.66 10.659 0 5.888 4.773 10.66 10.66 10.66l.034-.001V52.855h-.034z" fill="#ededed"/><path d="M52.221 35.983v73.784c1.068-1.398 25.833-33.931 25.833-47.911.001-14.277-11.561-25.85-25.833-25.873z" fill="#ed2a27"/><path d="M52.181 35.982c-14.29 0-25.874 11.583-25.874 25.874 0 14.289 25.874 47.963 25.874 47.963l.04-.052V35.983l-.04-.001z" fill="#db1815"/><path d="M64.888 60.889c0-7.006-5.668-12.685-12.667-12.707v25.41c6.999-.021 12.667-5.701 12.667-12.703z" fill="#fff"/><path d="M52.181 48.181c-7.018 0-12.706 5.689-12.706 12.708 0 7.016 5.688 12.705 12.706 12.705l.04-.002v-25.41l-.04-.001z" fill="#ededed"/></svg>