<svg xmlns="http://www.w3.org/2000/svg" viewBox="0 0 420.588 420.588"><path d="M154.543 19.625l32.674 217.81-42.682 71.724c-66.899-97.608-84.68-289.534 10.008-289.534z" fill="#545465"/><path d="M151.116 19.625C173.05.981 228.839-9.865 276.142 12.608c64.981 30.871 64.706 169.038 6.58 283.391-.088.173-46.062-32.902-46.062-32.902L151.116 19.625z" fill="#545465"/><path d="M256.669 231.968h-.358v-15.37h-92.124v15.354c0 15.042-.063 31.392-13.161 41.282v147.354h118.446V273.004c-12.763-9.915-12.803-26.123-12.803-41.036z" fill="#ffd7a3"/><path d="M308.954 282.401h-2.193c-24.994 0-37.508-6.641-43.869-16.165l-45.915 31.34.033.042-6.671 47.939-6.661-47.874-46.071-31.446c-6.361 9.524-18.875 16.165-43.869 16.165h-2.193c-39.976 0-72.384 32.407-72.384 72.384v46.062c0 10.902 8.838 19.741 19.741 19.741h302.695c10.903 0 19.741-8.839 19.741-19.741v-46.062c-.001-39.978-32.408-72.385-72.384-72.385z" fill="#e4ebf0"/><path d="M256.401 295.999c2.401.655-2.017-6.751 0-6.58l13.07-16.414c-12.762-9.915-12.803-26.124-12.803-41.037h-.358v-15.37h-72.384l-19.741 6.58c13.162 14.806 46.976 60.483 92.216 72.821z" fill="#fdc88e"/><path d="M302.373 131.054c0 52.696-52.408 118.446-92.124 118.446s-92.124-65.75-92.124-118.446S159.37 58.67 210.249 58.67s92.124 19.688 92.124 72.384z" fill="#ffe1b2"/><path d="M197.458 25.769c3.697 0 15.701 4.154 25.512 7.794l.809-1.214 3.698 2.908a655.391 655.391 0 0 1 9.462 3.672l-1.539 2.566c24.976 19.678 81.96 64.693 87.084 69.818 6.58 6.58-32.633 171.062-32.633 75.562 0-79.786-44.327-95.587-85.544-105.285-18.644-4.387-30.977-11.953-33.17-22.92-2.194-10.967 19.741-32.901 26.321-32.901z" fill="#545465"/><path d="M177.717 70.292s-50.076 15.368-59.116 69.671c-2.1 12.616-19.579-43.019-19.579-43.019s9.87-43.869 12.064-44.966c2.193-1.097 46.611-19.193 46.611-19.193l13.287 11.49 6.733 26.017z" fill="#545465"/><path d="M203.668 297.618l-45.417-32.269-16.089 12.754 30.397 42.324c2.456 3.42 7.448 3.685 10.253.544l20.856-23.353zm13.161 0l45.417-32.269 16.089 12.754-30.397 42.324c-2.456 3.42-7.448 3.685-10.253.544l-20.856-23.353z" fill="#d0d7dc"/><path d="M142.05 278.093c-6.982 2.713-16.148 4.308-28.313 4.308h-2.193c-39.976 0-72.384 32.407-72.384 72.384v46.062c0 10.902 8.838 19.741 19.741 19.741h111.865l-28.604-142.484-.112-.011zm136.488 0c6.982 2.713 16.148 4.308 28.313 4.308h2.193c39.976 0 72.384 32.407 72.384 72.384v46.062c0 10.902-8.838 19.741-19.741 19.741H249.821l28.604-142.484.113-.011z" fill="#527992"/><path d="M124.984 140.564c-9.864-2.468-16.326 2.805-16.326 13.161 0 13.709 13.265 47.296 27.21 26.321s-10.884-39.482-10.884-39.482z" fill="#ffe1b2"/><circle cx="131.375" cy="348.641" r="6.58" fill="#545465"/><circle cx="210.249" cy="368.382" r="6.58" fill="#d0d7dc"/><circle cx="210.339" cy="401.587" r="6.58" fill="#d0d7dc"/><circle cx="137.955" cy="388.123" r="6.58" fill="#545465"/><path d="M195.596 138.457v4.935c0 14.514-11.808 26.321-26.321 26.321h-6.58c-7.257 0-13.161-5.904-13.161-13.161v-18.096h46.062m0-6.58h-46.062a6.58 6.58 0 0 0-6.58 6.58v18.096c0 10.903 8.838 19.741 19.741 19.741h6.58c18.171 0 32.902-14.731 32.902-32.902v-4.935a6.58 6.58 0 0 0-6.581-6.58zm75.548 6.581v18.096c0 7.257-5.904 13.161-13.161 13.161h-6.58c-14.514 0-26.321-11.808-26.321-26.321v-4.935h46.062m0-6.582h-46.062a6.58 6.58 0 0 0-6.58 6.58v4.935c0 18.171 14.731 32.902 32.902 32.902h6.58c10.903 0 19.741-8.838 19.741-19.741v-18.096a6.582 6.582 0 0 0-6.581-6.58z" fill="#545465"/><path fill="#545465" d="M118.124 131.876h31.41v15.654l-31.41-7.568zm184.43 0h-31.41v15.654l31.41-7.568zM225.37 147.53h-6.58c0-2.847-3.949-5.347-8.45-5.347s-8.45 2.5-8.45 5.347h-6.58c0-6.69 6.603-11.927 15.031-11.927s15.029 5.238 15.029 11.927z"/><path d="M320.692 395.007h-37.971c-5.451 0-9.87 4.42-9.87 9.87v15.71h57.712v-15.71c0-5.45-4.419-9.87-9.871-9.87z" fill="#475f7f"/></svg>