<svg xmlns="http://www.w3.org/2000/svg" viewBox="0 0 511 511" width="512" height="512"><g fill="#FFF"><path d="M510.905 248.653a7.526 7.526 0 0 0-.104-2.842C508.408 181.2 482.132 120.8 436.166 74.834 387.908 26.577 323.747 0 255.5 0S123.092 26.577 74.834 74.834C26.577 123.092 0 187.253 0 255.5s26.577 132.408 74.834 180.666C123.092 484.423 187.253 511 255.5 511s132.408-26.577 180.666-74.834C484.423 387.908 511 323.747 511 255.5c0-2.288-.035-4.569-.095-6.847zM305.243 368.212A7.474 7.474 0 0 0 303.5 368c-40.671 0-73.065-18.504-110.575-39.93-27.199-15.537-56.548-32.295-92.372-43.404 14.594-15.882 35.279-40.921 56.54-66.949 4.517 5.92 12.546 13.386 24.336 13.386.91 0 1.844-.045 2.798-.138 13.301-1.298 20.887-9.578 26.982-16.232 5.389-5.882 7.923-8.234 11.33-7.794 5.479.707 9.889 15.736 13.108 26.71C240.786 251.156 246.608 271 263.5 271c16.831 0 19.685-17.174 21.769-29.713 2.349-14.134 4.514-23.633 12.865-26.765 6.196-2.323 9.885-.485 18.367 4.275 9.037 5.072 21.382 11.976 42.065 12.183 26.251 34.237 50.51 62.811 69.904 71.38 3.184 1.406 6.758 2.587 10.55 3.582-29.455 9.557-59.389 24.844-90.368 40.675-14.349 7.333-28.834 14.735-43.409 21.595zM191.126 168H104.42c3-7.604 10.422-13 19.08-13 1.475 0 3.04.218 4.926.687a7.5 7.5 0 0 0 7.31-2.184C142.008 146.73 150.447 143 159.5 143c15.34 0 28.232 10.683 31.626 25zm8.374 15a7.5 7.5 0 0 0 7.5-7.5c0-5.437-.93-10.657-2.62-15.526 19.811-23.879 32.085-37.621 36.536-40.904 7.289.563 32.99 4.568 41.018 13.457 3.53 3.909 7.293 8.277 11.357 13.181C280.919 149.959 272 161.704 272 175.5a7.5 7.5 0 0 0 7.5 7.5h42.953a5410.57 5410.57 0 0 1 13.157 17.538c3.58 4.785 7.137 9.541 10.669 14.239-9.609-1.879-16.322-5.627-22.438-9.06-8.851-4.967-18.004-10.103-30.975-5.239-17.086 6.407-20.155 24.87-22.395 38.35C268.178 252.63 266.81 256 263.5 256c-5.661 0-10.168-15.359-13.458-26.574-5.107-17.405-10.388-35.404-25.582-37.364-11.475-1.48-18.588 6.294-24.31 12.539-5.258 5.739-9.799 10.695-17.379 11.435-8.361.819-13.944-7.281-15.788-10.44l2.718-3.334c5.306-6.509 10.571-12.966 15.72-19.261H199.5zm89.305-15c2.735-5.338 8.295-9 14.695-9 1.482 0 3.046.275 4.923.868a7.501 7.501 0 0 0 8.413-2.87C322.933 148.233 332.901 143 343.5 143s20.567 5.233 26.665 13.998a7.502 7.502 0 0 0 8.413 2.87c1.877-.592 3.441-.868 4.923-.868 6.399 0 11.959 3.662 14.695 9H288.805zM496 255.5c0 13.728-1.152 27.278-3.392 40.546-.578.012-1.155.013-1.733.032-11.064.076-40.481-.429-56.344-7.438-11.814-5.22-27.761-21.823-44.855-42.568 8.179-2.365 16.152-8.959 24.494-15.873C422.767 223.075 432.511 215 439.5 215c5.98.039 31.401 16.338 56.447 36.081.026 1.471.053 2.943.053 4.419zM85.441 85.441C130.865 40.017 191.26 15 255.5 15s124.635 25.017 170.059 70.441c39.682 39.682 63.786 90.789 69.248 145.902a559.002 559.002 0 0 0-13.749-9.982C454.079 202.428 444.677 200 439.5 200c-12.396 0-23.837 9.48-34.901 18.649C397.047 224.907 388.488 232 383.5 232a7.473 7.473 0 0 0-4.144 1.25c-10.596-13.439-21.397-27.876-31.735-41.697-2.137-2.858-4.272-5.71-6.403-8.554H407.5a7.5 7.5 0 0 0 7.5-7.5c0-17.369-14.131-31.5-31.5-31.5-1.387 0-2.789.108-4.222.327C370.299 134.022 357.268 128 343.5 128c-12.763 0-24.888 5.183-33.743 14.147-6.133-7.587-11.629-14.069-16.691-19.674C278.416 106.251 239.869 104 239.5 104c-5.309 0-9.534 1.86-42.908 41.879C187.881 134.992 174.495 128 159.5 128c-11.859 0-22.976 4.337-31.73 12.298a31.658 31.658 0 0 0-4.27-.298c-19.575 0-35.5 15.925-35.5 35.5a7.5 7.5 0 0 0 7.5 7.5h70.553l-7.978 9.784c-10.817 13.27-21.768 26.703-32.097 39.191-20.541-.519-35.499-11.454-51.309-23.022-14.413-10.545-29.319-21.424-48.989-24.681 11.391-36.914 31.667-70.738 59.761-98.831zM21.705 198.779c.223.055.45.103.682.138 16.554 2.483 29.606 12.032 43.424 22.143 14.375 10.517 29.157 21.321 48.609 24.79-11.892 14.159-22.417 26.262-30.203 34.29-20.554-5.045-43.199-8.133-68.651-8.138A246.39 246.39 0 0 1 15 255.5c0-19.359 2.288-38.364 6.705-56.721zM200.7 489.75c25.91-9.178 62.182-30.462 109.789-64.364a505.757 505.757 0 0 1 4.594-3.251c4.298-1.462 24.946-6.613 28.622-7.128 11.841.35 22.468 7.434 33.712 14.929 8.428 5.618 17.072 11.373 26.758 14.633C361.953 477.905 310.119 496 255.5 496a242.37 242.37 0 0 1-54.8-6.25zm224.859-64.191a246.715 246.715 0 0 1-7.292 6.978 7.472 7.472 0 0 0-1.907-.487c-10.556-1.218-20.304-7.715-30.624-14.594-12.649-8.432-25.729-17.15-42.097-17.454-.94-.019-2.882-.053-18.358 3.832-15.719 3.945-16.899 4.732-17.941 5.427-1.029.686-2.829 1.968-5.553 3.907C224.22 468.405 190.298 480 175.5 480c-1.39 0-2.688.385-3.804 1.044-32.02-11.879-61.385-30.615-86.255-55.485a244.802 244.802 0 0 1-16.558-18.325c10.305.353 21.361 1.109 33.901 2.311a7.5 7.5 0 0 0 1.431-14.932c-17.793-1.705-32.722-2.537-46.781-2.606-21.654-31.277-35.455-67.091-40.386-104.988 74.419.394 124.354 28.896 168.436 54.076 29.992 17.132 58.666 33.496 91.595 39.491C248.661 392.042 220.02 400 191.5 400a7.5 7.5 0 0 0 0 15c56.303 0 111.041-27.973 163.977-55.025 47.076-24.058 91.656-46.825 134.07-48.817-10.134 42.968-31.988 82.402-63.988 114.401z"/><path d="M151.5 95h104a7.5 7.5 0 0 0 7.5-7.5c0-26.191-21.309-47.5-47.5-47.5-11.859 0-22.976 4.337-31.73 12.298A31.658 31.658 0 0 0 179.5 52C159.925 52 144 67.925 144 87.5a7.5 7.5 0 0 0 7.5 7.5zm28-28c1.475 0 3.04.218 4.926.687a7.503 7.503 0 0 0 7.31-2.184C198.008 58.73 206.447 55 215.5 55c15.34 0 28.232 10.683 31.626 25H160.42c3-7.604 10.422-13 19.08-13zm-20 333c-5.203 0-12.721-.725-23.167-1.895a7.501 7.501 0 0 0-1.669 14.907C145.623 414.239 153.601 415 159.5 415a7.5 7.5 0 0 0 0-15z"/></g></svg>