<svg xmlns="http://www.w3.org/2000/svg" viewBox="0 0 472.674 472.674" width="512" height="512"><g fill="#FFF"><path d="M435.072 302.215l-15.402-21.798 8.599-25.232a7.502 7.502 0 0 0-1.846-7.772l-18.982-18.627 4.442-26.205a7.501 7.501 0 0 0-2.986-7.321l-21.475-15.605.767-26.537a7.5 7.5 0 0 0-3.938-6.818l-23.361-12.596-2.778-26.404a7.498 7.498 0 0 0-4.848-6.246l-24.916-9.255-6.638-25.751a7.5 7.5 0 0 0-5.806-5.485l-26.154-5.178-11.177-24.235c-1.241-2.689-3.91-4.426-6.909-4.358l-26.843.351L227.784 6.33a7.497 7.497 0 0 0-8.262-2.334l-25.711 8.924L169.358.782a7.498 7.498 0 0 0-7.105.235l-43.384 25.234.003.004a7.465 7.465 0 0 0-1.988 1.671L99.237 49.061 72.11 53.778a7.502 7.502 0 0 0-6.201 6.918L64.194 87.94 43.61 105.747a7.499 7.499 0 0 0-2.109 8.323l9.506 25.16-13.725 23.066a7.5 7.5 0 0 0 .32 8.163l15.399 21.796-8.595 25.238a7.5 7.5 0 0 0 1.847 7.771l18.981 18.624-4.444 26.207a7.5 7.5 0 0 0 2.986 7.321l21.479 15.608-.773 26.534a7.499 7.499 0 0 0 3.938 6.82l23.364 12.597 2.777 26.403a7.501 7.501 0 0 0 4.848 6.247l24.917 9.255 6.639 25.75a7.5 7.5 0 0 0 5.807 5.485l26.157 5.177 11.176 24.234a7.5 7.5 0 0 0 6.81 4.359h.099l26.839-.354 17.038 20.814a7.5 7.5 0 0 0 8.263 2.335l25.713-8.924 24.451 12.136a7.498 7.498 0 0 0 9.092-1.91l17.646-21.134 27.127-4.716a7.474 7.474 0 0 0 2.482-.913l.004.007 43.382-25.229a7.502 7.502 0 0 0 3.715-6.012l1.716-27.248 20.582-17.806a7.499 7.499 0 0 0 2.109-8.322l-9.503-25.162 13.726-23.069a7.51 7.51 0 0 0-.324-8.163zm-28.715 33.152l8.536 22.602-30.235 17.585-6.376-16.875 12.731-21.396 16.692-9.709-.778 1.309a7.498 7.498 0 0 0-.57 6.484zm-22.377-52.295l23.619-13.738-3.362 9.866a7.503 7.503 0 0 0 .974 6.748l12.882 18.232-30.367 17.663-11.438-16.188 7.692-22.583zm24.915-31.844l-29.939 17.413-14.9-14.619 3.857-22.745 26.503-15.416-2.421 14.28a7.498 7.498 0 0 0 2.142 6.606l14.758 14.481zm-18.126-50.599l-29.209 16.99-17.524-12.734.651-22.366 28.117-16.354-.492 17.013a7.501 7.501 0 0 0 3.088 6.284l15.369 11.167zm-25.421-47.48l-28.175 16.388-19.666-10.603-2.269-21.576 29.168-16.965 1.98 18.817a7.501 7.501 0 0 0 3.899 5.817l15.063 8.122zm-32.194-43.564l-26.591 15.466-21.597-8.021-5.22-20.25 29.911-17.398 5.144 19.956a7.502 7.502 0 0 0 4.651 5.159l13.702 5.088zM277.73 65.139a7.497 7.497 0 0 0 5.354 4.216l10.427 2.064-23.769 13.825-23.379-4.627-8.32-18.04 30.36-17.659 9.327 20.221zm-42.228-25.701c1.446 1.767 3.631 2.796 5.901 2.749l1.906-.025-17 9.888-24.87.327-11.464-14.004 30.251-17.595 15.276 18.66zm-69.197-23.425l17.417 8.645-8.268 4.809-25.029 8.687-11.97-5.941 27.85-16.2zm182.477 414.353l-24.007 4.174a7.496 7.496 0 0 0-4.472 2.582l-15.617 18.704-21.971-10.905a7.487 7.487 0 0 0-5.793-.367l-23.741 8.239-16.01-19.559c-1.447-1.767-3.646-2.753-5.902-2.749l-25.583.337-10.739-23.286a7.497 7.497 0 0 0-5.354-4.216l-25.281-5.003-6.438-24.976a7.502 7.502 0 0 0-4.651-5.159l-24.229-9-2.704-25.715a7.5 7.5 0 0 0-3.9-5.817l-22.78-12.28.753-25.868a7.501 7.501 0 0 0-3.087-6.286l-20.918-15.201 4.321-25.484a7.501 7.501 0 0 0-2.142-6.607l-18.41-18.063 8.308-24.392a7.502 7.502 0 0 0-.974-6.746L52.664 165.78l13.083-21.986a7.503 7.503 0 0 0 .571-6.486l-8.934-23.643L76.39 97.224a7.502 7.502 0 0 0 2.579-5.201l1.541-24.48 24.007-4.174a7.496 7.496 0 0 0 4.472-2.582l15.617-18.704 21.971 10.905a7.5 7.5 0 0 0 5.793.368l23.741-8.239 16.01 19.558c1.447 1.767 3.629 2.807 5.902 2.749l25.583-.336 10.739 23.286a7.497 7.497 0 0 0 5.354 4.216l25.281 5.003 6.438 24.976a7.502 7.502 0 0 0 4.651 5.159l24.229 9 2.704 25.715a7.5 7.5 0 0 0 3.9 5.817l22.777 12.28-.753 25.868a7.5 7.5 0 0 0 3.088 6.286l20.918 15.2-4.321 25.484a7.501 7.501 0 0 0 2.142 6.607l18.41 18.063-8.308 24.392a7.502 7.502 0 0 0 .974 6.746l14.797 20.943-13.083 21.987a7.503 7.503 0 0 0-.571 6.486l8.934 23.643-19.005 16.441a7.502 7.502 0 0 0-2.579 5.201l-1.54 24.479zm15.481-7.166l.833-13.23 20.055-17.349 8.098-4.71-1.205 19.134-27.781 16.155z"/><path d="M260.226 186.572a7.5 7.5 0 0 0-10.48 1.631l-82.312 112.654a7.5 7.5 0 1 0 12.111 8.849l82.312-112.654a7.5 7.5 0 0 0-1.631-10.48zm-69.484 39.685c4.258 0 8.267-1.033 11.865-3.111 8.262-4.771 12.835-14.163 12.877-26.448.037-10.808-3.501-22.922-9.962-34.112s-15.183-20.312-24.562-25.684c-10.66-6.107-21.081-6.843-29.343-2.072-15.931 9.198-17.211 35.799-2.915 60.561 6.46 11.19 15.183 20.312 24.562 25.684 6.018 3.447 11.958 5.182 17.478 5.182zm-29.049-38.366c-8.494-14.712-11.4-34.975-2.575-40.07 1.237-.714 2.72-1.067 4.384-1.067 2.9 0 6.35 1.072 10.003 3.164 7.011 4.017 13.946 11.368 19.027 20.168s7.979 18.482 7.952 26.562c-.022 6.624-1.982 11.548-5.377 13.508-3.396 1.959-8.639 1.196-14.387-2.097-7.011-4.016-13.946-11.367-19.027-20.168zm94.333 88.942c-10.66-6.105-21.081-6.842-29.343-2.072-8.263 4.77-12.836 14.163-12.877 26.448-.036 10.808 3.502 22.923 9.962 34.113s15.183 20.312 24.562 25.684c6.018 3.447 11.958 5.183 17.478 5.183 4.258 0 8.267-1.033 11.865-3.111 8.262-4.771 12.835-14.163 12.877-26.448.037-10.808-3.501-22.922-9.962-34.112s-15.183-20.312-24.562-25.685zm14.147 73.254c-3.395 1.959-8.639 1.195-14.387-2.097-7.011-4.016-13.946-11.367-19.027-20.168s-7.98-18.482-7.953-26.563c.022-6.624 1.982-11.548 5.377-13.508 1.237-.714 2.72-1.067 4.384-1.067 2.9 0 6.35 1.072 10.003 3.164 7.011 4.017 13.946 11.368 19.027 20.168s7.979 18.482 7.952 26.562c-.022 6.626-1.981 11.549-5.376 13.509z"/></g></svg>