<svg xmlns="http://www.w3.org/2000/svg" viewBox="0 0 131.413 131.413"><circle cx="65.707" cy="65.707" r="65.706" fill="#67bc47"/><path d="M38.833 28.124A1.833 1.833 0 0 0 37 29.957v75.645c0 1.012.82 1.834 1.833 1.834h27.832V28.124H38.833z" fill="#006d89"/><path d="M94.639 28.124H66.666v79.312H94.64a1.834 1.834 0 0 0 1.833-1.834V29.958a1.835 1.835 0 0 0-1.834-1.834z" fill="#007f9b"/><path d="M60.772 44.977c-3.771 1.617-6.548 4.358-8.169 8.136a14.927 14.927 0 0 0-1.207 5.955c0 2.08.396 4.079 1.207 5.971 1.621 3.777 4.398 6.535 8.169 8.152a14.91 14.91 0 0 0 5.894 1.223v-30.66a14.914 14.914 0 0 0-5.894 1.223zm.856 1.627c-1.325 1.677-2.297 3.807-2.918 6.391h-4.008c1.474-2.869 3.957-5.167 6.926-6.391zm-8.37 12.463c0-1.459.234-2.869.687-4.227h4.395a27.901 27.901 0 0 0 0 8.42h-4.429a13.69 13.69 0 0 1-.653-4.193zm1.443 6.038h4.008c.621 2.633 1.594 4.797 2.918 6.458-3.018-1.258-5.501-3.555-6.926-6.458zm11.087 7.297c-1.09-.319-2.114-1.124-3.037-2.432-.922-1.309-1.626-2.935-2.113-4.865h5.15v7.297zm0-9.142h-5.569c-.219-1.493-.336-2.885-.336-4.193 0-1.409.117-2.818.369-4.227h5.536v8.42zm-5.149-10.265c.52-1.912 1.228-3.519 2.147-4.814.926-1.306 1.912-2.113 3.003-2.415v7.229h-5.15z" fill="#ededed"/><path d="M80.851 53.112c-1.618-3.771-4.367-6.514-8.169-8.136a14.984 14.984 0 0 0-5.955-1.224l-.062.001v30.66l.062.001c2.08 0 4.054-.414 5.955-1.224 3.802-1.622 6.551-4.381 8.169-8.152a15.009 15.009 0 0 0 1.224-5.971c0-2.08-.41-4.056-1.224-5.955zm-2.079-.117h-4.009c-.621-2.583-1.594-4.714-2.919-6.391 2.969 1.224 5.452 3.522 6.928 6.391zm-11.088-7.23c1.09.302 2.076 1.109 3.003 2.415.918 1.295 1.626 2.902 2.146 4.814h-5.149v-7.229zm0 9.075h5.535c.252 1.408.369 2.818.369 4.227 0 1.308-.117 2.7-.335 4.193h-5.568v-8.42zm0 17.562v-7.297h5.149c-.502 1.93-1.216 3.549-2.129 4.865-.917 1.319-1.913 2.131-3.02 2.432zm4.159-.839c1.325-1.661 2.298-3.825 2.919-6.458h4.009c-1.426 2.903-3.908 5.2-6.928 6.458zm7.717-8.303h-4.429a27.91 27.91 0 0 0 0-8.42h4.395c.454 1.358.688 2.767.688 4.227 0 1.425-.218 2.835-.654 4.193z" fill="#fff"/><path d="M45.806 89.585v1.937h-1.351v-6.654h2.446c1.566 0 2.368.763 2.368 2.31s-.802 2.407-2.368 2.407h-1.095zm1.086-1.154c.675 0 1.008-.411 1.008-1.252 0-.831-.333-1.155-1.008-1.155h-1.086v2.407h1.086zm4.081-3.562h2.564l1.497 6.654h-1.35l-.265-1.204H51.09l-.264 1.204h-1.351l1.498-6.654zm.373 4.276h1.82l-.675-3.161h-.47l-.675 3.161zm8.504-3.064s-1.379-.157-1.947-.157c-.725 0-1.067.264-1.067.706 0 .42.264.566 1.379.92 1.439.459 1.879.86 1.879 1.967 0 1.448-.988 2.123-2.3 2.123-.91 0-2.221-.303-2.221-.303l.138-1.047s1.31.176 2.005.176c.724 0 1.037-.343 1.037-.861 0-.411-.234-.598-1.193-.871-1.497-.431-2.064-.939-2.064-2.006 0-1.379.919-1.976 2.269-1.976.891 0 2.193.264 2.193.264l-.108 1.065zm5.325 0s-1.38-.157-1.947-.157c-.724 0-1.067.264-1.067.706 0 .42.264.566 1.379.92 1.439.459 1.879.86 1.879 1.967 0 1.448-.988 2.123-2.299 2.123-.911 0-2.221-.303-2.221-.303l.137-1.047s1.312.176 2.005.176c.725 0 1.038-.343 1.038-.861 0-.411-.235-.598-1.194-.871-1.497-.431-2.064-.939-2.064-2.006 0-1.379.92-1.976 2.27-1.976.891 0 2.191.264 2.191.264l-.107 1.065z" fill="#ededed"/><path d="M68.953 84.869h-2.287v6.654h1.191v-1.937h1.096c1.565 0 2.368-.861 2.368-2.407s-.803-2.31-2.368-2.31zm-.011 3.562h-1.085v-2.407h1.085c.676 0 1.009.323 1.009 1.155 0 .841-.333 1.252-1.009 1.252zm-2.436-3.562h.16v6.654h-.16zm5.471 3.366c0-2.251.666-3.483 2.759-3.483 2.094 0 2.76 1.232 2.76 3.483 0 2.25-.666 3.405-2.76 3.405-2.093 0-2.759-1.155-2.759-3.405zm4.13 0c0-1.536-.273-2.31-1.37-2.31-1.096 0-1.37.774-1.37 2.31s.273 2.231 1.37 2.231c1.096 0 1.37-.695 1.37-2.231zm3.896 1.056v2.231h-1.351v-6.654h2.583c1.518 0 2.348.675 2.348 2.191 0 .92-.372 1.536-.978 1.919l.949 2.544h-1.478l-.773-2.231h-1.3zm1.233-3.268h-1.232v2.113h1.252c.675 0 .949-.469.949-1.056-.001-.636-.324-1.057-.969-1.057zm2.887-1.154h4.893v1.194h-1.762v5.459h-1.35v-5.459h-1.782v-1.194z" fill="#fff"/></svg>