<svg xmlns="http://www.w3.org/2000/svg" viewBox="0 0 131.413 131.413"><circle cx="65.707" cy="65.707" r="65.706" fill="#00aad5"/><path d="M67.068 35.618c-10.615 0-19.221 8.606-19.221 19.221s8.605 19.22 19.221 19.22l.08-.002V35.621l-.08-.003z" fill="#e6a905"/><path d="M86.287 54.839c0-10.588-8.561-19.175-19.139-19.218v38.437c10.578-.044 19.139-8.631 19.139-19.219z" fill="#f8bb17"/><path d="M54.19 34.387a1.517 1.517 0 0 1-1.313-.757l-5.591-9.685a1.515 1.515 0 0 1 2.623-1.515l5.592 9.684a1.517 1.517 0 0 1-1.311 2.273zM43.98 45.118c-.232 0-.466-.053-.687-.164l-9.964-5.077a1.513 1.513 0 1 1 1.375-2.699l9.964 5.076a1.516 1.516 0 0 1-.688 2.864zM30.141 60.847a1.515 1.515 0 0 1-1.505-1.355 1.516 1.516 0 0 1 1.349-1.665l11.122-1.169a1.515 1.515 0 0 1 .314 3.013L30.3 60.838a1.201 1.201 0 0 1-.159.009zm8.084 19.559a1.514 1.514 0 0 1-.953-2.692l8.69-7.038a1.514 1.514 0 1 1 1.905 2.354l-8.689 7.037c-.28.228-.617.339-.953.339zm17.432 12.002a1.518 1.518 0 0 1-1.441-1.984L57.67 79.79a1.515 1.515 0 0 1 2.882.935l-3.457 10.636a1.514 1.514 0 0 1-1.438 1.047z" fill="#e6a905"/><path d="M76.809 92.98c-.668 0-1.28-.446-1.462-1.123l-2.894-10.802a1.514 1.514 0 1 1 2.925-.785l2.894 10.802a1.513 1.513 0 0 1-1.463 1.908zm18.055-11.043c-.361 0-.723-.129-1.013-.389l-8.31-7.483a1.513 1.513 0 0 1-.111-2.139 1.514 1.514 0 0 1 2.138-.113l8.312 7.483a1.514 1.514 0 0 1-1.016 2.641zm9.13-19.093c-.079 0-.159-.006-.238-.02l-11.047-1.749a1.514 1.514 0 0 1-1.257-1.733 1.512 1.512 0 0 1 1.731-1.259l11.045 1.749a1.514 1.514 0 0 1-.234 3.012zM91.032 46.408a1.515 1.515 0 0 1-.616-2.899l10.216-4.548a1.514 1.514 0 1 1 1.231 2.767l-10.216 4.549a1.529 1.529 0 0 1-.615.131zm-9.607-11.274a1.513 1.513 0 0 1-1.268-2.339l6.09-9.379a1.514 1.514 0 1 1 2.54 1.65l-6.091 9.378c-.291.447-.776.69-1.271.69z" fill="#f8bb17"/><path d="M65.716 18.213v11.183c0 .809.634 1.468 1.432 1.511V16.703a1.512 1.512 0 0 0-1.432 1.51z" fill="#e6a905"/><path d="M67.23 16.698c-.027 0-.054.003-.082.004v14.204c.028.001.055.004.082.004.837 0 1.515-.678 1.515-1.515V18.213c0-.836-.678-1.515-1.515-1.515z" fill="#f8bb17"/><path d="M81.857 75.291c-.058 0-.115.004-.174.004v34.224c.059 0 .116.004.174.004 9.452 0 17.117-7.664 17.117-17.116s-7.665-17.116-17.117-17.116z" fill="#fff"/><path d="M64.741 92.408c0 9.395 7.57 17.018 16.942 17.112V75.296c-9.372.094-16.942 7.717-16.942 17.112z" fill="#ededed"/><path d="M81.857 37.785c-.058 0-.115.003-.174.004v55.814c.059.001.116.005.174.005a7.951 7.951 0 0 0 7.951-7.95V45.734a7.95 7.95 0 0 0-7.951-7.949z" fill="#fff"/><path d="M73.907 45.734v39.924a7.948 7.948 0 0 0 7.776 7.945V37.789a7.948 7.948 0 0 0-7.776 7.945z" fill="#ededed"/><path d="M86.914 80.493V55.988a5.056 5.056 0 0 0-5.057-5.057c-.059 0-.115.007-.174.008v54.407c.059 0 .116.004.174.004 7.148 0 12.941-5.794 12.941-12.941 0-5.354-3.25-9.947-7.884-11.916z" fill="#ed2a27"/><path d="M76.8 55.988v24.504c-4.635 1.969-7.886 6.563-7.886 11.916 0 7.088 5.703 12.844 12.768 12.938V50.939a5.054 5.054 0 0 0-4.882 5.049z" fill="#db1815"/></svg>