<svg xmlns="http://www.w3.org/2000/svg" viewBox="0 0 495 495"><path fill="#6d2c93" d="M247.5 0v40H455v415H247.5v40H495V0z"/><path fill="#933ec5" d="M40 455V40h207.5V0H0v495h247.5v-40z"/><path d="M185.428 309.197c36.332 36.332 80.711 64.548 132.199 85.521 35.751 14.563 65.944-.643 78.29-37.357 2.216-6.591 2.37-13.043-.014-19.522-5.76-15.657-60.331-55.305-76.661-56.194-12.523-.681-19.306 7.829-25.037 16.275-10.838 15.953-24.576 16.042-39.899 9.224-15.419-6.862-28.91-15.662-40.037-26.79-11.127-11.127-19.928-24.618-26.79-40.037-6.818-15.323-6.729-29.061 9.225-39.898 8.446-5.731 16.955-12.514 16.274-25.037-.889-16.329-40.537-70.901-56.194-76.66-6.479-2.384-12.931-2.229-19.522-.014-36.714 12.346-51.92 42.54-37.357 78.29 20.975 51.488 49.191 95.867 85.523 132.199zm70.735-192.162a100.449 100.449 0 0 1 24.42-.841c25.271 2.19 49.319 13.528 67.715 31.924 17.844 17.843 28.819 40.917 30.905 64.971a95.171 95.171 0 0 1-1.028 24.484c-.993 5.714 2.835 11.15 8.548 12.142.608.105 1.213.157 1.81.157 5.01 0 9.445-3.6 10.332-8.705a116.153 116.153 0 0 0 1.261-29.892c-2.513-28.971-15.645-56.674-36.978-78.007-21.886-21.885-50.563-35.379-80.75-37.997-9.903-.858-19.837-.515-29.523 1.022-5.728.909-9.634 6.288-8.726 12.016.907 5.727 6.28 9.633 12.014 8.726z" fill="#933ec5"/><path d="M353.181 240.643c.449.057.895.084 1.337.084 5.209 0 9.729-3.875 10.402-9.178a81.394 81.394 0 0 0 .335-17.25c-1.803-20.777-11.341-40.765-26.857-56.281-16.068-16.069-37.029-25.97-59.022-27.877a86.98 86.98 0 0 0-18.474.36c-5.752.735-9.819 5.994-9.084 11.747.734 5.753 6.009 9.815 11.746 9.084a65.91 65.91 0 0 1 13.997-.269c17.076 1.48 33.408 9.224 45.987 21.804 12.028 12.027 19.409 27.385 20.785 43.245a60.425 60.425 0 0 1-.245 12.791c-.731 5.753 3.34 11.009 9.093 11.74z" fill="#933ec5"/><path d="M319.272 234.411c.242.017.483.025.724.025 5.474 0 10.088-4.245 10.465-9.787a47.618 47.618 0 0 0-.074-7.327c-2.333-26.909-26.067-49.887-54.034-52.312a53.782 53.782 0 0 0-6.796-.159c-5.795.239-10.298 5.13-10.059 10.924s5.137 10.29 10.924 10.058a32.393 32.393 0 0 1 4.117.099c17.503 1.517 33.497 16.723 34.926 33.203.12 1.386.135 2.761.045 4.087-.395 5.786 3.976 10.796 9.762 11.189z" fill="#933ec5"/></svg>