
<svg x="0px" y="0px" viewBox="0 0 454.137 454.137" style="enable-background:new 0 0 454.137 454.137;">
		<path d="M391.023,321.947c-27.089-27.089-42.308-63.83-42.308-102.14v-35.833c0-57-39.206-104.837-92.121-118.032V29.526    C256.595,13.22,243.375,0,227.068,0s-29.526,13.22-29.526,29.526v36.417c-52.915,13.195-92.121,61.031-92.121,118.032v35.833    c0,38.31-15.219,75.051-42.308,102.14c-11.907,11.907-15.469,29.814-9.025,45.372c6.444,15.557,21.625,25.701,38.464,25.701h73.4    c0,33.753,27.363,61.116,61.116,61.116s61.116-27.363,61.116-61.116h73.4c16.839,0,32.02-10.144,38.464-25.701    C406.493,351.762,402.931,333.854,391.023,321.947z" fill="#2e2e2e"/>
</svg>
