<?xml version="1.0" encoding="iso-8859-1"?>
<!-- Generator: Adobe Illustrator 18.0.0, SVG Export Plug-In . SVG Version: 6.00 Build 0)  -->
<!DOCTYPE svg PUBLIC "-//W3C//DTD SVG 1.1//EN" "http://www.w3.org/Graphics/SVG/1.1/DTD/svg11.dtd">
<svg version="1.1" id="Capa_1" xmlns="http://www.w3.org/2000/svg" xmlns:xlink="http://www.w3.org/1999/xlink" x="0px" y="0px"
	 viewBox="0 0 481.429 481.429" style="enable-background:new 0 0 481.429 481.429;" xml:space="preserve">
<g>
	<path d="M238.021,175.336c10.006,0,18.146-8.14,18.146-18.146c0-1.316-0.142-2.615-0.422-3.886c4.146-2.9,6.677-7.64,6.677-12.882
		c0-8.69-7.07-15.761-15.761-15.761c-8.691,0-15.762,7.07-15.762,15.761c0,0.026,0,0.053,0,0.079
		c-6.56,2.803-11.023,9.325-11.023,16.688C219.876,167.196,228.016,175.336,238.021,175.336z M236.046,147.241
		c1.078-0.213,2.02-0.858,2.607-1.786c0.587-0.929,0.767-2.057,0.497-3.121c-0.169-0.667-0.251-1.292-0.251-1.911
		c0-4.279,3.482-7.761,7.762-7.761c4.279,0,7.761,3.481,7.761,7.761c0,3.222-1.947,6.06-4.96,7.229
		c-1.024,0.397-1.84,1.199-2.255,2.216c-0.416,1.017-0.396,2.16,0.057,3.161c0.6,1.325,0.903,2.727,0.903,4.162
		c0,5.595-4.551,10.146-10.146,10.146c-5.594,0-10.146-4.551-10.146-10.146C227.876,152.358,231.312,148.174,236.046,147.241z"/>
	<path d="M226.716,261.208c-6.968,1.501-12.932,5.622-16.793,11.604c-1.127,1.746-2.037,3.592-2.721,5.502
		c-6.198-6.403-15.466-9.571-24.802-7.558c-2.16,0.465-3.533,2.593-3.068,4.753c0.465,2.159,2.593,3.539,4.752,3.067
		c10.063-2.169,20.012,4.254,22.18,14.316c0.404,1.876,2.062,3.158,3.906,3.158c0.279,0,0.563-0.029,0.846-0.091
		c1.875-0.404,3.157-2.061,3.159-3.904c0-0.279-0.029-0.563-0.091-0.849c-1.051-4.879-0.142-9.871,2.561-14.057
		c2.702-4.187,6.877-7.071,11.756-8.122c2.16-0.465,3.533-2.593,3.068-4.753C231.003,262.117,228.877,260.739,226.716,261.208z"/>
	<path d="M381.325,276.766c-0.073-1.816-1.361-3.354-3.136-3.746c-0.963-0.213-22.781-4.776-52.323,7.909v-48.166
		c15.968-8.426,23.818-19.271,23.296-32.274c-0.536-13.459-9.438-22.142-25.069-24.45c-8.087-1.194-16.765-0.357-25.104,2.422
		c-3.345,1.114-5.251,1.98-6.434,2.667c-0.137-0.002-0.272-0.01-0.408-0.01c-6.407,0-11.62-5.168-11.62-11.521
		c0-0.235,0.009-0.493,0.022-0.73c1.356-21.77,0.103-43.632-3.718-65.047c0.361-0.089,0.725-0.167,1.086-0.259
		c4.238-1.079,7.867-3.915,9.956-7.778c2.109-3.9,2.495-8.544,1.069-12.707l-0.049-0.144l-0.039-0.115
		c-1.868-5.454-6.526-9.285-11.883-10.39l-0.937-57.034l-0.028,0C275.322,4.899,252.933,0,237.714,0
		c-15.218,0-37.608,4.899-38.293,15.394l-0.034-0.001l-0.937,57.035c-5.356,1.107-10.011,4.94-11.88,10.397l-0.074,0.219
		c-1.437,4.195-1.05,8.838,1.059,12.739c2.089,3.863,5.718,6.698,9.956,7.777c0.362,0.092,0.728,0.17,1.091,0.26
		c-3.821,21.377-5.073,43.238-3.716,65.042c0.196,3.195-0.908,6.243-3.109,8.584c-0.373,0.397-0.776,0.752-1.191,1.088
		c-2.693-7.817-6.063-15.519-10.066-22.951c-27.792-51.604-67.62-58.688-69.302-58.964c-1.791-0.288-3.56,0.657-4.301,2.316
		c-0.653,1.463-14.833,34.39,6.566,81.207c-17.164-2.291-29.365,0.254-30.247,0.447c-1.913,0.418-3.242,2.16-3.14,4.116
		c0.09,1.725,2.601,41.796,39.435,71.421c-1.901,3.676-3.092,7.586-3.571,11.75c-3.21,27.833,16.555,38.824,23.666,41.847
		c0.494,0.21,9.931,4.294,9.931,4.294v64.263c-22.154,9.752-33.839,22.325-35.687,38.382c-3.143,27.252,14.814,39.413,23.422,43.817
		c9.259,4.737,26.026,11.331,28.089,11.875c23.585,6.229,47.946,9.072,72.336,9.072c26.517,0,52.927-3.629,78.498-10.785
		c5.684-1.591,9.652-6.827,9.652-12.733v-73.403c26.07-9.726,38.941-23.294,38.264-40.354c-0.186-4.652-1.288-8.755-3.275-12.276
		C382.095,302.873,381.368,277.841,381.325,276.766z M322.924,183.953c1.037,0.153,2.012,0.345,2.958,0.556
		c-0.499,3.42-2.906,6.524-7.303,9.408c-3.148-3.977-7.128-7.153-11.615-9.351C312.369,183.412,317.8,183.196,322.924,183.953z
		 M237.714,8c16.805,0,29.25,5.461,30.299,7.886c-1.049,2.425-13.494,7.886-30.299,7.886c-16.806,0-29.251-5.461-30.3-7.886
		C208.463,13.461,220.908,8,237.714,8z M207.221,25.556c8.048,4.204,20.743,6.215,30.493,6.215c9.748,0,22.439-2.011,30.488-6.212
		l0.776,47.242c-20.48,5.04-42.053,5.041-62.533-0.001L207.221,25.556z M194.592,91.979c-1.066-1.971-1.253-4.223-0.524-6.351
		l0.074-0.219c1.106-3.23,4.181-5.322,7.468-5.322c0.632,0,1.272,0.077,1.908,0.239c22.371,5.686,46.021,5.686,68.394,0
		c0,0,0,0,0.001,0c3.938-1.002,8.056,1.231,9.364,5.052l0.049,0.144c0,0,0.039,0.114,0.039,0.115
		c0.726,2.118,0.538,4.371-0.527,6.342c-1.045,1.933-2.783,3.293-4.895,3.831c-25.008,6.373-51.447,6.373-76.457,0
		C197.375,95.271,195.637,93.911,194.592,91.979z M197.603,182.929c3.729-3.966,5.6-9.135,5.267-14.56
		c-1.311-21.06-0.117-42.171,3.547-62.817c10.316,2.017,20.804,3.038,31.297,3.037c10.492,0,20.985-1.021,31.302-3.038
		c3.664,20.684,4.858,41.796,3.548,62.831c-0.024,0.41-0.037,0.832-0.037,1.216c0,10.764,8.802,19.521,19.62,19.521
		c0.478,0,0.964,0.019,1.379,0.034c6.888,0.363,13.278,3.493,17.803,8.566c-1.001,0.43-2.039,0.853-3.137,1.265
		c-11.63,4.349-27.003,7.142-42.298,9.228c-4.061-6.773-11.391-11.012-19.438-11.012c-0.9,0-1.799,0.055-2.691,0.163
		c-2.633-9.656-11.478-16.693-21.838-16.693c-11.341,0-20.764,8.37-22.414,19.259c-1.851-0.372-3.74-0.559-5.656-0.559
		c-15.141,0-27.57,11.804-28.594,26.695c-2.632,0.831-5.21,1.696-7.705,2.607v-13.833c0-4.302,1.023-8.385,3.047-12.144
		c1.181-2.207,2.692-4.238,4.494-6.04c4.851-4.86,11.307-7.536,18.179-7.536C188.682,189.118,193.903,186.862,197.603,182.929z
		 M207.332,204.828c-0.05-0.454-0.076-0.955-0.076-1.489c0-8.089,6.581-14.67,14.67-14.67c7.717,0,14.134,6.042,14.607,13.755
		c0.077,1.242,0.727,2.379,1.76,3.073c1.031,0.694,2.329,0.867,3.509,0.473c1.518-0.512,3.083-0.771,4.653-0.771
		c3.916,0,7.567,1.557,10.259,4.191c-5.366,0.651-10.631,1.237-15.612,1.789c-9.536,1.057-17.772,1.969-23.836,3.04
		c-14.065,2.484-29.381,5.455-43.582,9.366c2.047-9.261,10.307-16.215,20.171-16.215c2.754,0,5.432,0.535,7.958,1.591
		c1.309,0.545,2.806,0.359,3.939-0.489C206.887,207.621,207.488,206.235,207.332,204.828z M113.132,105.305
		c9.622,2.773,38.854,14.173,60.343,54.072c3.795,7.047,6.989,14.345,9.541,21.748c-8.914,0.067-17.279,3.565-23.578,9.875
		c-1.327,1.327-2.521,2.762-3.6,4.271c-11.325-6.986-22.531-11.068-32.633-13.367C104.043,143.884,110.274,114.595,113.132,105.305z
		 M88.504,187.855c5.313-0.647,16.127-1.332,29.394,1.178c0.039,0.072,0.075,0.144,0.114,0.216l0.265-0.143
		c10.259,1.981,21.955,5.882,33.708,13.188c-1.589,3.966-2.428,8.237-2.428,12.543v17.013
		c-11.475,5.023-19.965,10.852-25.571,17.593C96.607,227.071,90.007,197.889,88.504,187.855z M134.011,296.959
		c-5.889-5.051-11.761-13.794-10.104-28.166c1.431-12.442,11.495-22.396,30.765-30.428c18.267-7.604,42.596-12.491,63.986-16.269
		c5.811-1.026,13.927-1.926,23.326-2.967c22.268-2.467,49.98-5.536,69.013-12.654c3.104-1.163,5.907-2.412,8.325-3.711
		c7.941-4.238,12.685-9.413,14.164-15.422c4.899,2.882,7.438,7.337,7.682,13.466c0.413,10.291-6.478,18.772-21.068,25.931
		c-3.453,1.698-7.435,3.345-11.833,4.894c-13.433,4.724-30.94,8.561-53.524,11.729c-51.869,7.294-85.667,14.92-103.324,23.314
		c-4.687,2.227-8.234,4.476-10.84,6.872C132.737,280.733,132.035,289.472,134.011,296.959z M325.866,325.462
		c4.122-0.075,9.132,0.163,13.866,1.256c-0.635,5.168-5.297,9.798-13.866,13.816V325.462z M280.186,341.579
		c-2.803,0-5.53,0.609-8.036,1.728l-22.984-11.877l9.534-22.846l27.245,14.078l3.672-7.107l-27.825-14.379l9.173-21.98l13.875,7.893
		l3.955-6.953l-14.726-8.378l6.21-14.879l-7.383-3.082l-5.833,13.976l-12.056-6.859l-3.955,6.953l12.907,7.343l-9.299,22.281
		l-28.46-14.707l-3.673,7.107l29.042,15.007l-9.534,22.846l-44.962-23.234l-3.673,7.107l45.544,23.534l-2.71,6.495
		c-4.395,0.328-8.552,2.1-11.828,5.094c-2.174,1.978-4.99,3.067-7.928,3.067c-2.939,0-5.754-1.09-7.922-3.063
		c-3.647-3.332-8.377-5.167-13.318-5.167c-4.941,0-9.671,1.835-13.313,5.162c-2.173,1.978-4.989,3.067-7.927,3.067
		c-2.939,0-5.754-1.09-7.92-3.062c-2.421-2.214-5.363-3.767-8.52-4.56v-49.472c3.594-5.019,8.802-8.575,14.819-10.028
		c1.323-0.319,2.392-1.289,2.839-2.574s0.209-2.71-0.63-3.781c-1.942-2.478-2.969-5.452-2.969-8.603
		c0-0.017,0.002-0.034,0.002-0.052c18.809-5.696,46.629-11.104,84.236-16.392c14.567-2.044,27.104-4.373,37.877-7.043l-0.011,0.029
		c9.753,3.602,16.306,13.017,16.306,23.429c0,3.264-0.626,6.439-1.859,9.438c-0.653,1.589-0.22,3.418,1.078,4.544
		c5.479,4.753,8.621,11.627,8.621,18.858v43.191c-6.151,2.105-13.133,3.85-20.517,5.333c-1.407-0.513-2.703-1.28-3.845-2.317
		C289.858,343.414,285.128,341.579,280.186,341.579z M285.964,351.112c-4.745,0.767-9.561,1.452-14.347,2.077
		c0.215-0.18,0.439-0.347,0.647-0.536c2.169-1.981,4.982-3.073,7.922-3.073C282.232,349.579,284.212,350.119,285.964,351.112z
		 M157.556,365.157v-14.541c1.137,0.509,2.197,1.191,3.127,2.041c3.65,3.322,8.377,5.151,13.313,5.151
		c4.935,0,9.662-1.829,13.317-5.156c2.169-1.981,4.983-3.073,7.922-3.073s5.753,1.092,7.928,3.078
		c3.65,3.322,8.377,5.151,13.313,5.151c4.934,0,9.662-1.829,13.318-5.156c2.169-1.981,4.979-3.073,7.912-3.073
		c2.946,0,5.758,1.09,7.928,3.079c1.359,1.237,2.869,2.265,4.482,3.07c-0.638,0.071-1.274,0.141-1.903,0.211
		c-10.25,1.135-19.103,2.114-25.616,3.265c-17.56,3.102-36.954,6.898-54.153,12.176c-0.852-0.457-1.653-1.012-2.369-1.663
		C163.653,367.503,160.712,365.95,157.556,365.157z M159.176,374.465c-0.545,0.196-1.081,0.397-1.619,0.597v-1.476
		C158.117,373.837,158.659,374.128,159.176,374.465z M244.433,342.771l1.641-3.933l18.469,9.544
		c-1.707,0.924-3.622,1.427-5.598,1.427c-2.938,0-5.754-1.09-7.917-3.058C249.097,344.98,246.851,343.646,244.433,342.771z
		 M157.556,281.219v-8.533c1.896-0.815,3.971-1.623,6.207-2.426c0.249,2.187,0.815,4.301,1.693,6.293
		C162.608,277.738,159.961,279.319,157.556,281.219z M316.517,277.555c0.694-2.201,1.134-4.465,1.349-6.768v8.251
		C317.431,278.532,316.985,278.035,316.517,277.555z M304.67,241.225c2.166-0.664,4.256-1.345,6.253-2.047
		c2.436-0.857,4.751-1.747,6.943-2.661v28.101C316.976,255.248,312.088,246.748,304.67,241.225z M148.878,304.959
		c-2.216-0.987-4.022-2.702-5.131-4.86c-2.647-5.149-5.221-13.82,2.241-20.657c0.958-0.881,2.154-1.771,3.569-2.665v28.484
		L148.878,304.959z M149.556,457.292l-3.988-1.92c-2.283-3.164-10.803-16.532,0.091-26.517c1.052-0.966,2.357-1.938,3.896-2.91
		V457.292z M314.057,462.94c-24.868,6.959-50.554,10.488-76.341,10.488c-25.794,0-51.482-3.529-76.351-10.488
		c-0.089-0.025-0.174-0.059-0.26-0.089l-1.139-0.549c-0.796-0.515-1.437-1.237-1.856-2.081c2.951-0.831,5.692-2.324,7.96-4.405
		c2.173-1.979,4.988-3.068,7.927-3.068c2.938,0,5.753,1.09,7.922,3.063c3.647,3.332,8.377,5.167,13.318,5.167
		c4.941,0,9.671-1.835,13.313-5.162c2.173-1.979,4.988-3.068,7.927-3.068c2.938,0,5.754,1.09,7.917,3.059
		c3.638,3.335,8.37,5.172,13.323,5.172c4.935,0,9.662-1.835,13.302-5.162c2.174-1.979,4.989-3.068,7.928-3.068
		s5.754,1.09,7.922,3.063c3.646,3.332,8.377,5.167,13.318,5.167s9.672-1.835,13.313-5.162c2.173-1.979,4.988-3.068,7.927-3.068
		s5.754,1.09,7.921,3.063c2.28,2.084,5.021,3.577,7.966,4.408C316.671,461.517,315.51,462.533,314.057,462.94z M317.866,451.942
		c-1.136-0.509-2.196-1.19-3.127-2.041c-3.65-3.322-8.378-5.152-13.313-5.152c-4.936,0-9.664,1.83-13.318,5.157
		c-2.169,1.981-4.982,3.073-7.922,3.073s-5.753-1.092-7.927-3.078c-3.65-3.322-8.378-5.152-13.313-5.152
		c-4.935,0-9.662,1.83-13.318,5.157c-2.169,1.981-4.979,3.073-7.912,3.073c-2.946,0-5.758-1.09-7.927-3.078
		c-3.65-3.322-8.378-5.152-13.313-5.152c-4.936,0-9.664,1.83-13.318,5.157c-2.169,1.981-4.982,3.073-7.922,3.073
		s-5.753-1.092-7.927-3.078c-3.649-3.322-8.377-5.152-13.313-5.152s-9.664,1.83-13.324,5.163c-0.924,0.847-1.981,1.527-3.116,2.034
		v-13.685c3.159-0.792,6.101-2.342,8.518-4.552c2.168-1.981,4.981-3.072,7.922-3.072c2.94,0,5.753,1.091,7.927,3.077
		c3.65,3.322,8.378,5.152,13.313,5.152c4.936,0,9.664-1.83,13.318-5.157c2.168-1.981,4.981-3.072,7.922-3.072
		c2.94,0,5.753,1.091,7.922,3.072c3.641,3.326,8.37,5.157,13.317,5.157c4.929,0,9.653-1.83,13.307-5.157
		c2.17-1.981,4.983-3.072,7.923-3.072c2.94,0,5.754,1.091,7.927,3.077c3.65,3.322,8.378,5.152,13.313,5.152s9.663-1.83,13.318-5.157
		c2.168-1.981,4.981-3.072,7.922-3.072c2.939,0,5.753,1.091,7.926,3.076c2.422,2.206,5.362,3.754,8.514,4.546V451.942z
		 M317.866,429.833c-1.135-0.507-2.195-1.185-3.122-2.029c-3.646-3.331-8.376-5.166-13.317-5.166c-4.942,0-9.672,1.835-13.313,5.161
		c-2.173,1.979-4.988,3.068-7.927,3.068s-5.754-1.09-7.922-3.063c-3.646-3.331-8.376-5.166-13.318-5.166
		c-4.941,0-9.671,1.835-13.313,5.161c-2.173,1.979-4.984,3.068-7.917,3.068c-2.946,0-5.759-1.088-7.922-3.063
		c-3.646-3.331-8.376-5.166-13.318-5.166c-4.942,0-9.672,1.835-13.313,5.161c-2.173,1.979-4.988,3.068-7.927,3.068
		c-2.938,0-5.754-1.09-7.922-3.063c-3.646-3.331-8.376-5.166-13.318-5.166c-4.942,0-9.672,1.835-13.319,5.167
		c-0.925,0.846-1.984,1.524-3.121,2.031v-8.028c6.725-2.952,15.49-5.823,26.376-8.631c3.306,2.308,7.242,3.573,11.304,3.573
		c4.936,0,9.664-1.83,13.313-5.152c2.173-1.978,4.989-3.067,7.928-3.067c2.938,0,5.754,1.09,7.922,3.063
		c3.641,3.326,8.37,5.157,13.317,5.157c4.929,0,9.653-1.83,13.301-5.151c2.175-1.979,4.99-3.068,7.929-3.068s5.754,1.09,7.927,3.067
		c3.65,3.322,8.378,5.152,13.313,5.152s9.663-1.83,13.313-5.152c2.174-1.978,4.989-3.067,7.928-3.067s5.754,1.09,7.927,3.066
		c2.423,2.206,5.362,3.754,8.513,4.545V429.833z M317.866,407.714c-1.136-0.508-2.197-1.187-3.128-2.034
		c-3.65-3.321-8.378-5.15-13.312-5.15c-4.935,0-9.663,1.829-13.313,5.151c-2.173,1.979-4.988,3.068-7.927,3.068
		s-5.754-1.09-7.928-3.068c-3.649-3.322-8.378-5.151-13.313-5.151c-4.934,0-9.661,1.829-13.313,5.151
		c-2.173,1.979-4.984,3.068-7.917,3.068c-2.946,0-5.759-1.088-7.928-3.068c-0.637-0.58-1.318-1.097-2.016-1.585
		c10.988-1.888,23.052-3.756,36.245-5.609c21.991-3.089,39.68-6.782,53.849-11.244V407.714z M320.538,377.93
		c-14.48,5.089-33.332,9.222-57.634,12.636c-55.733,7.827-92.062,16.021-111.056,25.05c-5.001,2.369-8.795,4.771-11.596,7.344
		c-8.664,7.94-9.112,17.663-6.773,25.726c-0.588-0.479-1.179-0.991-1.768-1.538c-7.973-7.416-11.302-17.363-9.895-29.567
		c1.555-13.505,12.441-24.29,33.281-32.971c19.677-8.196,45.867-13.459,68.89-17.525c6.259-1.106,14.992-2.073,25.104-3.192
		c23.941-2.649,53.737-5.947,74.175-13.597c14.105-5.284,22.188-12.255,24.098-20.763c1.238,0.689,2.388,1.488,3.414,2.412
		c3.39,3.052,5.142,7.149,5.356,12.527C356.68,358.186,344.704,369.442,320.538,377.93z M355.568,325.531
		c-7.941-6.731-19.815-8.25-29.702-8.073v-27.77c22.177-10.317,40.215-9.999,47.328-9.303
		C372.623,287.54,369.742,305.434,355.568,325.531z"/>
	<path d="M400.741,107.662l-8.777-14.195l6.719-15.279c0.613-1.394,0.382-3.015-0.597-4.182c-0.979-1.166-2.536-1.677-4.014-1.314
		l-16.214,3.961l-12.454-11.11c-1.136-1.014-2.75-1.295-4.161-0.725c-1.412,0.57-2.377,1.893-2.491,3.411l-1.243,16.644
		l-14.416,8.411c-1.315,0.768-2.081,2.215-1.975,3.733c0.106,1.52,1.065,2.846,2.475,3.423l15.445,6.326l3.544,16.31
		c0.324,1.487,1.464,2.663,2.941,3.031c0.321,0.08,0.646,0.119,0.968,0.119c1.159,0,2.281-0.505,3.052-1.414l10.789-12.734
		l16.607,1.668c1.511,0.151,2.984-0.568,3.791-1.859C401.538,110.595,401.542,108.957,400.741,107.662z M379.039,103.907
		c-1.311-0.133-2.601,0.39-3.451,1.394l-6.909,8.155l-2.27-10.444c-0.28-1.286-1.175-2.353-2.394-2.852l-9.891-4.052l9.231-5.386
		c1.138-0.664,1.875-1.844,1.974-3.157l0.796-10.659l7.976,7.115c0.983,0.877,2.332,1.216,3.612,0.901l10.384-2.536l-4.303,9.784
		c-0.53,1.205-0.434,2.594,0.259,3.714l5.621,9.091L379.039,103.907z"/>
	<path d="M105.63,50.919l-4.257,9.975c-0.598,1.4-0.348,3.019,0.643,4.175c0.991,1.155,2.552,1.646,4.028,1.271l10.507-2.688
		l8.171,7.132c0.742,0.647,1.681,0.986,2.631,0.986c0.519,0,1.042-0.101,1.538-0.308c1.405-0.586,2.356-1.918,2.453-3.438
		l0.69-10.824l9.308-5.568c1.307-0.781,2.057-2.237,1.934-3.755c-0.123-1.518-1.096-2.834-2.511-3.396l-10.081-4.001l-2.418-10.572
		c-0.34-1.484-1.493-2.647-2.974-3c-1.482-0.353-3.034,0.167-4.006,1.34l-6.92,8.351l-10.802-0.967
		c-1.518-0.136-2.979,0.602-3.771,1.901c-0.792,1.3-0.779,2.938,0.036,4.224L105.63,50.919z M115.746,44.754
		c1.306,0.119,2.596-0.419,3.437-1.433l3.09-3.729l1.08,4.722c0.294,1.284,1.2,2.341,2.424,2.826l4.502,1.787l-4.156,2.486
		c-1.13,0.676-1.855,1.864-1.938,3.178l-0.308,4.835l-3.649-3.186c-0.737-0.644-1.674-0.986-2.63-0.986
		c-0.331,0-0.664,0.041-0.992,0.125l-4.692,1.2l1.901-4.454c0.517-1.211,0.404-2.599-0.3-3.711l-2.592-4.092L115.746,44.754z"/>
</g>
<g>
</g>
<g>
</g>
<g>
</g>
<g>
</g>
<g>
</g>
<g>
</g>
<g>
</g>
<g>
</g>
<g>
</g>
<g>
</g>
<g>
</g>
<g>
</g>
<g>
</g>
<g>
</g>
<g>
</g>
</svg>
