<?xml version="1.0" encoding="iso-8859-1"?>
<!-- Generator: Adobe Illustrator 18.0.0, SVG Export Plug-In . SVG Version: 6.00 Build 0)  -->
<!DOCTYPE svg PUBLIC "-//W3C//DTD SVG 1.1//EN" "http://www.w3.org/Graphics/SVG/1.1/DTD/svg11.dtd">
<svg version="1.1" id="Capa_1" xmlns="http://www.w3.org/2000/svg" xmlns:xlink="http://www.w3.org/1999/xlink" x="0px" y="0px"
	 viewBox="0 0 442.881 442.881" style="enable-background:new 0 0 442.881 442.881;" xml:space="preserve">
<g>
	<path d="M413.973,44.361h-58.665l-6.812-20.56c-4.388-13.243-18.734-20.443-31.982-16.057l-65.965,21.867L233.989,9.298
		c-8.813-10.807-24.783-12.431-35.6-3.619L150.217,44.94l-19.724-12.167c-5.747-3.552-12.535-4.65-19.112-3.089
		c-6.575,1.558-12.152,5.584-15.702,11.336L7.388,184.115c-3.55,5.751-4.647,12.54-3.089,19.114
		c1.558,6.572,5.584,12.147,11.336,15.698l104.214,64.304c-3.373,5.641-5.174,12.105-5.174,18.846c0,7.882,2.448,15.394,7.08,21.724
		c0.655,0.894,0.655,2.095-0.003,2.992c-0.327,0.447-0.642,0.9-0.946,1.357c-11.49,2.551-22.821,6.576-33.702,12.008
		c-49.17,24.556-57.408,60.881-57.734,62.415c-0.389,1.824,0.536,3.675,2.227,4.461c0.787,0.365,11.717,5.274,29.772,5.274
		c12.01,0,27.181-2.189,44.607-9.316c-6.921,21.327-3.399,36.151-3.224,36.854c0.444,1.786,2.047,3.035,3.881,3.035
		c0.024,0,0.049,0,0.074,0c1.09-0.02,26.268-0.785,52.056-26.77c5.576,3.306,12.032,5.145,18.816,5.145
		c3.845,0,7.662-0.605,11.356-1.804c1.103-0.362,2.279,0,2.928,0.897c7.148,9.909,18.278,15.303,29.742,15.302
		c5.675,0,11.434-1.322,16.83-4.073c5.414-2.758,9.991-6.77,13.427-11.689c3.852,1.331,7.882,2.015,11.953,2.015
		c1.928,0,3.866-0.152,5.796-0.457c18.005-2.848,31.074-18.127,31.074-36.388c-0.003-1.153,0.706-2.156,1.766-2.495
		c11.569-3.715,20.1-12.557,23.677-23.376h87.846c13.951,0,25.301-11.35,25.301-25.301V69.662
		C439.274,55.711,427.924,44.361,413.973,44.361z M319.031,15.338c9.056-3.001,18.87,1.924,21.872,10.979l5.978,18.044H245.835
		c-13.951,0-25.301,11.35-25.301,25.301v145.557c-10.197,0.348-19.791,4.915-26.453,12.508L148.457,90.113
		c-3.002-9.059,1.923-18.871,10.98-21.872L319.031,15.338z M299.939,275.798c11.984,3.812,20.037,14.825,20.037,27.406
		c0,1.524-0.121,3.058-0.359,4.56c-0.888,5.606-3.366,10.764-7.169,14.917c-6.561,7.186-16.21,10.566-25.813,9.049l-17.933-2.839
		c0.085-1.161,0.143-2.33,0.143-3.512c0-17.059-9-32.049-22.495-40.493l8.223-16.144c4.929-9.67,5.322-20.86,1.246-30.739
		c2.587-0.755,5.262-1.145,7.996-1.145c1.523,0,3.051,0.121,4.546,0.358c13.916,2.203,24.373,14.466,24.324,28.53
		C292.673,270.372,295.588,274.411,299.939,275.798z M221.104,365.118c-21.913,0-39.74-17.827-39.74-39.74
		c0-21.913,17.827-39.74,39.74-39.74c21.913,0,39.74,17.827,39.74,39.74C260.844,347.291,243.017,365.118,221.104,365.118z
		 M141.78,375.655c-3.986-1.425-7.618-3.718-10.659-6.758c-10.121-10.122-11.345-25.843-2.914-37.379
		c2.727-3.721,2.727-8.723,0.001-12.442c-3.621-4.948-5.534-10.826-5.534-16.998c0-7.697,3-14.936,8.446-20.383
		c4.022-4.022,9.083-6.743,14.635-7.869c9.513-1.923,19.286,1.018,26.137,7.869l12.826,12.826
		c-7.075,8.329-11.356,19.1-11.356,30.858c0,6.378,1.267,12.463,3.547,18.03l-16.076,8.192
		C151.197,356.511,144.309,365.304,141.78,375.655z M247.444,265.109l-8.209,16.115c-5.594-2.306-11.715-3.586-18.132-3.586
		c-11.691,0-22.408,4.231-30.717,11.234l-12.835-12.835c-7.644-7.645-18.13-11.477-28.759-10.688
		c0.142-4.216,1.18-8.272,3.117-12.069c6.503-12.759,21.079-18.781,34.652-14.328c4.384,1.442,9.13-0.083,11.808-3.802
		c5.384-7.495,14.14-11.969,23.42-11.969c4.572,0,8.964,1.058,13.057,3.146c5.046,2.57,9.186,6.524,11.973,11.438
		C251.626,246.226,251.86,256.447,247.444,265.109z M203.442,11.88c7.397-6.025,18.319-4.917,24.346,2.473l14.634,17.952
		L156.92,60.648c-13.243,4.389-20.446,18.735-16.057,31.982l45.759,138.022c-13.142-3.358-26.692,0.754-35.708,10.296
		l-80.285-98.511c-6.021-7.392-4.906-18.31,2.482-24.335L203.442,11.88z M19.837,212.119c-3.935-2.429-6.688-6.241-7.753-10.735
		c-1.065-4.494-0.315-9.135,2.112-13.067l88.292-143.095c2.428-3.935,6.242-6.688,10.739-7.754
		c4.496-1.066,9.135-0.316,13.064,2.112l17.362,10.71l-75.596,61.612c-10.806,8.813-12.435,24.777-3.63,35.588l81.531,100.039
		c-0.409,0.691-0.807,1.393-1.176,2.118c-2.667,5.227-4.019,10.842-4.019,16.69c0,0.177,0.012,0.349,0.015,0.525
		c-5.762,1.751-11.008,4.87-15.313,9.175c-0.259,0.259-0.504,0.527-0.754,0.792L19.837,212.119z M56.145,404.106
		c-8.301-0.484-14.479-2.044-17.958-3.152c3.169-9.065,15.127-34.979,52.49-53.638c8.325-4.156,16.922-7.44,25.645-9.823
		c-3.637,11.477-1.427,24.158,6.302,33.869c-5.067,6.847-9.27,13.919-12.522,21.069C87.21,403.317,68.17,404.806,56.145,404.106z
		 M110.007,434.495c-0.63-6.17-0.812-20.116,6.792-37.473c2.941-6.73,6.81-13.414,11.525-19.921
		c3.686,2.995,7.889,5.237,12.421,6.617c-0.122,6.029,1.223,11.989,3.994,17.416c1.963,3.855,4.532,7.255,7.557,10.113
		c-11.591,11.418-22.861,17.203-30.528,20.067C116.788,433.176,112.689,434.069,110.007,434.495z M234.803,424.451
		c-12.76,6.504-28.09,2.811-36.454-8.783c-2.697-3.736-7.484-5.268-11.896-3.82c-2.883,0.935-5.868,1.409-8.875,1.409
		c-10.913,0-20.765-6.035-25.713-15.755c-2.588-5.07-3.61-10.728-2.956-16.364c1.11-9.633,6.926-18.01,15.557-22.408l16.087-8.198
		c8.433,13.546,23.453,22.587,40.551,22.587c1.192,0,2.371-0.059,3.541-0.145l2.831,17.86c1.696,10.706,7.947,19.984,17.035,25.583
		C241.929,419.76,238.63,422.502,234.803,424.451z M300.006,374.948c-4.39,1.408-7.333,5.479-7.321,10.17
		c0,14.243-10.229,26.199-24.324,28.429c-5.607,0.888-11.292,0.118-16.436-2.227c-8.843-4.024-15.029-12.151-16.547-21.739
		l-2.831-17.858c17.156-4.237,30.681-17.77,34.908-34.93l17.929,2.839c1.936,0.307,3.873,0.457,5.796,0.457
		c8.726,0,17.15-3.107,23.815-8.782c2.372,3.491,3.953,7.467,4.622,11.694C321.861,357.141,313.613,370.578,300.006,374.948z
		 M431.274,333.889c0,9.555-7.746,17.301-17.301,17.301h-86.164c0.296-3.08,0.216-6.246-0.291-9.441
		c-0.947-5.986-3.342-11.574-6.949-16.367c3.604-4.781,5.999-10.368,6.949-16.365c0.304-1.914,0.458-3.87,0.458-5.812
		c0-13.441-7.194-25.478-18.499-31.914l54.685,0c2.089,0,3.955-1.527,4.153-3.607c0.228-2.386-1.642-4.393-3.981-4.393
		c-15.264,0-27.683-12.418-27.683-27.683v-8.428c14.793,9.202,34.606,7.38,47.401-5.415c14.951-14.951,14.951-39.278,0-54.229
		l-47.122-47.122c-2.363-2.363-6.194-2.363-8.558,0l-47.122,47.122c-14.951,14.951-14.951,39.278,0,54.229
		c7.458,7.458,17.285,11.19,27.115,11.19c7.052,0,14.104-1.924,20.286-5.77v6.638c0,15.259-12.431,29.352-27.69,29.466
		c-0.122,0.001-0.237,0.026-0.356,0.037c-1.052-17.172-13.738-31.281-30.99-34.012c-1.906-0.304-3.858-0.458-5.801-0.458
		c-4.099,0-8.097,0.679-11.929,2.004c-3.44-4.911-8.01-8.914-13.406-11.662c-3.182-1.623-6.51-2.753-9.945-3.393V69.662
		c0-9.555,7.746-17.301,17.301-17.301h168.139c9.555,0,17.301,7.746,17.301,17.301V333.889z M335.698,216.324l-0.006-0.006
		c-1.479-1.444-4.254-1.81-6.021-0.059c-11.829,11.666-31.013,11.6-42.763-0.151c-11.832-11.832-11.832-31.083,0-42.915
		l44.529-44.529c0.671-0.671,1.759-0.671,2.43,0l44.529,44.529c11.832,11.832,11.832,31.083,0,42.915
		C366.678,227.824,347.525,227.92,335.698,216.324z M332.651,252.014c2.268,4.362,5.408,8.198,9.191,11.277h-18.383
		C327.243,260.211,330.383,256.376,332.651,252.014z"/>
	<path d="M262.542,66.687c-0.56-1.607-2.076-2.684-3.777-2.684s-3.217,1.077-3.777,2.684L242.43,102.72
		c-0.727,2.086,0.375,4.367,2.461,5.094c2.088,0.727,4.367-0.375,5.094-2.461l3.051-8.756h11.457l3.051,8.756
		c0.575,1.65,2.123,2.685,3.777,2.685c0.437,0,0.881-0.072,1.316-0.224c2.086-0.727,3.188-3.007,2.461-5.094L262.542,66.687z
		 M255.824,88.597l2.941-8.438l2.94,8.438H255.824z"/>
	<path d="M159.015,85.939l11.546,34.134c0.564,1.668,2.121,2.719,3.789,2.719c0.425,0,0.857-0.068,1.282-0.212
		c2.093-0.708,3.215-2.978,2.507-5.071l-4.37-12.92l15.814,11.49c0.71,0.516,1.533,0.765,2.348,0.765
		c1.237,0,2.457-0.572,3.239-1.649c1.299-1.787,0.902-4.289-0.885-5.587l-15.262-11.089l5.219-18.735
		c0.593-2.128-0.651-4.333-2.78-4.926c-2.129-0.592-4.333,0.652-4.927,2.78L172.116,93.5l-2.781-2.021l-2.741-8.103
		c-0.708-2.092-2.979-3.214-5.071-2.507C159.43,81.576,158.307,83.846,159.015,85.939z"/>
	<path d="M96.684,154.741c2.468,2.981,6.04,4.521,9.638,4.521c2.81,0,5.635-0.939,7.963-2.867l1.203-0.996
		c1.051-0.87,1.927-1.892,2.629-3.016l3.079,1.239c0.49,0.197,0.995,0.291,1.492,0.291c1.584,0,3.084-0.948,3.712-2.507
		c0.825-2.049-0.167-4.379-2.217-5.204l-4.23-1.703c-0.245-2.446-1.207-4.765-2.811-6.7l-12.14-14.659
		c-4.397-5.309-12.292-6.05-17.601-1.654l-1.203,0.997c-2.572,2.13-4.16,5.133-4.473,8.458s0.688,6.571,2.818,9.143L96.684,154.741z
		 M91.302,128.642l1.203-0.996c0.838-0.694,1.855-1.033,2.867-1.033c1.295,0,2.581,0.555,3.47,1.628l10.029,12.111
		c-1.586-0.002-3.087,0.941-3.715,2.501c-0.825,2.049,0.167,4.379,2.217,5.204l2.986,1.202l-1.176,0.974
		c-1.91,1.583-4.753,1.316-6.336-0.595l-12.14-14.659c-0.767-0.926-1.127-2.095-1.015-3.292
		C89.804,130.491,90.375,129.41,91.302,128.642z"/>
	<path d="M61.92,203.164l-20.496-13.22l1.975-3.062c1.198-1.856,0.663-4.332-1.193-5.529c-1.855-1.197-4.332-0.663-5.529,1.193
		l-8.582,13.305c-1.198,1.856-0.663,4.332,1.193,5.529c0.67,0.433,1.421,0.639,2.164,0.639c1.313,0,2.601-0.646,3.365-1.833
		l2.271-3.521l20.496,13.22c0.818,0.528,1.381,1.342,1.586,2.293c0.205,0.951,0.028,1.925-0.5,2.743
		c-0.528,0.818-1.342,1.381-2.293,1.586c-0.951,0.206-1.926,0.028-2.743-0.5l-3.212-2.071c-1.856-1.196-4.332-0.662-5.53,1.194
		c-1.197,1.857-0.663,4.333,1.194,5.53l3.212,2.071c1.904,1.229,4.074,1.863,6.288,1.863c0.824,0,1.655-0.088,2.479-0.266
		c3.04-0.656,5.643-2.457,7.328-5.07c1.686-2.613,2.253-5.727,1.597-8.767C66.335,207.453,64.534,204.85,61.92,203.164z"/>
	<path d="M221.104,294.009c-17.297,0-31.37,14.072-31.37,31.37s14.072,31.37,31.37,31.37s31.37-14.072,31.37-31.37
		S238.401,294.009,221.104,294.009z M221.104,348.748c-12.886,0-23.37-10.483-23.37-23.37s10.483-23.37,23.37-23.37
		s23.37,10.483,23.37,23.37S233.99,348.748,221.104,348.748z"/>
</g>
<g>
</g>
<g>
</g>
<g>
</g>
<g>
</g>
<g>
</g>
<g>
</g>
<g>
</g>
<g>
</g>
<g>
</g>
<g>
</g>
<g>
</g>
<g>
</g>
<g>
</g>
<g>
</g>
<g>
</g>
</svg>
