<?xml version="1.0" encoding="iso-8859-1"?>
<!-- Generator: Adobe Illustrator 18.0.0, SVG Export Plug-In . SVG Version: 6.00 Build 0)  -->
<!DOCTYPE svg PUBLIC "-//W3C//DTD SVG 1.1//EN" "http://www.w3.org/Graphics/SVG/1.1/DTD/svg11.dtd">
<svg version="1.1" id="Capa_1" xmlns="http://www.w3.org/2000/svg" xmlns:xlink="http://www.w3.org/1999/xlink" x="0px" y="0px"
	 viewBox="0 0 428.479 428.479" style="enable-background:new 0 0 428.479 428.479;" xml:space="preserve">
<g>
	<path d="M365.198,323.105c-26.13-5.813-45.86-15.786-59.209-23.565l91.362-132.278c0.976-1.414,0.941-3.292-0.087-4.668
		l-26.306-35.195h24.812c2.209,0,4-1.791,4-4s-1.791-4-4-4h-28v-28c0-2.209-1.791-4-4-4s-4,1.791-4,4v21.032l-19.446-26.016
		c-0.755-1.011-1.943-1.605-3.204-1.605h-184.25c-1.261,0-2.449,0.595-3.204,1.605l-56.94,76.18
		c-1.028,1.376-1.063,3.254-0.087,4.668l69.839,101.117c-38.702,22.011-40.745,55.605-40.814,57.071
		c-0.068,1.431,0.634,2.788,1.841,3.56s2.733,0.837,4.003,0.178l6.451-3.361c19.121-9.97,40.546-13.921,61.967-11.422
		c6.681,0.763,13.344,2.18,19.803,4.211l60.517,19.041l2.074,0.648c11.406,3.587,23.086,5.365,34.709,5.365
		c18.301,0,36.458-4.41,53.15-13.113c1.49-0.777,2.336-2.402,2.117-4.069C368.076,324.821,366.839,323.47,365.198,323.105z
		 M275.827,329.135l-14.086-4.431l35.066-155.71h89.624L275.827,329.135z M331.769,127.399h28v28c0,2.209,1.791,4,4,4s4-1.791,4-4
		v-18.903l18.31,24.497h-85.147l39.372-61.241l14.685,19.646h-23.221c-2.209,0-4,1.791-4,4S329.56,127.399,331.769,127.399z
		 M196.38,157.593l-41.583-64.679l0.078-0.104h83.163L196.38,157.593z M244.999,96.775l41.286,64.219h-82.582L244.999,96.775z
		 M149.684,99.755l39.371,61.239h-85.139L149.684,99.755z M288.607,168.994l-34.524,153.301l-19.547-6.149l-33.154-147.151H288.607z
		 M335.192,92.912l-41.583,64.68L251.96,92.809h83.155L335.192,92.912z M131.068,318.315c2.832-10.402,11.251-29.464,35.986-43.324
		l21.254,30.787C168.474,304.935,148.86,309.213,131.068,318.315z M198.656,306.686l-27.054-39.189
		c-0.048-0.069-0.099-0.138-0.15-0.203l-67.894-98.3h89.624l32.529,144.375l-7.58-2.385
		C211.769,308.984,205.225,307.545,198.656,306.686z M283.855,331.587l17.574-25.444c11.907,6.975,28.857,15.75,50.907,21.968
		C330.516,336.787,306.668,338.02,283.855,331.587z"/>
	<path d="M428.413,255.704l-0.035-0.438c-0.568-7.144-4.654-13.485-10.929-16.964c-6.222-3.447-13.692-3.558-19.983-0.29
		c-25.734,13.367-45.135,35.066-54.631,61.102c-0.637,1.745,0.013,3.7,1.568,4.718c0.67,0.438,1.431,0.652,2.189,0.652
		c1.001,0,1.996-0.375,2.762-1.105c16.281-15.531,37.014-24.308,58.38-24.712h0c5.861-0.111,11.266-2.575,15.219-6.938
		C426.887,267.387,428.878,261.547,428.413,255.704z M417.025,266.357c-2.457,2.711-5.811,4.242-9.443,4.312h0
		c-17.741,0.335-35.058,5.923-50.129,15.994c9.967-17.296,25.285-31.986,43.7-41.551c1.922-0.998,3.976-1.496,6.03-1.496
		c2.182,0,4.364,0.563,6.387,1.684c3.923,2.175,6.478,6.138,6.833,10.604l0.035,0.437
		C420.733,260.046,419.521,263.603,417.025,266.357z"/>
	<path d="M31.234,244.049c-8.767-2.378-17.763-0.34-24.061,5.453c-5.711,5.251-8.188,12.637-6.792,20.267l0.091,0.496
		c2.449,13.396,16.365,22.813,30.385,20.568h0c26.109-4.184,54.023,1.286,78.6,15.401c0.624,0.357,1.31,0.531,1.991,0.531
		c1.099,0,2.183-0.452,2.963-1.312c1.263-1.391,1.388-3.474,0.299-5.005C95.548,273.478,65.903,253.448,31.234,244.049z
		 M48.222,281.464c-6.26,0-12.493,0.487-18.631,1.471c0,0,0,0,0,0c-9.827,1.571-19.563-4.885-21.25-14.114l-0.091-0.496
		c-0.89-4.866,0.692-9.58,4.339-12.934c4.265-3.92,10.453-5.274,16.553-3.621c26.078,7.07,49.826,21.034,67.398,39.294
		C80.894,284.729,64.454,281.464,48.222,281.464z"/>
	<path d="M124.538,272.658c0.568,0,1.142-0.121,1.683-0.372c1.686-0.782,2.61-2.623,2.231-4.442
		c-4.905-23.586-18.873-44.682-39.33-59.4c-5.122-3.685-11.716-4.549-17.638-2.309c-5.972,2.258-10.382,7.317-11.798,13.533
		l-0.085,0.373c-1.159,5.083-0.155,10.48,2.752,14.809c2.922,4.35,7.367,7.214,12.516,8.063h0
		c18.09,2.987,34.611,13.006,46.518,28.211C122.165,272.118,123.338,272.658,124.538,272.658z M76.172,235.02L76.172,235.02
		c-2.95-0.487-5.499-2.132-7.178-4.632c-1.707-2.542-2.273-5.585-1.593-8.568l0.085-0.373c0.832-3.649,3.32-6.503,6.829-7.83
		c3.457-1.309,7.152-0.826,10.136,1.32c13.827,9.948,24.67,23.52,31.133,38.607C104.216,243.842,90.657,237.411,76.172,235.02z"/>
</g>
<g>
</g>
<g>
</g>
<g>
</g>
<g>
</g>
<g>
</g>
<g>
</g>
<g>
</g>
<g>
</g>
<g>
</g>
<g>
</g>
<g>
</g>
<g>
</g>
<g>
</g>
<g>
</g>
<g>
</g>
</svg>
