<?xml version="1.0" encoding="iso-8859-1"?>
<!-- Generator: Adobe Illustrator 16.0.0, SVG Export Plug-In . SVG Version: 6.00 Build 0)  -->
<!DOCTYPE svg PUBLIC "-//W3C//DTD SVG 1.1//EN" "http://www.w3.org/Graphics/SVG/1.1/DTD/svg11.dtd">
<svg x="0px" y="0px" width="512px" height="512px" viewBox="0 0 959.95 959.95" style="enable-background:new 0 0 959.95 959.95;">

	<path d="M7.675,503.075c41.1,88.9,106.3,164.2,188.5,217.801c84.5,55,182.6,84.1,283.8,84.1s199.3-29.1,283.8-84.2   c82.2-53.5,147.4-128.8,188.5-217.7l4.9-10.5c3.7-8,3.7-17.199,0-25.199l-4.9-10.5c-41.1-88.9-106.3-164.2-188.5-217.8   c-84.5-55-182.6-84.1-283.8-84.1s-199.3,29.1-283.8,84.2c-82.2,53.5-147.4,128.8-188.5,217.7l-4.9,10.5   c-3.699,8-3.699,17.199,0,25.199L7.675,503.075z M703.675,331.275c57.6,37.6,104.7,88.7,137.2,148.7   c-32.5,60.1-79.601,111.2-137.2,148.7c-32.101,20.899-66.8,37.1-103,48.2c66.2-40.601,110.3-113.601,110.3-196.9   s-44.1-156.3-110.3-197C636.875,294.175,671.574,310.275,703.675,331.275z M256.274,331.275c32.101-20.9,66.8-37.1,103-48.2   c-66.2,40.6-110.3,113.6-110.3,196.9s44.1,156.3,110.3,197c-36.2-11.1-70.899-27.3-103-48.2c-57.6-37.6-104.699-88.7-137.199-148.7   C151.575,419.875,198.675,368.775,256.274,331.275z" fill="#FFFFFF"/>
</svg>
