<?xml version="1.0" encoding="iso-8859-1"?>
<!-- Generator: Adobe Illustrator 19.0.0, SVG Export Plug-In . SVG Version: 6.00 Build 0)  -->
<svg xmlns="http://www.w3.org/2000/svg" xmlns:xlink="http://www.w3.org/1999/xlink" version="1.1" id="Layer_1" x="0px" y="0px" viewBox="0 0 512 512" style="enable-background:new 0 0 512 512;" xml:space="preserve" width="512px" height="512px">
<g>
	<g>
		<path d="M476.359,154.227c-1.4-3.921-5.113-6.535-9.273-6.535c-0.013,0-0.026,0-0.041,0c-4.175,0.018-7.886,2.667-9.258,6.61    c-0.128,0.369-13.007,37.234-29.951,73.376c-30.998,66.118-45.865,67.501-47.47,67.501c-2.274-0.078-7.381-4.816-12.089-22.078    C338.96,165.597,279.975,7.969,279.383,6.39c-1.222-3.261-4.076-5.633-7.505-6.239c-3.43-0.606-6.923,0.643-9.19,3.288    c-42.27,49.316-93.613,131.967-120.524,176.962v-42.555c0-3.982-2.399-7.572-6.078-9.096c-3.68-1.526-7.915-0.682-10.731,2.133    C35.668,220.572-1.323,301.984,15.407,372.859c23.016,97.496,138.434,137.001,143.335,138.635    c1.028,0.341,2.077,0.506,3.113,0.506c3.427,0,6.705-1.797,8.508-4.889c2.347-4.028,1.548-9.15-1.915-12.272    c-0.458-0.412-45.911-41.761-56.102-83.63v-0.001c-5.302-21.778-6.345-43.271-5.526-60.267    c5.493,26.622,13.393,39.006,25.588,41.369c17.984,3.489,36.315-16.15,67.594-72.453c13-23.398,20.01-32.227,23.465-35.553    c2.274,5.697,4.626,17.751,6.433,27.006c2.776,14.22,5.922,30.336,11.231,46.264c16.782,50.347,65.94,56.577,98.467,60.699    c10.042,1.273,19.529,2.476,25.913,4.605c1.236,0.411,2.224,1.084,3.03,3.026c5.413,13.06-7.6,49.875-18.57,71.847    c-1.779,3.561-1.238,7.845,1.371,10.852c2.608,3.006,6.769,4.147,10.55,2.889c53.386-17.796,91.972-50.478,114.685-97.139    C529.431,305.778,478.551,160.364,476.359,154.227z M458.873,405.736c-17.1,35.128-44.421,61.449-81.383,78.476    c7.98-20.314,16.331-48.734,9.245-65.84c-2.885-6.965-8.071-11.867-14.995-14.175c-8.22-2.739-18.637-4.06-29.666-5.458    c-32.528-4.123-69.395-8.795-82.261-47.392c-4.908-14.72-7.924-30.174-10.585-43.809c-4.97-25.459-8.253-42.279-22.022-44.46    c-0.867-0.137-1.725-0.208-2.582-0.208c-11.513,0-22.56,12.727-41.836,47.425c-34.458,62.024-45.492,62.785-46.616,62.687    c-0.324-0.111-8.02-3.237-13.775-49.281c-1.475-11.799-3.954-20.222-11.262-22.983c-4.101-1.547-8.607-0.653-12.05,2.394    C87,313.801,81.812,369.033,93.212,415.866c5.023,20.633,16.923,40.582,28.979,56.726c-4.996-2.908-10.193-6.139-15.457-9.707    c-27.094-18.365-61.609-49.693-72.184-94.645c-13.965-59.359,15.606-128.604,87.92-206.051v54.426c0,4.465,3.004,8.37,7.318,9.517    c4.32,1.139,8.862-0.757,11.077-4.632c0.734-1.286,69.727-121.677,125.996-192.188c15.702,42.794,58.81,162.415,82.417,248.97    c2.419,8.873,9.782,35.871,30.412,36.578c12.284,0.426,32.465-7.307,66.034-78.949c7.96-16.988,14.953-33.868,20.244-47.317    c3.781,14.722,8.082,34.381,11.043,56.704C482.871,289.453,484.48,353.129,458.873,405.736z" fill="#e64c3c"/>
	</g>
</g>
<g>
</g>
<g>
</g>
<g>
</g>
<g>
</g>
<g>
</g>
<g>
</g>
<g>
</g>
<g>
</g>
<g>
</g>
<g>
</g>
<g>
</g>
<g>
</g>
<g>
</g>
<g>
</g>
<g>
</g>
</svg>
