<svg xmlns="http://www.w3.org/2000/svg" viewBox="0 0 463 463" width="512" height="512"><g fill="#FFF"><path d="M232.026 176c-30.603 0-55.5 24.897-55.5 55.5s24.897 55.5 55.5 55.5 55.5-24.897 55.5-55.5-24.898-55.5-55.5-55.5zm0 96c-22.332 0-40.5-18.168-40.5-40.5s18.168-40.5 40.5-40.5 40.5 18.168 40.5 40.5-18.168 40.5-40.5 40.5z"/><path d="M232.026 208c-4.143 0-7.5 3.357-7.5 7.5s3.357 7.5 7.5 7.5c4.687 0 8.5 3.813 8.5 8.5 0 4.143 3.357 7.5 7.5 7.5s7.5-3.357 7.5-7.5c0-12.958-10.542-23.5-23.5-23.5z"/><path d="M388.061 231.5c6.575-6.863 12.633-13.755 18.114-20.633 30.384-38.126 39.736-71.906 26.335-95.117-13.4-23.21-47.329-32.003-95.541-24.752-8.713 1.31-17.729 3.115-26.977 5.384-5.481-18.897-12.136-35.802-19.819-49.969a23.393 23.393 0 0 0 5.352-14.913c0-12.958-10.542-23.5-23.5-23.5-3.851 0-7.485.937-10.696 2.586C251.954 3.563 242.116 0 232.026 0c-26.802 0-51.38 24.989-69.206 70.365-3.216 8.185-6.156 16.879-8.812 26.004-9.23-2.262-18.229-4.063-26.926-5.371-48.209-7.248-82.14 1.541-95.542 24.752-13.4 23.211-4.048 56.991 26.336 95.117 5.492 6.891 11.564 13.797 18.153 20.673-8.116 8.455-15.415 16.925-21.773 25.305a23.422 23.422 0 0 0-6.23-.845c-12.958 0-23.5 10.542-23.5 23.5 0 6.448 2.612 12.297 6.832 16.547-7.722 19.95-7.677 37.587.183 51.203 10.338 17.905 32.886 27.229 64.788 27.228 9.453 0 19.734-.819 30.754-2.477 8.696-1.308 17.695-3.108 26.926-5.371 2.656 9.125 5.596 17.818 8.812 26.004C180.646 438.01 205.224 463 232.026 463s51.38-24.99 69.206-70.366c3.221-8.199 6.166-16.908 8.825-26.05 12.229 3.009 24.007 5.198 35.142 6.49 2.51 10.276 11.789 17.927 22.827 17.927 11.237 0 20.652-7.93 22.956-18.487 19.723-3.6 34.036-12.287 41.528-25.263 13.401-23.211 4.049-56.991-26.335-95.117-5.481-6.879-11.539-13.772-18.114-20.634zm-48.862-125.668c41.085-6.182 70.361.169 80.32 17.418 9.958 17.248.818 45.776-25.075 78.269-5.142 6.452-10.823 12.924-16.987 19.374-15.384-14.784-33.069-29.311-52.48-43.114-2.276-23.711-6.038-46.286-11.114-66.908 8.691-2.12 17.158-3.809 25.336-5.039zm-66.923 195.383a559.903 559.903 0 0 1-40.218 21.113 554.255 554.255 0 0 1-40.282-21.113 559.934 559.934 0 0 1-38.423-24.294 559.935 559.935 0 0 1-1.827-45.421c0-15.439.622-30.624 1.824-45.38a552.722 552.722 0 0 1 38.426-24.336 559.745 559.745 0 0 1 40.25-21.128 559.343 559.343 0 0 1 40.25 21.128 559.605 559.605 0 0 1 38.399 24.277 555.631 555.631 0 0 1 1.851 45.439c0 15.453-.623 30.652-1.827 45.421a559.934 559.934 0 0 1-38.423 24.294zm36.476-4.885c-2.19 18.263-5.31 35.688-9.299 51.901-16.001-4.652-32.673-10.667-49.597-17.894a580.466 580.466 0 0 0 29.919-16.131 580.911 580.911 0 0 0 28.977-17.876zm-94.477 34.018c-16.936 7.247-33.611 13.266-49.668 17.923-3.993-16.224-7.117-33.663-9.308-51.942a580.17 580.17 0 0 0 28.977 17.876 571.678 571.678 0 0 0 29.999 16.143zm-76.757-64.817c-14.716-11.024-28.241-22.434-40.284-33.99 12.029-11.53 25.574-22.961 40.28-33.999a580.274 580.274 0 0 0-.988 33.958c0 11.494.335 22.861.992 34.031zm17.776-98.823c2.192-18.292 5.317-35.744 9.313-51.979 16.047 4.654 32.712 10.668 49.637 17.909a580.055 580.055 0 0 0-29.969 16.156 569.431 569.431 0 0 0-28.981 17.914zm94.513-34.07c16.916-7.237 33.572-13.249 49.611-17.901 3.961 16.151 7.09 33.594 9.294 51.907a580.165 580.165 0 0 0-28.936-17.849 579.725 579.725 0 0 0-29.969-16.157zm76.702 64.812c14.743 11.042 28.291 22.473 40.352 34.05-12.054 11.57-25.594 22.995-40.328 34.032.657-11.17.993-22.537.993-34.031 0-11.49-.348-22.866-1.017-34.051zM280.526 31.5c0 4.687-3.813 8.5-8.5 8.5s-8.5-3.813-8.5-8.5 3.813-8.5 8.5-8.5 8.5 3.813 8.5 8.5zM176.78 75.851C191.973 37.179 212.109 15 232.026 15c6.239 0 12.529 2.173 18.755 6.467a23.35 23.35 0 0 0-2.255 10.033c0 12.958 10.542 23.5 23.5 23.5a23.49 23.49 0 0 0 5.391-.631c6.989 13.04 13.078 28.54 18.132 45.882-20.478 5.926-41.882 13.971-63.522 23.868-21.644-9.899-43.05-17.944-63.53-23.87 2.502-8.564 5.267-16.719 8.283-24.398zM44.53 123.25c9.958-17.249 39.235-23.597 80.321-17.418 8.159 1.227 16.604 2.911 25.272 5.023-5.111 20.715-8.849 43.294-11.098 67.007-19.344 13.794-37.03 28.345-52.385 43.081-6.182-6.467-11.879-12.955-17.034-19.424-25.894-32.493-35.034-61.021-25.076-78.269zM48.026 271c4.687 0 8.5 3.813 8.5 8.5s-3.813 8.5-8.5 8.5-8.5-3.813-8.5-8.5 3.813-8.5 8.5-8.5zm76.826 86.168c-41.083 6.177-70.362-.169-80.321-17.418-6.524-11.302-3.874-25.618.316-36.971a23.66 23.66 0 0 0 3.179.221c12.958 0 23.5-10.542 23.5-23.5 0-5.349-1.8-10.283-4.821-14.237 5.845-7.651 12.521-15.387 19.926-23.121 15.364 14.761 33.021 29.265 52.4 43.048 2.249 23.693 5.985 46.254 11.093 66.954-8.668 2.113-17.114 3.797-25.272 5.024zm162.418 29.981C272.077 425.82 251.942 448 232.026 448c-19.917 0-40.053-22.18-55.245-60.851-3.017-7.679-5.781-15.835-8.285-24.398 20.493-5.93 41.915-13.982 63.573-23.89 21.631 9.868 43.068 17.91 63.503 23.838-2.509 8.582-5.279 16.755-8.302 24.45zM368.026 376c-4.687 0-8.5-3.813-8.5-8.5s3.813-8.5 8.5-8.5 8.5 3.813 8.5 8.5-3.814 8.5-8.5 8.5zm51.494-36.25c-5.18 8.972-15.342 14.946-30.207 17.81-3.752-8.002-11.881-13.56-21.287-13.56-9.626 0-17.915 5.82-21.543 14.125-10.313-1.215-21.218-3.242-32.547-6.013 5.104-20.691 8.837-43.24 11.085-66.921 19.394-13.794 37.065-28.311 52.437-43.083 6.164 6.45 11.845 12.922 16.987 19.374 25.893 32.492 35.033 61.02 25.075 78.268z"/></g></svg>