<svg xmlns="http://www.w3.org/2000/svg" viewBox="0 0 512 512"><path fill="#868491" d="M143.901 64h232v32h-232zm-16 64h256v272h-256z"/><path d="M135.901 152c-2.929 0-5.639.845-8 2.219V365.78c2.361 1.375 5.071 2.219 8 2.219 8.836 0 16-7.164 16-16V168c0-8.837-7.164-16-16-16z" fill="#5c546a"/><path fill="#b4b6bc" d="M255.901 128h128v272h-128z"/><path d="M383.9 154.219c-2.361-1.375-5.071-2.219-8-2.219-8.836 0-16 7.163-16 16v184c0 8.836 7.164 16 16 16 2.929 0 5.639-.845 8-2.219V154.219zM327.901 368c-8.837 0-16-7.163-16-16V168c0-8.837 7.163-16 16-16s16 7.163 16 16v184c-.001 8.836-7.164 16-16 16zm-48 0c-8.837 0-16-7.163-16-16V168c0-8.837 7.163-16 16-16s16 7.163 16 16v184c0 8.836-7.164 16-16 16z" fill="#868491"/><path d="M183.901 368c-8.837 0-16-7.163-16-16V168c0-8.837 7.163-16 16-16s16 7.163 16 16v184c0 8.836-7.164 16-16 16zm48 0c-8.837 0-16-7.163-16-16V168c0-8.837 7.163-16 16-16s16 7.163 16 16v184c0 8.836-7.164 16-16 16z" fill="#5c546a"/><path fill="#b4b6bc" d="M143.901 96h232v32h-232z"/><circle cx="183.901" cy="112" r="8" fill="#5c546a"/><circle cx="327.901" cy="112" r="8" fill="#868491"/><path d="M454.236 30.398C437.932 11.078 412.377 0 384.119 0h-256C99.862 0 74.307 11.078 58.002 30.398 43.166 47.984 37.283 71.078 41.44 95.43c6.508 38.156 40.086 65.164 78.797 65.164a83.4 83.4 0 0 0 10.469-.656c17.531-2.195 34.008-11.82 44.078-25.727 8.609-11.891 11.867-26 9.187-39.727-1.725-8.842-5.352-16.394-10.345-22.484h164.986c-4.993 6.091-8.62 13.642-10.345 22.484-2.68 13.727.578 27.836 9.187 39.727 10.07 13.906 26.547 23.531 44.078 25.727 42.859 5.445 82.18-22.937 89.266-64.508 4.157-24.352-1.726-47.446-16.562-65.032z" fill="#b4b6bc"/><path d="M408.119 464c-15.827 0-28.123-15.397-22.698-32H126.817c5.425 16.603-6.871 32-22.698 32-4.422 0-8 3.578-8 8s3.578 8 8 8h304c4.422 0 8-3.578 8-8s-3.578-8-8-8z" fill="#868491"/><path d="M384.119 384h-256c-13.234 0-24 10.766-24 24s10.766 24 24 24h256c13.234 0 24-10.766 24-24s-10.765-24-24-24z" fill="#d3d7dc"/><path d="M255.901 384H128.119c-13.234 0-24 10.766-24 24s10.766 24 24 24H255.9v-48h.001zm152.218 80c-15.827 0-28.124-15.397-22.698-32h-129.52v48H408.12c4.422 0 8-3.578 8-8s-3.579-8-8.001-8z" fill="#b4b6bc"/><path d="M416.119 464h-320c-13.234 0-24 10.766-24 24s10.766 24 24 24h320c13.234 0 24-10.766 24-24 0-13.235-10.765-24-24-24z" fill="#d3d7dc"/><path d="M255.901 464H96.119c-13.234 0-24 10.766-24 24s10.766 24 24 24H255.9l.001-48z" fill="#b4b6bc"/><path d="M119.998 160.594c-38.711 0-72.289-27.008-78.797-65.164-4.156-24.352 1.727-47.445 16.562-65.031C74.068 11.078 99.623 0 127.881 0h256c28.258 0 53.813 11.078 70.117 30.398 14.836 17.586 20.719 40.68 16.562 65.031-7.086 41.57-46.422 69.953-89.266 64.508-17.531-2.195-34.008-11.82-44.078-25.727-8.609-11.891-11.867-26-9.188-39.727 4.016-20.586 17.852-34.703 37.016-37.75 19.023-3.031 38.156 5.391 46.555 20.461 2.156 3.859.773 8.734-3.086 10.883s-8.734.773-10.883-3.086c-5.031-9.031-17.953-14.352-30.07-12.461-7.305 1.164-20.109 5.961-23.828 25.016-2.336 11.961 2.219 21.437 6.445 27.281 7.516 10.383 19.898 17.578 33.102 19.234 34.508 4.375 65.859-18.219 71.516-51.32 3.391-19.914-1.109-37.906-13.023-52.023C428.513 25.008 407.412 16 383.88 16h-256c-23.531 0-44.633 9.008-57.891 24.719-11.913 14.117-16.413 32.109-13.022 52.023 5.656 33.102 37.094 55.687 71.516 51.32 13.203-1.656 25.586-8.852 33.102-19.234 4.227-5.844 8.781-15.32 6.445-27.281-3.719-19.055-16.523-23.852-23.828-25.016-12.117-1.875-25.039 3.43-30.07 12.461-2.148 3.859-7.031 5.227-10.883 3.086-3.859-2.148-5.242-7.023-3.086-10.883 8.398-15.07 27.555-23.5 46.555-20.461 19.164 3.047 33 17.164 37.016 37.75 2.68 13.727-.578 27.836-9.187 39.727-10.07 13.906-26.547 23.531-44.078 25.727a83.455 83.455 0 0 1-10.471.656z" fill="#d3d7dc"/><circle cx="124.12" cy="92.016" r="28" fill="#d3d7dc"/><circle cx="387.9" cy="92.016" r="28" fill="#d3d7dc"/><circle cx="255.901" cy="112" r="8" fill="#5c546a"/><circle cx="279.901" cy="112" r="8" fill="#868491"/><circle cx="231.901" cy="112" r="8" fill="#5c546a"/><circle cx="207.901" cy="112" r="8" fill="#5c546a"/><circle cx="303.901" cy="112" r="8" fill="#868491"/><path d="M263.901 112a8 8 0 0 0-8-8v16a8 8 0 0 0 8-8z" fill="#868491"/></svg>