<svg xmlns="http://www.w3.org/2000/svg" viewBox="0 0 298.387 298.387"><path d="M72.48 241.083l25.597 54.053c2.166 4.574 8.781 4.248 10.486-.517l50.335-140.631c3.227-9.015-5.482-17.724-14.498-14.498L3.771 189.826c-4.765 1.706-5.091 8.32-.517 10.486l54.053 25.597a31.89 31.89 0 0 1 15.173 15.174z" fill="#c0392b"/><path d="M156.223 142.131l-47.659 133.155c-1.705 4.765-8.32 5.091-10.486.517L72.48 221.75a31.889 31.889 0 0 0-15.173-15.173l-43.19-20.453-10.346 3.703c-4.765 1.706-5.091 8.32-.517 10.486l54.053 25.597a31.889 31.889 0 0 1 15.173 15.173l25.597 54.053c2.166 4.574 8.781 4.248 10.486-.517l50.335-140.631c1.618-4.517.238-8.956-2.675-11.857z" opacity=".3" fill="#c0392b"/><path d="M120.821 170.658l7.404 7.404a3.955 3.955 0 0 0 5.594 0L271.504 40.376a3.955 3.955 0 0 0 0-5.594l-7.404-7.404a3.955 3.955 0 0 0-5.594 0L120.821 165.064a3.957 3.957 0 0 0 0 5.594z" fill="#314b5a"/><path d="M268.852 32.131L133.819 167.164a3.955 3.955 0 0 1-5.594 0l-4.752-4.752-2.652 2.652a3.955 3.955 0 0 0 0 5.594l7.404 7.404a3.955 3.955 0 0 0 5.594 0L271.504 40.376a3.955 3.955 0 0 0 0-5.594l-2.652-2.651z" opacity=".3" fill="#314b5a"/><path d="M276.605 17.371L269.94.9c-.564-1.394-2.673-1.111-3.344.448l-19.789 46.017c-1.269 2.95 1.261 5.48 4.211 4.211l46.016-19.789c1.559-.671 1.842-2.78.448-3.344l-16.471-6.665a7.904 7.904 0 0 1-4.406-4.407z" fill="#c0392b"/><path d="M297.484 28.444l-6.75-2.732-41.381 17.795c-.344.148-.682.24-1.01.29l-1.534 3.568c-1.269 2.95 1.261 5.48 4.211 4.211l46.016-19.789c1.559-.67 1.841-2.779.448-3.343z" opacity=".3" fill="#c0392b"/><path d="M90.822 200.657l7.404 7.404a3.955 3.955 0 0 0 5.594 0l2.122-2.122a3.955 3.955 0 0 0 0-5.594l-7.404-7.404a3.955 3.955 0 0 0-5.594 0l-2.122 2.122a3.955 3.955 0 0 0 0 5.594zm-9.977 9.978l7.404 7.404a3.955 3.955 0 0 0 5.594 0l2.122-2.122a3.955 3.955 0 0 0 0-5.594l-7.404-7.404a3.955 3.955 0 0 0-5.594 0l-2.122 2.122a3.955 3.955 0 0 0 0 5.594z" fill="#314b5a"/><circle cx="114.898" cy="229.256" r="4.892" fill="#314b5a"/><circle cx="103.723" cy="240.431" r="4.892" fill="#314b5a"/></svg>