<svg xmlns="http://www.w3.org/2000/svg" viewBox="0 0 285.714 285.714" width="512" height="512"><g fill="#FFF"><path d="M185.714 57.143c0-23.633-19.224-42.857-42.857-42.857S100 33.51 100 57.143c0 14.281 7.233 27.676 19.048 35.595v7.505c-5.429 1.105-9.524 5.914-9.524 11.662 0 4.238 2.238 7.933 5.576 10.048-.505 1.319-.814 2.738-.814 4.238 0 6.567 5.338 11.905 11.905 11.905h33.333c6.567 0 11.905-5.338 11.905-11.905 0-1.5-.31-2.919-.814-4.238 3.338-2.114 5.576-5.81 5.576-10.048 0-5.752-4.095-10.557-9.524-11.662v-7.505c11.814-7.919 19.047-21.314 19.047-35.595zm-26.19 71.428H126.19c-1.31 0-2.381-1.071-2.381-2.381s1.071-2.381 2.381-2.381h33.333c1.31 0 2.381 1.071 2.381 2.381s-1.071 2.381-2.38 2.381zm4.762-14.285h-42.858c-1.31 0-2.381-1.071-2.381-2.381s1.072-2.381 2.382-2.381h42.857c1.31 0 2.381 1.071 2.381 2.381s-1.071 2.381-2.381 2.381zm-26.191-57.143a4.763 4.763 0 0 1 4.762-4.762 4.763 4.763 0 0 1 4.762 4.762 4.763 4.763 0 0 1-4.762 4.762 4.765 4.765 0 0 1-4.762-4.762zm21.424 28.838l-2.376 1.376V100h-9.524V70.552c5.529-1.971 9.524-7.21 9.524-13.41 0-7.876-6.41-14.286-14.286-14.286s-14.286 6.41-14.286 14.286c0 6.2 3.995 11.438 9.524 13.41V100h-9.524V87.357l-2.376-1.376c-10.281-5.957-16.671-17.01-16.671-28.838 0-18.376 14.957-33.333 33.333-33.333s33.333 14.957 33.333 33.333c0 11.829-6.39 22.881-16.671 28.838zM183 223.333c-2.167-5.495-7.386-9.048-13.29-9.048h-3.043v-54.762c0-9.19-7.476-16.667-16.667-16.667-9.191 0-16.667 7.476-16.667 16.667v22.643c-1.69-.719-3.481-1.214-5.381-1.214h-4.519c-7.667 0-13.91 6.243-13.91 13.91v.376h-5.138c-7.667 0-13.91 6.243-13.91 13.91v.376H90.1c-7.667 0-13.91 6.243-13.91 13.91v10.904a47.348 47.348 0 0 0 3.924 18.933l7.219 16.662a37.86 37.86 0 0 1 3.143 15.148v.633H100v-.638a47.348 47.348 0 0 0-3.924-18.933l-7.219-16.662c-1.238-2.857-2.071-5.824-2.576-8.848l17.905 17.905c2.786 2.786 6.443 4.176 10.1 4.176s7.314-1.39 10.1-4.176l.819-.819c2.257-2.257 3.552-5.09 3.981-8.024.19.01.376.052.567.052 2.567 0 5.148-.705 7.424-2.148l.29-.181a13.965 13.965 0 0 0 1.876-1.538 18.085 18.085 0 0 0 7.729 4.124l6.386 1.6 3.938 11.805 9.029-3.014-5.586-16.767-11.457-2.867a8.583 8.583 0 0 1-6.524-8.343c0-4.748 3.862-8.61 8.61-8.61h18.243a4.799 4.799 0 0 1 4.429 3.014l5.824 14.781c.657 1.676.99 3.438.99 5.233v1.048c0 2.205-.519 4.419-1.505 6.39l-5.505 11.01a23.903 23.903 0 0 0-2.514 10.638v9.79h9.524v-9.79c0-2.205.519-4.419 1.505-6.39l5.505-11.01a23.903 23.903 0 0 0 2.514-10.638v-1.048a23.72 23.72 0 0 0-1.657-8.724L183 223.333zm-64.529 27.653l-.819.819a4.756 4.756 0 0 1-6.733 0L87 227.886a4.365 4.365 0 0 1-1.286-3.105v-1.347a4.39 4.39 0 0 1 4.386-4.386h1.348c1.171 0 2.276.457 3.1 1.286l23.919 23.919a4.76 4.76 0 0 1 .004 6.733zm15.464-13.991c-.202.767-.659 1.729-1.678 2.443l-.095.062a4.396 4.396 0 0 1-5.529-.548l-1.433-1.433-23.919-23.919a4.38 4.38 0 0 1-1.281-3.105v-1.348a4.39 4.39 0 0 1 4.386-4.386h5.324c1.371 0 2.671.652 3.495 1.743l11.048 14.724 9 11.976c.038.048.071.129.11.129h.01l.048.086c.067 1.205.257 2.386.552 3.524-.014.019-.019.038-.038.052zm8.918-21.319c.005 1.319-4.176 3.371-6.138 8.133h-.014l-10.214-14.548-5.648-7.99-.91-1.562c-.581-.776-.881-1.8-.881-2.762v-2.085a4.39 4.39 0 0 1 4.386-4.386h4.519c1.59 0 2.224.867 2.995 2.257l11.905 22.938v.005zm14.29-1.39h-2.49l-11.795-21.229v-33.533c-.001-3.938 3.204-7.143 7.142-7.143s7.143 3.205 7.143 7.143v54.762zM138.095 0h9.524v9.524h-9.524zM118.41 5.276l4.762 8.249-8.249 4.76-4.76-8.248zM95.748 24.448l8.248 4.761-4.76 8.249-8.25-4.761zM85.714 52.381h9.524v9.524h-9.524z"/><path d="M95.746 89.842l-4.76-8.25 8.248-4.76 4.761 8.248zm94.212-.009l-8.249-4.761 4.761-8.25 8.249 4.762zm.518-37.452H200v9.524h-9.524zm-.509-27.925l4.76 8.25-8.248 4.76-4.761-8.249zM167.299 5.272l8.249 4.76-4.761 8.25-8.25-4.762zM276.19 57.143v-9.524h-9.523v9.524h-9.524v9.524h9.524v9.523h9.523v-9.523h9.524v-9.524zm-47.619-28.572h9.524v-9.523h9.524V9.524h-9.524V0h-9.524v9.524h-9.523v9.524h9.523zM19.048 76.19H9.524v9.524H0v9.524h9.524v9.524h9.524v-9.524h9.523v-9.524h-9.523zm42.857-38.095h-9.524v-9.524h-9.524v9.524h-9.524v9.524h9.524v9.524h9.524v-9.524h9.524zM76.19 152.381v-9.524h9.524v-9.524H76.19v-9.523h-9.523v9.523h-9.524v9.524h9.524v9.524zM242.857 100h-9.524v9.524h-9.523v9.524h9.523v9.523h9.524v-9.523h9.524v-9.524h-9.524z"/></g></svg>