<svg xmlns="http://www.w3.org/2000/svg" viewBox="0 0 298.415 298.415" width="512" height="512"><path d="M250.795 101.587H160.41l70.367-92.352a4.755 4.755 0 0 0-.443-6.267 4.757 4.757 0 0 0-6.271-.376L96.776 101.587H63.495L0 149.206l63.495 47.619h77.686l-70.367 92.352a4.755 4.755 0 0 0 .443 6.267 4.736 4.736 0 0 0 3.348 1.381 4.749 4.749 0 0 0 2.924-1l127.286-99h45.981c26.257 0 47.619-21.362 47.619-47.619s-21.363-47.619-47.62-47.619zM26.986 157.54l-11.11-8.333 11.11-8.334v16.667zm33.333 24.999l-23.81-17.857V133.73l23.81-17.857v66.666zm9.524-71.429h25.9l11.638 19.048H69.843V111.11zm0 28.572h43.362l11.638 19.048h-55v-19.048zm0 47.62v-19.048h60.819l11.638 19.048H69.843zm30.738 78.523l54.005-70.876a4.774 4.774 0 0 0 .276-5.367l-50.167-82.086 96.314-74.91-54.005 70.876a4.774 4.774 0 0 0-.276 5.367l50.162 82.086-96.309 74.91zm121.643-78.524h-16.376l-11.638-19.048h28.014v19.048zm0-28.571h-33.838l-11.638-19.048h45.476v19.048zm0-28.572h-51.295l-11.638-19.048h62.933v19.048zm23.81 57.143h-14.286v-76.19h14.286v76.19zm9.523-.328V111.44c18.762 2.357 33.333 18.376 33.333 37.767s-14.571 35.409-33.333 37.766z" fill="#FFF"/></svg>