<svg xmlns="http://www.w3.org/2000/svg" viewBox="0 0 421.141 421.141"><path d="M125.026 173.337l12.016 54.07a6.58 6.58 0 0 0 6.424 5.153h14.462v-52.643l-32.902-6.58zm171.088 0l-12.016 54.07a6.58 6.58 0 0 1-6.424 5.153h-14.462v-52.643l32.902-6.58z" fill="#545465"/><path d="M138.277 257.073c14.716-9.475 13.07-37.675 13.07-44.255h118.446c0 6.58-1.825 34.78 12.89 44.255l-72.113 80.771-72.293-80.771z" fill="#ffd7a3"/><path d="M256.632 285.202l26.051-28.129c-14.716-9.474-12.89-37.675-12.89-44.255H151.347c8.498 24.433 64.707 66.352 105.285 72.384z" fill="#fdc88e"/><path d="M302.695 127.274c0 52.696-30.343 118.446-92.124 118.446s-92.124-65.75-92.124-118.446 41.246-72.384 92.124-72.384 92.124 19.688 92.124 72.384z" fill="#ffe1b2"/><path d="M361.918 421.141c10.903 0 19.741-8.838 19.741-19.741v-67.795c0-28.954-22.562-59.864-50.138-68.687l-41.168-13.174c-22.149 16.936-53.802 40.039-79.782 40.039s-57.633-23.103-79.782-40.039L89.62 264.917c-27.576 8.823-50.138 39.733-50.138 68.687V401.4c0 10.903 8.838 19.741 19.741 19.741h302.695z" fill="#ff6953"/><path d="M92.124 421.141h236.892V264.116l-38.663-12.372c-22.149 16.936-53.802 40.039-79.782 40.039s-57.633-23.103-79.782-40.039l-38.663 12.372v157.025z" fill="#c55f54"/><path d="M190.829 304.943l10.435 10.435c5.14 5.14 13.472 5.14 18.612 0l17.015-17.015-26.321-6.58-19.741 13.16z" fill="#e35f49"/><path d="M164.508 15.409c57.578-39.482 174.79-4.935 138.187 125.026l-19.741-19.741s-73.48-17.548-138.187-52.643" fill="#545465"/><path d="M210.57 291.782l-27.456 27.456c-2.859 2.859-7.596 2.487-9.975-.783l-48.113-66.156 15.326-15.326a6.58 6.58 0 0 1 9.055-.238l61.163 55.047z" fill="#ff6953"/><path d="M210.57 291.782l27.456 27.456c2.859 2.859 7.596 2.487 9.975-.783l48.113-66.156-15.326-15.326a6.58 6.58 0 0 0-9.055-.238l-61.163 55.047z" fill="#ff6953"/><path d="M121.611 140.435c-9.864-2.468-16.326 2.805-16.326 13.161 0 13.709 13.265 47.296 27.21 26.321s-10.884-39.482-10.884-39.482zm176.424 0c10.767-2.468 17.821 2.805 17.821 13.161 0 13.709-14.479 47.296-29.701 26.321s11.88-39.482 11.88-39.482z" fill="#ffe1b2"/><path d="M118.446 140.435c2.162 6.522 6.58 13.161 6.58 13.161s38.385-49.352 39.482-85.544c1.097-36.192-6.58-32.902-6.58-32.902l13.161-6.58s23.012-10.216-6.58-13.161c-41.334-4.113-78.965 25.773-46.063 125.026zm77.291-4.935v4.935c0 14.514-11.808 26.321-26.321 26.321h-6.58c-7.257 0-13.161-5.904-13.161-13.161V135.5h46.062m0-6.58h-46.062a6.58 6.58 0 0 0-6.58 6.58v18.096c0 10.903 8.838 19.741 19.741 19.741h6.58c18.171 0 32.902-14.731 32.902-32.902V135.5a6.58 6.58 0 0 0-6.581-6.58zm75.548 6.58v18.096c0 7.257-5.904 13.161-13.161 13.161h-6.58c-14.514 0-26.321-11.808-26.321-26.321V135.5h46.062m0-6.58h-46.062a6.58 6.58 0 0 0-6.58 6.58v4.935c0 18.171 14.731 32.902 32.902 32.902h6.58c10.903 0 19.741-8.838 19.741-19.741V135.5a6.582 6.582 0 0 0-6.581-6.58z" fill="#545465"/><path fill="#545465" d="M118.265 128.92h31.41v15.653l-31.41-7.567zm184.43 0h-31.41v15.653l31.41-7.567zm-77.185 15.653h-6.58c0-2.847-3.949-5.347-8.45-5.347s-8.45 2.5-8.45 5.347h-6.58c0-6.69 6.603-11.927 15.031-11.927s15.029 5.238 15.029 11.927z"/></svg>