<svg xmlns="http://www.w3.org/2000/svg" viewBox="0 0 354.807 354.807"><path d="M16.322 264.454C7.345 264.454 0 257.109 0 248.133V41.389c0-8.977 7.345-20.674 16.322-20.674h309.027c8.977 0 16.322 7.345 16.322 16.322v211.096c0 8.977-7.345 16.322-16.322 16.322H16.322z" fill="#a4a9ad"/><path d="M29.458 264.454c-8.978 0-16.322-7.345-16.322-16.322V37.037c0-8.977 7.345-16.322 16.322-16.322h309.027c8.977 0 16.322 7.345 16.322 16.322v211.096c0 8.977-7.345 16.322-16.322 16.322H29.458z" fill="#c3c6c8"/><path d="M29.458 20.715h309.027c8.977 0 16.322 7.345 16.322 16.322v197.764H13.136V37.037c0-8.978 7.344-16.322 16.322-16.322z" fill="#1e252b"/><path fill="#0071ce" d="M34.898 42.477h298.146v170.56H34.898z"/><path fill="#fff" d="M61.844 82.965h244.255v89.586H61.844z"/><path fill="#a4a9ad" d="M84.403 101.21h78v53.386h-78z"/><path fill="#c3c6c8" d="M192.132 103.903h97.271v23h-97.271z"/><path fill="#b3b8ba" d="M192.679 323.301h-78.347l19.587-58.847h78.346z"/><path d="M219.335 323.301a5.395 5.395 0 0 1 0 10.791h-77.801V323.3l77.801.001z" fill="#c3c6c8"/><path d="M111.284 334.092a8.762 8.762 0 0 1-8.269-11.664l.002-.002 19.294-57.97h11.607l-19.587 58.846h27.202a5.395 5.395 0 1 1 0 10.791H111.24l.044-.001z" fill="#a4a9ad"/><circle cx="183.971" cy="249.943" r="8.161" fill="#1e252b"/><path d="M269.452 182.132l-18.805-18.805 10.109-3.695a6 6 0 0 0-.734-11.488l-33.439-7.572c-.036-.008-.072-.01-.107-.017-.074-.015-.148-.023-.221-.036a5.82 5.82 0 0 0-.86-.082c-.068-.002-.136-.008-.205-.007a5.997 5.997 0 0 0-.994.095c-.076.014-.15.034-.227.051a6.231 6.231 0 0 0-.827.245c-.064.024-.13.043-.193.069a5.986 5.986 0 0 0-.889.468c-.072.046-.142.095-.214.145a5.942 5.942 0 0 0-.831.679 5.97 5.97 0 0 0-.68.832c-.049.07-.098.14-.143.211a5.91 5.91 0 0 0-.469.89c-.026.064-.045.129-.068.193-.102.27-.183.545-.245.826-.017.076-.037.151-.051.229a5.95 5.95 0 0 0-.095.99c-.001.071.005.143.007.214.007.283.034.566.081.85.013.076.021.151.037.227.007.035.009.071.017.106l7.573 33.439a5.998 5.998 0 0 0 5.854 4.675 6.001 6.001 0 0 0 5.634-3.94l3.695-10.11 18.806 18.806c1.171 1.171 2.707 1.757 4.242 1.757s3.071-.586 4.243-1.758a6.001 6.001 0 0 0-.001-8.487z" fill="#1e252b"/></svg>