<svg xmlns="http://www.w3.org/2000/svg" viewBox="0 0 496 496"><path d="M472 116.07H24c-13.234 0-24 10.766-24 24v264c0 13.234 10.766 24 24 24h448c13.234 0 24-10.766 24-24v-264c0-13.234-10.766-24-24-24z" fill="#ff4f19"/><path fill="#e3001e" d="M224 388.07h48v40h-48z"/><path d="M464.219 364.07v24a8 8 0 0 1-8 8h-416a8 8 0 0 1-8-8v-24l47.781-24 192 8 160-8 32.219 24z" fill="#e6be8a"/><path d="M43.443 375.116a253.657 253.657 0 0 1 204.776 4.954v-288A253.656 253.656 0 0 0 36.97 89.894c-2.896 1.291-4.751 4.222-4.751 7.393v270.515c0 5.779 5.883 9.519 11.224 7.314z" fill="#ffebb7"/><path d="M248.219 380.07a253.653 253.653 0 0 1 204.776-4.954c5.341 2.205 11.224-1.535 11.224-7.314V97.287c0-3.171-1.855-6.102-4.751-7.393a253.656 253.656 0 0 0-211.249 2.176v288z" fill="#ffd788"/><path d="M280.219 327.824c-3.406 0-6.563-2.188-7.633-5.605-1.32-4.215 1.023-8.707 5.234-10.031a262.368 262.368 0 0 1 24.758-6.461c4.313-.906 8.563 1.855 9.469 6.188a7.994 7.994 0 0 1-6.188 9.469 246.757 246.757 0 0 0-23.242 6.07 8.059 8.059 0 0 1-2.398.37zm152 0a8.023 8.023 0 0 1-2.398-.371c-30.187-9.48-61.477-13.031-92.969-10.523-4.469.32-8.258-2.941-8.609-7.344a8.005 8.005 0 0 1 7.344-8.609c33.609-2.641 66.891 1.117 99.031 11.211 4.211 1.324 6.555 5.816 5.234 10.031-1.071 3.418-4.227 5.605-7.633 5.605zm0-32.094a8.023 8.023 0 0 1-2.398-.371c-48.156-15.125-99.047-15.125-147.203 0-4.234 1.324-8.719-1.023-10.031-5.234-1.32-4.215 1.023-8.707 5.234-10.031 51.297-16.109 105.5-16.109 156.797 0 4.211 1.324 6.555 5.816 5.234 10.031-1.071 3.418-4.227 5.605-7.633 5.605zm-152-31.906c-3.406 0-6.563-2.188-7.633-5.605-1.32-4.215 1.023-8.707 5.234-10.031 29.445-9.242 60-13.176 90.781-11.73 4.406.211 7.82 3.957 7.609 8.371-.203 4.422-3.891 7.797-8.375 7.613a245.112 245.112 0 0 0-85.219 11.012 8.047 8.047 0 0 1-2.397.37zm152 0a8.023 8.023 0 0 1-2.398-.371 246.488 246.488 0 0 0-31-7.566c-4.352-.77-7.258-4.918-6.484-9.27.766-4.348 4.922-7.258 9.266-6.488a263.149 263.149 0 0 1 33.016 8.059c4.211 1.324 6.555 5.816 5.234 10.031-1.072 3.418-4.228 5.605-7.634 5.605zm0-32.094a8.023 8.023 0 0 1-2.398-.371c-48.156-15.125-99.047-15.125-147.203 0-4.234 1.316-8.719-1.027-10.031-5.234-1.32-4.215 1.023-8.707 5.234-10.031 51.297-16.109 105.5-16.109 156.797 0 4.211 1.324 6.555 5.816 5.234 10.031-1.071 3.418-4.227 5.605-7.633 5.605zm-152-31.999c-3.406 0-6.563-2.188-7.633-5.605-1.32-4.215 1.023-8.707 5.234-10.031a261.98 261.98 0 0 1 49.523-10.422c4.453-.535 8.352 2.684 8.836 7.066.484 4.391-2.68 8.348-7.07 8.832a246.167 246.167 0 0 0-46.492 9.789 8.06 8.06 0 0 1-2.398.371zm152 0a8.023 8.023 0 0 1-2.398-.371 245.21 245.21 0 0 0-69.719-11.258 7.999 7.999 0 0 1-7.875-8.125c.07-4.414 3.93-8.133 8.125-7.875a261.412 261.412 0 0 1 74.266 11.992c4.211 1.324 6.555 5.816 5.234 10.031a8.009 8.009 0 0 1-7.633 5.606zm-152-31.907c-3.406 0-6.563-2.188-7.633-5.605-1.32-4.215 1.023-8.707 5.234-10.031 34.859-10.949 70.937-14.465 107.281-10.422 4.391.484 7.555 4.441 7.07 8.832-.484 4.387-4.359 7.637-8.836 7.066-34.094-3.781-67.992-.496-100.719 9.789a8.017 8.017 0 0 1-2.397.371zm152 0a8.023 8.023 0 0 1-2.398-.371 244.784 244.784 0 0 0-15.5-4.316c-4.289-1.047-6.922-5.375-5.875-9.668s5.344-6.918 9.672-5.879a265.258 265.258 0 0 1 16.5 4.598c4.211 1.324 6.555 5.816 5.234 10.031-1.071 3.418-4.227 5.605-7.633 5.605zm-152-32.093a8.003 8.003 0 0 1-7.633-5.609c-1.32-4.219 1.023-8.707 5.242-10.027 5.5-1.727 11.047-3.27 16.492-4.594 4.266-1.051 8.617 1.59 9.664 5.883 1.047 4.293-1.594 8.621-5.883 9.664a247.586 247.586 0 0 0-15.492 4.312 8.009 8.009 0 0 1-2.39.371zm152 0a8.023 8.023 0 0 1-2.398-.371c-32.734-10.285-66.617-13.566-100.719-9.789-4.422.539-8.352-2.684-8.836-7.066-.484-4.391 2.68-8.348 7.07-8.832 36.328-4.043 72.414-.527 107.281 10.422 4.211 1.324 6.555 5.816 5.234 10.031-1.07 3.417-4.226 5.605-7.632 5.605z" fill="#868491"/><path d="M64.219 327.824c-3.406 0-6.562-2.188-7.633-5.605-1.32-4.215 1.023-8.707 5.234-10.031a262.368 262.368 0 0 1 24.758-6.461 7.993 7.993 0 0 1 9.469 6.188 7.994 7.994 0 0 1-6.188 9.469 246.757 246.757 0 0 0-23.242 6.07 8.059 8.059 0 0 1-2.398.37zm152 0a8.023 8.023 0 0 1-2.398-.371c-30.18-9.48-61.477-13.031-92.969-10.523-4.531.32-8.258-2.941-8.609-7.344a8.005 8.005 0 0 1 7.344-8.609c33.609-2.641 66.883 1.117 99.031 11.211 4.211 1.324 6.555 5.816 5.234 10.031-1.071 3.418-4.227 5.605-7.633 5.605zm0-32.094a8.023 8.023 0 0 1-2.398-.371c-48.156-15.125-99.047-15.125-147.203 0-4.25 1.324-8.719-1.023-10.031-5.234-1.32-4.215 1.023-8.707 5.234-10.031 51.297-16.109 105.5-16.109 156.797 0 4.211 1.324 6.555 5.816 5.234 10.031-1.071 3.418-4.227 5.605-7.633 5.605zm-152-31.906c-3.406 0-6.562-2.188-7.633-5.605-1.32-4.215 1.023-8.707 5.234-10.031 29.445-9.242 60.023-13.176 90.781-11.73 4.406.211 7.82 3.957 7.609 8.371-.211 4.422-3.938 7.797-8.375 7.613-28.891-1.363-57.578 2.332-85.219 11.012a8.047 8.047 0 0 1-2.397.37zm152 0a8.023 8.023 0 0 1-2.398-.371 246.488 246.488 0 0 0-31-7.566c-4.352-.77-7.258-4.918-6.484-9.27.758-4.348 4.93-7.258 9.266-6.488a263.149 263.149 0 0 1 33.016 8.059c4.211 1.324 6.555 5.816 5.234 10.031-1.072 3.418-4.228 5.605-7.634 5.605zm-152-32.094c-3.406 0-6.562-2.188-7.633-5.605-1.32-4.215 1.023-8.707 5.234-10.031a261.703 261.703 0 0 1 140.289-4.594 8 8 0 0 1 5.883 9.668c-1.047 4.289-5.398 6.902-9.664 5.879a245.528 245.528 0 0 0-131.711 4.313 8.059 8.059 0 0 1-2.398.37zm0-31.999c-3.406 0-6.562-2.188-7.633-5.605-1.32-4.215 1.023-8.707 5.234-10.031a261.98 261.98 0 0 1 49.523-10.422c4.414-.535 8.352 2.684 8.836 7.066.484 4.391-2.68 8.348-7.07 8.832a246.167 246.167 0 0 0-46.492 9.789 8.06 8.06 0 0 1-2.398.371zm136.008-4.458a8.089 8.089 0 0 1-1.898-.227 245.728 245.728 0 0 0-54.227-6.945 7.999 7.999 0 0 1-7.875-8.125c.07-4.414 3.523-8.133 8.125-7.875a262.042 262.042 0 0 1 57.758 7.398 8 8 0 0 1-1.883 15.774zM64.219 167.824c-3.406 0-6.562-2.188-7.633-5.605-1.32-4.215 1.023-8.707 5.234-10.031 34.867-10.949 70.945-14.465 107.281-10.422 4.391.484 7.555 4.441 7.07 8.832-.484 4.387-4.391 7.637-8.836 7.066-34.094-3.781-67.992-.496-100.719 9.789a8.017 8.017 0 0 1-2.397.371zm0-32.093a8.004 8.004 0 0 1-7.633-5.609c-1.32-4.219 1.023-8.707 5.242-10.027 5.5-1.727 11.047-3.27 16.492-4.594 4.258-1.051 8.617 1.59 9.664 5.883 1.047 4.293-1.594 8.621-5.883 9.664a247.586 247.586 0 0 0-15.492 4.312 8.009 8.009 0 0 1-2.39.371zm136.008-4.461a8.089 8.089 0 0 1-1.898-.227c-27.961-6.809-56.633-8.641-85.227-5.473-4.391.539-8.352-2.676-8.836-7.066-.484-4.391 2.68-8.348 7.07-8.832 30.445-3.391 61-1.422 90.773 5.824a8 8 0 0 1-1.882 15.774z" fill="#b4b6bc"/><path d="M200.219 216.064c.001 3.194 3.561 5.1 6.219 3.328l17.781-11.854L242 219.392c2.658 1.772 6.219-.133 6.219-3.328V92.734c0-3.16-1.843-6.077-4.731-7.361-12.457-5.54-25.259-9.983-38.262-13.418-2.537-.67-5.03 1.292-5.029 3.916l.022 140.193z" fill="#5d647f"/></svg>