<svg xmlns="http://www.w3.org/2000/svg" viewBox="0 0 57.975 57.975"><path d="M10.39 23.151c-.167 2.943.41 5.903 1.767 8.819.83 1.782 1.141 3.785.667 5.693-.786 3.165-2.687 5.7-6.161 7.757-1.371.812-2.72 1.664-3.983 2.635l-1.591 1.224a1.934 1.934 0 0 0-.188 2.901l5.229 5.229a1.934 1.934 0 0 0 2.92-.213l1.646-2.213c.862-1.158 1.633-2.385 2.353-3.636 1.994-3.463 4.414-5.368 7.478-6.204 1.879-.513 3.866-.233 5.654.54 2.741 1.186 5.522 1.699 8.29 1.549.195-.011.286-.255.148-.393L10.784 23.004c-.138-.138-.383-.048-.394.147z" fill="#cbb292"/><circle cx="18.003" cy="9.893" r="9" fill="#ecf0f1"/><path d="M13.003 10.893a1 1 0 0 1-1-1c0-3.309 2.691-6 6-6a1 1 0 1 1 0 2c-2.206 0-4 1.794-4 4a1 1 0 0 1-1 1z" fill="#fff"/><path d="M52.004 5.634c-6.926-6.926-18.332-7.268-27.648-2.116l.011.01a9 9 0 0 1 0 12.728c-3.392 3.392-8.813 3.5-12.347.345a18.689 18.689 0 0 0-1.603 6.479c.061-.139.249-.195.367-.076l23.834 23.834c.126.127.056.334-.106.378 5.056-.285 10.064-2.768 14.701-7.405 9.823-9.823 11.458-25.51 2.791-34.177z" fill="#e64c3c"/></svg>