<svg xmlns="http://www.w3.org/2000/svg" viewBox="0 0 280.291 280.291"><path d="M84.373 195.442c13.083 13.03 17.02 34.461 3.947 47.5-13.083 13.03-52.514 27.548-65.596 14.518-13.074-13.03 1.505-52.321 14.579-65.351 13.081-13.031 33.996-9.706 47.07 3.333z" fill="#efc75e"/><path d="M205.178 166.468c19.698 40.84-28.37 135.901-50.597 109.001-9.013-10.904-8.418-28.3-31.949-50.702-.035.14 8.567 1.523 18.639-7.596 23.242-17.905 63.907-50.554 63.907-50.703zm-82.774-91.464C78.256 54.999-23.998 102.753 5.143 125.216c11.814 9.11 30.558 8.611 54.842 32.369-.149.035-1.68-8.611 8.103-18.683 19.155-23.259 54.15-63.898 54.316-63.898z" fill="#e2574c"/><path d="M102.96 70.471l-1.908-.096c-9.687 11.831-33.358 40.998-47.788 59.453-5.916 6.423-7.517 12.26-7.858 15.708 2.827 1.943 5.741 4.183 8.751 6.756.735-3.483 2.669-8.34 7.508-13.599 18.421-23.575 52.05-64.791 52.208-64.783-3.3-1.575-7.011-2.651-10.913-3.439zm102.49 96.644c-5.758 4.848-42.249 34.767-63.934 51.84-7.167 6.633-13.529 7.876-16.705 7.998 3.115 3.133 5.811 6.169 8.103 9.101 2.853.044 9.722-.858 17.475-8.025 18.149-14.299 46.572-37.497 58.762-47.57-.656-4.829-1.864-9.336-3.701-13.344z" fill="#cf5349"/><path d="M53.412 184.232c1.82 8.156 7.412 17.878 16.119 26.568 8.663 8.646 18.351 14.211 26.498 16.067 1.383-10.956-3.15-22.953-11.656-31.424-8.462-8.437-20.188-12.707-30.961-11.211z" fill="#d7b354"/><path d="M278.528 1.532c6.581 6.222-3.107 98.596-66.244 161.313-39.09 38.836-65.019 53.87-71.223 59.252-17.16 7.78-28.545 11.962-62.551-21.833-33.927-33.708-27.399-43.054-19.873-59.2 5.583-6.266 21.046-32.299 60.145-71.144C181.892 7.211 271.641-4.576 278.528 1.532z" fill="#ebebeb"/><path d="M199.604 80.316c13.608 13.634 13.608 35.738 0 49.381-13.616 13.634-35.677 13.634-49.294 0-13.608-13.643-13.608-35.747 0-49.381 13.617-13.643 35.678-13.643 49.294 0z" fill="#324d5b"/><path d="M187.397 92.689c6.861 6.817 6.861 17.869 0 24.686-6.852 6.817-17.983 6.817-24.852 0-6.852-6.817-6.852-17.869 0-24.686 6.877-6.817 18-6.817 24.852 0z" fill="#ccd0d2"/></svg>