<svg xmlns="http://www.w3.org/2000/svg" viewBox="0 0 310.551 310.551"><path d="M308.122 127.396c-.728-4.297-4.796-7.012-9.042-6.039l-26.584 6.08a119.72 119.72 0 0 0-14.864-35.686l23.063-14.576c3.681-2.322 4.619-7.131 2.09-10.676 0 0-3.964-7.273-17.711-21.018-13.745-13.748-21.433-17.998-21.433-17.998-3.554-2.521-8.35-1.564-10.665 2.125l-14.504 23.107a119.74 119.74 0 0 0-35.734-14.748l5.997-26.598c.959-4.248-1.771-8.311-6.067-9.029 0 0-7.947-2.34-27.389-2.34s-27.883 2.432-27.883 2.432c-4.293.729-7.012 4.797-6.039 9.043l6.082 26.586a119.703 119.703 0 0 0-35.685 14.861L77.179 29.859c-2.326-3.68-7.131-4.621-10.676-2.094 0 0-7.274 3.967-21.022 17.713-13.746 13.747-17.997 21.436-17.997 21.436-2.521 3.551-1.565 8.352 2.124 10.666l23.108 14.502a119.778 119.778 0 0 0-14.748 35.734l-26.599-5.998c-4.247-.957-8.31 1.773-9.028 6.068 0 0-2.34 7.947-2.34 27.391 0 19.439 2.431 27.881 2.431 27.881.729 4.293 4.798 7.012 9.044 6.039l26.585-6.082a119.71 119.71 0 0 0 14.862 35.686L29.86 233.375c-3.681 2.326-4.621 7.131-2.092 10.678 0 0 3.964 7.271 17.712 21.021 13.745 13.744 21.434 17.994 21.434 17.994 3.552 2.522 8.351 1.566 10.666-2.123l14.503-23.107a119.729 119.729 0 0 0 35.733 14.75l-5.997 26.596c-.959 4.248 1.773 8.311 6.069 9.027 0 0 7.945 2.342 27.389 2.34 19.439 0 27.881-2.43 27.881-2.43 4.294-.728 7.012-4.797 6.039-9.043l-6.082-26.584a119.765 119.765 0 0 0 35.686-14.861l14.575 23.059c2.324 3.684 7.13 4.621 10.676 2.092 0 0 7.272-3.963 21.02-17.711 13.745-13.746 17.996-21.434 17.996-21.434 2.521-3.553 1.566-8.348-2.123-10.664l-23.107-14.504a119.732 119.732 0 0 0 14.749-35.734l26.598 5.996c4.246.961 8.309-1.773 9.026-6.068 0 0 2.34-7.945 2.34-27.387.003-19.44-2.429-27.882-2.429-27.882zm-152.844 63.86c-19.871 0-35.979-16.107-35.979-35.979 0-19.871 16.107-35.979 35.979-35.979s35.98 16.107 35.98 35.979c0 19.871-16.108 35.979-35.98 35.979z" fill="#a4a9ad"/><path d="M155.278 96.115c-32.674 0-59.161 26.488-59.161 59.162s26.487 59.162 59.161 59.162 59.162-26.488 59.162-59.162c.001-32.673-26.488-59.162-59.162-59.162zm0 95.141c-19.871 0-35.979-16.107-35.979-35.979 0-19.871 16.107-35.979 35.979-35.979s35.98 16.107 35.98 35.979c0 19.871-16.108 35.979-35.98 35.979z" fill="#333e48"/></svg>