<svg xmlns="http://www.w3.org/2000/svg" viewBox="0 0 60 60" width="512" height="512"><g fill="#eaeaea"><path d="M57.348.793H12.652A2.655 2.655 0 0 0 10 3.446v7.347h34.348A4.658 4.658 0 0 1 49 15.446v25.347h1.586L60 50.207V3.446A2.655 2.655 0 0 0 57.348.793z"/><path d="M44.348 12.793H2.652A2.655 2.655 0 0 0 0 15.446v43.761l9.414-9.414h34.934A2.655 2.655 0 0 0 47 47.14V15.446a2.655 2.655 0 0 0-2.652-2.653zM11 22.793h12a1 1 0 1 1 0 2H11a1 1 0 1 1 0-2zm25 16H11a1 1 0 1 1 0-2h25a1 1 0 1 1 0 2zm0-7H11a1 1 0 1 1 0-2h25a1 1 0 1 1 0 2z"/></g></svg>