<svg xmlns="http://www.w3.org/2000/svg" viewBox="0 0 504.123 504.123"><path d="M480.492 0c0 8.665-7.089 15.754-15.754 15.754S448.985 8.665 448.985 0h-23.631c0 8.665-7.089 15.754-15.754 15.754S393.846 8.665 393.846 0h-23.631c0 8.665-7.089 15.754-15.754 15.754S338.707 8.665 338.707 0h-23.631c0 34.658-28.357 63.015-63.015 63.015S189.046 34.658 189.046 0h-23.631c0 8.665-7.089 15.754-15.754 15.754S133.907 8.665 133.907 0h-23.631c0 8.665-7.089 15.754-15.754 15.754S78.769 8.665 78.769 0H55.138c0 8.665-7.089 15.754-15.754 15.754S23.631 8.665 23.631 0H0v488.369c0 8.665 7.089 15.754 15.754 15.754h472.615c8.665 0 15.754-7.089 15.754-15.754V0h-23.631z" fill="#efefef"/><path d="M433.231 204.8H70.892c-8.665 0-15.754 7.089-15.754 15.754v283.569h15.754V228.431c0-4.332 3.545-7.877 7.877-7.877h346.585c4.332 0 7.877 3.545 7.877 7.877v275.692h15.754V220.554c0-8.665-7.09-15.754-15.754-15.754z" fill="#ccd0d2"/><path d="M145.723 306.412c5.908-1.969 10.634-5.908 10.634-12.603 0-9.846-9.846-14.178-18.511-14.178-9.058 0-18.511 3.938-18.511 14.178 0 6.695 4.726 10.634 10.634 12.603-6.302 1.969-11.422 7.089-11.422 13.785 0 9.452 9.058 14.572 19.692 14.572 10.24 0 19.692-5.12 19.692-14.572-.786-6.695-5.906-11.815-12.208-13.785zM128 295.385c0-4.726 3.938-7.089 9.452-7.089s9.452 2.757 9.452 7.089c0 5.12-6.302 6.695-9.452 7.483-2.757-.788-9.452-2.757-9.452-7.483zm9.846 31.113c-5.908 0-10.634-2.757-10.634-7.483 0-5.514 7.089-7.877 10.634-8.271 3.151.394 10.634 2.757 10.634 8.271-.394 4.727-5.12 7.483-10.634 7.483zm44.111-46.867c-11.422 0-18.905 7.877-18.905 17.723 0 11.422 7.877 17.329 16.935 17.329 5.908 0 11.422-3.938 13.785-7.483v1.575c0 8.665-4.332 17.723-13.391 17.723-4.726 0-7.877-1.575-10.634-4.726l-4.332 7.089c3.545 3.545 8.271 5.908 14.572 5.908 14.572 0 22.449-12.209 22.449-27.569.789-14.966-5.513-27.569-20.479-27.569zm.788 27.175c-5.514 0-10.634-2.757-10.634-9.452 0-4.332 3.545-9.452 10.24-9.452 7.877 0 10.634 6.695 11.422 12.603-2.364 3.938-6.696 6.301-11.028 6.301zm45.292-27.175c-11.422 0-18.905 7.877-18.905 17.723 0 11.422 7.877 17.329 16.935 17.329 5.908 0 11.422-3.938 13.785-7.483v1.575c0 8.665-4.332 17.723-13.391 17.723-4.726 0-7.877-1.575-10.634-4.726l-4.332 7.089c3.545 3.545 8.271 5.908 14.572 5.908 14.572 0 22.449-12.209 22.449-27.569.395-14.966-5.513-27.569-20.479-27.569zm.394 27.175c-5.514 0-10.634-2.757-10.634-9.452 0-4.332 3.545-9.452 10.24-9.452 7.877 0 10.634 6.695 11.422 12.603-2.364 3.938-6.302 6.301-11.028 6.301zm45.292-27.175c-11.422 0-18.905 7.877-18.905 17.723 0 11.422 7.877 17.329 16.935 17.329 5.908 0 11.422-3.938 13.785-7.483v1.575c0 8.665-4.332 17.723-13.391 17.723-4.726 0-7.877-1.575-10.634-4.726l-4.332 7.089c3.545 3.545 8.271 5.908 14.572 5.908 14.572 0 22.449-12.209 22.449-27.569.395-14.966-5.513-27.569-20.479-27.569zm.788 27.175c-5.514 0-10.634-2.757-10.634-9.452 0-4.332 3.545-9.452 10.24-9.452 7.877 0 10.634 6.695 11.422 12.603-2.757 3.938-6.696 6.301-11.028 6.301zm53.957-.394c5.908-1.969 10.634-5.908 10.634-12.603 0-9.846-9.846-14.178-18.511-14.178-9.059 0-18.511 3.938-18.511 14.178 0 6.695 4.726 10.634 10.634 12.603-6.302 1.969-11.422 7.089-11.422 13.785 0 9.452 9.058 14.572 19.692 14.572 10.24 0 19.692-5.12 19.692-14.572-.787-6.695-5.907-11.815-12.208-13.785zm-17.723-11.027c0-4.726 3.938-7.089 9.452-7.089s9.452 2.757 9.452 7.089c0 5.12-6.302 6.695-9.452 7.483-2.757-.788-9.452-2.757-9.452-7.483zm9.846 31.113c-5.908 0-10.634-2.757-10.634-7.483 0-5.514 7.089-7.877 10.634-8.271 3.151.394 10.24 2.757 10.24 8.271 0 4.727-4.726 7.483-10.24 7.483zm44.504-46.867c-11.422 0-18.905 7.877-18.905 17.723 0 11.422 7.877 17.329 16.935 17.329 5.908 0 11.422-3.938 13.785-7.483v1.575c0 8.665-4.332 17.723-13.391 17.723-4.726 0-7.877-1.575-10.634-4.726l-4.332 7.089c3.545 3.545 8.271 5.908 14.572 5.908 14.572 0 22.449-12.209 22.449-27.569.395-14.966-5.512-27.569-20.479-27.569zm.394 27.175c-5.514 0-10.634-2.757-10.634-9.452 0-4.332 3.545-9.452 10.24-9.452 7.877 0 10.634 6.695 11.422 12.603-2.363 3.938-6.695 6.301-11.028 6.301z" fill="#324d5b"/><path d="M169.748 403.692l-14.178-2.363-6.302-13.391c-.788-1.182-1.969-1.969-3.545-1.969-1.575 0-2.757.788-3.545 2.363l-6.302 13.391-14.178 2.363c-1.575.394-2.757 1.182-3.151 2.757-.394 1.575 0 3.151.788 3.938l10.634 10.634-2.363 14.966c-.394 1.575.394 3.151 1.575 3.938.788.394 1.575.788 2.363.788s1.182 0 1.969-.394l12.603-7.089 12.603 7.089c.788.394 1.182.394 1.969.394.788 0 1.575-.394 2.363-.788 1.182-.788 1.969-2.363 1.575-3.938l-3.151-14.966 10.634-11.028c1.182-1.182 1.575-2.757.788-3.938-.392-1.181-1.574-2.363-3.149-2.757zm70.892 0l-14.178-2.363-6.302-13.391c-.788-1.182-1.969-1.969-3.545-1.969s-2.757.788-3.545 2.363l-6.302 13.391-14.178 2.363c-1.575.394-2.757 1.182-3.151 2.757-.394 1.575 0 3.151.788 3.938l10.634 10.634-2.363 14.966c-.394 1.575.394 3.151 1.575 3.938.788.394 1.575.788 2.363.788s1.182 0 1.969-.394l12.603-7.089 12.603 7.089c.788.394 1.182.394 1.969.394.788 0 1.575-.394 2.363-.788 1.182-.788 1.969-2.363 1.575-3.938l-3.151-14.966 10.634-11.028c1.182-1.182 1.575-2.757.788-3.938-.392-1.181-1.574-2.363-3.149-2.757zm70.892 0l-14.178-2.363-6.302-13.391c-.788-1.182-1.969-1.969-3.545-1.969s-2.757.788-3.545 2.363l-6.302 13.391-14.178 2.363c-1.575.394-2.757 1.182-3.151 2.757-.394 1.575 0 3.151.788 3.938l10.634 10.634-2.363 14.966c-.394 1.575.394 3.151 1.575 3.938.788.394 1.575.788 2.363.788s1.182 0 1.969-.394l12.603-7.089 12.603 7.089c.788.394 1.182.394 1.969.394.788 0 1.575-.394 2.363-.788 1.182-.788 1.969-2.363 1.575-3.938l-3.151-14.966 10.634-11.028c1.182-1.182 1.575-2.757.788-3.938-.392-1.181-1.573-2.363-3.149-2.757zm74.043 2.757c-.394-1.575-1.575-2.363-3.151-2.757l-14.178-2.363-6.302-13.391c-.788-1.182-1.969-1.969-3.545-1.969-1.575 0-2.757.788-3.545 2.363l-6.302 13.391-14.178 2.363c-1.575.394-2.757 1.182-3.151 2.757-.394 1.575 0 3.151.788 3.938l10.634 10.634-2.363 14.966c-.394 1.575.394 3.151 1.575 3.938.788.394 1.575.788 2.363.788s1.182 0 1.969-.394l12.603-7.089 12.603 7.089c.788.394 1.182.394 1.969.394.788 0 1.575-.394 2.363-.788 1.182-.788 1.969-2.363 1.575-3.938l-3.151-14.966 10.634-11.028c1.184-.787 1.578-2.362.79-3.938z" fill="#efc75e"/><path d="M228.431 126.031h-31.508c-4.332 0-7.877 3.545-7.877 7.877s3.545 7.877 7.877 7.877h31.508c4.332 0 7.877-3.545 7.877-7.877 0-4.333-3.545-7.877-7.877-7.877zm78.769 0h-31.508c-4.332 0-7.877 3.545-7.877 7.877s3.545 7.877 7.877 7.877H307.2c4.332 0 7.877-3.545 7.877-7.877 0-4.333-3.545-7.877-7.877-7.877zm78.769 0h-31.508c-4.332 0-7.877 3.545-7.877 7.877s3.545 7.877 7.877 7.877h31.508c4.332 0 7.877-3.545 7.877-7.877 0-4.333-3.544-7.877-7.877-7.877zm78.769 0H433.23c-4.332 0-7.877 3.545-7.877 7.877s3.545 7.877 7.877 7.877h31.508c4.332 0 7.877-3.545 7.877-7.877 0-4.333-3.544-7.877-7.877-7.877zm-315.076 0h-31.508c-4.332 0-7.877 3.545-7.877 7.877s3.545 7.877 7.877 7.877h31.508c4.332 0 7.877-3.545 7.877-7.877-.001-4.333-3.545-7.877-7.877-7.877zm-78.77 0H39.385c-4.332 0-7.877 3.545-7.877 7.877s3.545 7.877 7.877 7.877h31.508c4.332 0 7.877-3.545 7.877-7.877-.001-4.333-3.545-7.877-7.878-7.877z" fill="#ccd0d2"/></svg>