<svg xmlns="http://www.w3.org/2000/svg" viewBox="0 0 479.692 479.692" width="512" height="512"><g fill="#bdbdbd"><path d="M171.344 228.395c-17.645 0-32 14.355-32 32s14.355 32 32 32 32-14.355 32-32-14.355-32-32-32zm0 54c-12.131 0-22-9.869-22-22s9.869-22 22-22 22 9.869 22 22-9.869 22-22 22zm137-54c-17.645 0-32 14.355-32 32s14.355 32 32 32 32-14.355 32-32-14.355-32-32-32zm0 54c-12.131 0-22-9.869-22-22s9.869-22 22-22 22 9.869 22 22-9.869 22-22 22zM86.627 171.172l11.114 8.701a4.994 4.994 0 0 0 6.164 0l11.114-8.701a4.998 4.998 0 0 0 1.918-3.937v-17.376a5 5 0 0 0-5-5H89.709a5 5 0 0 0-5 5v17.376c0 1.538.707 2.99 1.918 3.937zm8.082-16.313h12.229v9.94l-6.114 4.787-6.114-4.787v-9.94zm20.311 56.758l-11.114-8.701a5 5 0 0 0-6.164 0l-11.114 8.701a4.998 4.998 0 0 0-1.918 3.937v17.376a5 5 0 0 0 5 5h22.229a5 5 0 0 0 5-5v-17.376a5.004 5.004 0 0 0-1.919-3.937zm-8.082 16.313H94.709v-9.94l6.114-4.787 6.114 4.787v9.94zm5.406-33.454l8.701 11.115a5.003 5.003 0 0 0 3.938 1.918h17.376a5 5 0 0 0 5-5V180.28a5 5 0 0 0-5-5h-17.376a5 5 0 0 0-3.937 1.918l-8.701 11.114a4.999 4.999 0 0 0-.001 6.164zm15.074-9.196h9.94v12.229h-9.94l-4.787-6.115 4.787-6.114zm-50.754 22.229a5.006 5.006 0 0 0 3.938-1.918l8.701-11.115a4.999 4.999 0 0 0-.001-6.164l-8.701-11.114a4.997 4.997 0 0 0-3.937-1.918H59.288a5 5 0 0 0-5 5v22.229a5 5 0 0 0 5 5h17.376zM64.288 185.28h9.94l4.787 6.114-4.787 6.115h-9.94V185.28z"/><path d="M478.49 314.805l-22.671-120.22c-.269-25.979-13.38-48.926-33.279-62.796l-2.234-23.062a17.454 17.454 0 0 0-17.439-15.832h-49.046a17.453 17.453 0 0 0-17.438 15.832l-1.917 19.789H145.223l-1.917-19.788a17.454 17.454 0 0 0-17.439-15.832H76.821a17.453 17.453 0 0 0-17.438 15.832l-2.234 23.059c-19.902 13.87-33.016 36.818-33.284 62.8L1.204 314.805c-3.083 16.351-.221 31.766 8.279 44.577 7.578 11.422 19.31 20.096 33.033 24.423a64.205 64.205 0 0 0 19.291 2.993c7.51 0 14.913-1.355 21.784-4.053 14.313-5.621 25.503-16.606 32.356-31.772l21.619-47.854c9.294 7.363 21.026 11.776 33.776 11.776 27.506 0 50.304-20.487 53.971-47h29.057c3.667 26.513 26.465 47 53.971 47 12.752 0 24.485-4.414 33.78-11.779l21.621 47.856c6.851 15.163 18.036 26.149 32.347 31.77 6.873 2.699 14.275 4.055 21.787 4.055 6.435 0 12.95-.995 19.282-2.99 13.725-4.325 25.459-12.998 33.041-24.421 8.505-12.811 11.372-28.227 8.291-44.581zm-37.651-119.41c0 34.462-28.037 62.5-62.5 62.5-5.346 0-10.605-.67-15.695-1.99-2.06-25.124-21.221-45.477-45.799-49.343a62.794 62.794 0 0 1-1.006-11.167c0-34.462 28.037-62.5 62.5-62.5s62.5 28.038 62.5 62.5zm-262.773 10.929c.511-3.609.778-7.261.778-10.929 0-19.936-7.571-38.133-19.982-51.88h161.959c-12.411 13.747-19.982 31.944-19.982 51.88 0 3.669.267 7.321.778 10.93-24.423 3.022-43.881 22.253-47.245 46.57h-29.057c-3.363-24.318-22.824-43.551-47.249-46.571zm175.755-98.429h49.046c1.305 0 2.384.979 2.51 2.278l1.269 13.099a77.048 77.048 0 0 0-28.306-5.376 77.063 77.063 0 0 0-28.296 5.373l1.268-13.095a2.511 2.511 0 0 1 2.509-2.279zm-279.509 2.277a2.511 2.511 0 0 1 2.509-2.277h49.046c1.305 0 2.384.979 2.51 2.278l1.269 13.097c-8.774-3.455-18.315-5.375-28.301-5.375s-19.527 1.919-28.301 5.375l1.268-13.098zm27.032 22.723c34.463 0 62.5 28.038 62.5 62.5 0 3.762-.343 7.5-1.006 11.168-24.575 3.869-43.733 24.219-45.794 49.341a62.433 62.433 0 0 1-15.7 1.991c-34.463 0-62.5-28.038-62.5-62.5s28.037-62.5 62.5-62.5zm.936 211.901c-11.512 25.471-36.049 30.757-55.252 24.703-19.203-6.055-36.261-24.455-31.083-51.915l16.395-86.979c12.848 25.077 38.946 42.29 69.005 42.29 5.615 0 11.156-.603 16.564-1.783a54.228 54.228 0 0 0 8.555 20.154l-24.184 53.53zm69.064-44.901c-21.78 0-39.5-17.72-39.5-39.5s17.72-39.5 39.5-39.5 39.5 17.72 39.5 39.5-17.72 39.5-39.5 39.5zm137 0c-21.78 0-39.5-17.72-39.5-39.5s17.72-39.5 39.5-39.5 39.5 17.72 39.5 39.5-17.72 39.5-39.5 39.5zm124.308 69.606c-19.207 6.052-43.733.76-55.237-24.704l-24.187-53.536a54.219 54.219 0 0 0 8.552-20.148 77.577 77.577 0 0 0 16.559 1.782c30.061 0 56.16-17.215 69.007-42.294l16.403 86.983c5.174 27.464-11.89 45.864-31.097 51.917z"/><path d="M378.339 185.476c10.499 0 19.041-8.542 19.041-19.041s-8.542-19.041-19.041-19.041-19.041 8.542-19.041 19.041 8.542 19.041 19.041 19.041zm0-28.081c4.985 0 9.041 4.056 9.041 9.041s-4.056 9.041-9.041 9.041-9.041-4.056-9.041-9.041 4.056-9.041 9.041-9.041zm0 47.918c-10.499 0-19.041 8.542-19.041 19.041s8.542 19.041 19.041 19.041 19.041-8.542 19.041-19.041-8.542-19.041-19.041-19.041zm0 28.082c-4.985 0-9.041-4.056-9.041-9.041s4.056-9.041 9.041-9.041 9.041 4.056 9.041 9.041-4.055 9.041-9.041 9.041z"/><path d="M407.298 176.354c-10.499 0-19.04 8.542-19.04 19.041s8.541 19.041 19.04 19.041 19.041-8.542 19.041-19.041-8.542-19.041-19.041-19.041zm0 28.081c-4.984 0-9.04-4.056-9.04-9.041s4.056-9.041 9.04-9.041c4.985 0 9.041 4.056 9.041 9.041 0 4.986-4.055 9.041-9.041 9.041zm-38.877-9.04c0-10.499-8.542-19.041-19.041-19.041s-19.041 8.542-19.041 19.041 8.542 19.041 19.041 19.041 19.041-8.542 19.041-19.041zm-19.041 9.04c-4.985 0-9.041-4.056-9.041-9.041s4.056-9.041 9.041-9.041 9.041 4.056 9.041 9.041c0 4.986-4.055 9.041-9.041 9.041zm-132.813-13.04h-11a5 5 0 1 0 0 10h11a5 5 0 1 0 0-10zm46.554 10h11a5 5 0 1 0 0-10h-11a5 5 0 1 0 0 10z"/></g></svg>