<svg xmlns="http://www.w3.org/2000/svg" viewBox="0 0 504.517 504.517"><path d="M299.521 421.415v44.111c0 8.271 6.695 14.572 14.572 14.572h22.055c7.877 0 14.572-6.695 14.572-14.572v-44.111h-51.199zM153.798 465.92c0 8.271 6.695 14.572 14.572 14.572h22.055c7.877 0 14.572-6.695 14.572-14.572v-44.505h-51.2l.001 44.505z" fill="#d7aea1"/><path d="M323.152 315.077v162.265c0 14.966 11.815 27.175 26.782 27.175h13.391c14.966 0 26.782-12.209 26.782-27.175V315.077h-66.955zM114.413 477.342c0 14.966 11.815 27.175 26.782 27.175h13.391c14.966 0 26.782-12.209 26.782-27.175V315.077h-66.954l-.001 162.265z" fill="#efc2b3"/><path d="M114.413 421.022l66.954 26.388v-85.465l-66.954-33.083v92.16zm208.739 24.812l66.954-26.388v-92.554l-66.954 33.083v85.859z" fill="#d7aea1"/><path d="M394.044 228.825l-32.295-124.062c-1.575-6.302-9.846-8.271-13.785-3.151l-54.351 63.409c-1.182 1.182-.788 3.151.788 4.332l95.705 62.622c1.969 1.182 4.332-.787 3.938-3.15zM156.555 101.218a7.876 7.876 0 0 0-13.785 3.151l-32.295 124.455c-.788 2.363 1.969 4.332 4.332 3.151l95.705-62.622c1.575-.788 1.575-3.151.788-4.332-.001.001-54.745-63.803-54.745-63.803z" fill="#efc2b3"/><path d="M350.327 133.514c-.788-3.938-4.726-4.726-7.089-1.969l-27.569 37.415c-.394.788-.394 1.969.394 2.363l48.443 37.415c1.182.788 2.363-.394 1.969-1.969l-16.148-73.255zm-189.046-1.969c-1.969-2.757-6.302-1.969-7.089 1.969l-16.148 73.255c-.394 1.575 1.182 2.757 1.969 1.969l48.443-37.022c.788-.394.788-1.575.394-2.363l-27.569-37.808z" fill="#cba598"/><path d="M252.259 137.846c89.009 0 161.477 72.468 161.477 161.477S341.269 460.8 252.259 460.8 90.783 388.332 90.783 299.323s72.467-161.477 161.476-161.477z" fill="#efc2b3"/><path d="M256.198 390.695c-15.36 0-27.569 1.575-27.569 7.877s12.209 19.298 27.569 19.298 27.569-12.997 27.569-19.298c0-6.695-12.209-7.877-27.569-7.877z" fill="#a7877d"/><path d="M252.259 275.692c-32.689 0-59.077 13.785-59.077 38.991 0 24.812 26.388 51.594 59.077 51.594s59.077-26.782 59.077-51.594c0-25.206-26.387-38.991-59.077-38.991z" fill="#f5dad1"/><path d="M271.952 307.2c-6.695 0-11.815 5.12-11.815 11.815s5.12 11.815 11.815 11.815 11.815-5.12 11.815-11.815-5.12-11.815-11.815-11.815zm-39.385 0c-6.695 0-11.815 5.12-11.815 11.815s5.12 11.815 11.815 11.815 11.815-5.12 11.815-11.815-5.119-11.815-11.815-11.815z" fill="#cba598"/><path d="M309.367 220.554a17.65 17.65 0 0 0-17.723 17.723A17.65 17.65 0 0 0 309.367 256a17.65 17.65 0 0 0 17.723-17.723 17.65 17.65 0 0 0-17.723-17.723zm-110.277 0a17.65 17.65 0 0 0-17.723 17.723c0 9.846 7.877 17.723 17.723 17.723s17.723-7.877 17.723-17.723a17.65 17.65 0 0 0-17.723-17.723z" fill="#324d5b"/><path d="M313.306 228.431c-3.151 0-5.908 2.757-5.908 5.908s2.757 5.908 5.908 5.908 5.908-2.757 5.908-5.908c-.001-3.151-2.758-5.908-5.908-5.908zm-110.277 0c-3.151 0-5.908 2.757-5.908 5.908s2.757 5.908 5.908 5.908 5.908-2.757 5.908-5.908c-.001-3.151-2.758-5.908-5.908-5.908z" fill="#95a3aa"/><path d="M247.533 0h9.846a7.06 7.06 0 0 1 7.089 7.089v92.16a7.06 7.06 0 0 1-7.089 7.089h-9.846a7.06 7.06 0 0 1-7.089-7.089V7.089A7.06 7.06 0 0 1 247.533 0z" fill="#efc75e"/><path d="M240.444 94.523h23.631V82.708h-23.631v11.815zm0-23.631h23.631V59.077h-23.631v11.815zm0-23.63h23.631V35.446h-23.631v11.816zm0-35.447V23.63h23.631V11.815h-23.631z" fill="#d7b355"/><path d="M134.106 299.323c0-81.92 61.046-149.268 139.815-159.902-7.089-.788-14.178-1.575-21.662-1.575-89.009 0-161.477 72.468-161.477 161.477S163.25 460.8 252.259 460.8c7.483 0 14.572-.394 21.662-1.575-78.769-10.634-139.815-77.982-139.815-159.902z" fill="#e1b7a9"/><path d="M252.259 137.846c-3.938 0-7.877 0-11.815.394v35.446c0 6.302 5.12 11.028 11.815 11.028 6.302 0 11.815-5.12 11.815-11.028V138.24l-11.815-.394z" fill="#bf9b8f"/></svg>