<svg xmlns="http://www.w3.org/2000/svg" viewBox="0 0 269.434 269.434" width="512" height="512"><g fill="#bdbdbd"><path d="M46.11 178.366h67.012a7 7 0 0 0 7-7v-37.481a7 7 0 0 0-7-7H46.11a7 7 0 0 0-7 7v37.481a7 7 0 0 0 7 7zm7-37.481h53.012v23.481H53.11v-23.481z"/><path d="M262.434 85.633h-60.107v-11.68h19.107a7 7 0 0 0 7-7v-43.5a7 7 0 0 0-7-7h-167a7 7 0 0 0-7 7v43.5a7 7 0 0 0 7 7h19.107v11.68H7a7 7 0 0 0-7 7v153.348a7 7 0 0 0 7 7h255.434a7 7 0 0 0 7-7V92.633a7 7 0 0 0-7-7zm-201-55.18h153v29.5h-153v-29.5zm26.107 43.5h100.786v11.68H87.541v-11.68zm127.297 127.895h-24.617v-60.963h24.617v60.963zm-33.704 14h42.79v4.172h-42.79v-4.172zm-8.365 18.172h59.52v4.961h-59.52v-4.961zm82.665 4.961h-9.145V227.02a7 7 0 0 0-7-7h-1.365v-11.172a7 7 0 0 0-7-7h-2.086v-67.963a7 7 0 0 0-7-7h-38.617a7 7 0 0 0-7 7v67.963h-2.086a7 7 0 0 0-7 7v11.172h-1.365a7 7 0 0 0-7 7v11.961H14V99.633h241.434v139.348z"/></g></svg>