<svg xmlns="http://www.w3.org/2000/svg" viewBox="0 0 505.305 505.305"><path d="M24.025.591h456.862v393.452H24.418L24.025.591z" fill="#d07c3f"/><path d="M.394 95.114v380.849c0 18.511 14.966 28.751 33.477 28.751H471.04c18.511 0 33.477-10.24 33.477-28.751V95.114c0 .394-503.729 0-504.123 0zm70.892-62.622L24.025.591V79.36h47.262l-.001-46.868zM480.886.591l-47.262 31.508V79.36h47.262V.591z" fill="#eec65d"/><path d="M71.286 95.114V32.098L0 95.114h71.286zm362.339-63.016v63.015h71.68l-71.68-63.015z" fill="#dca34f"/><path d="M112.246 185.698c-11.815 0-21.662 9.846-21.662 21.662s9.452 21.662 21.662 21.662c11.815 0 21.662-9.846 21.662-21.662.394-11.815-9.453-21.662-21.662-21.662zm263.877 0c-11.815 0-21.662 9.846-21.662 21.662s9.452 21.662 21.662 21.662c11.815 0 21.662-9.846 21.662-21.662.393-11.815-9.453-21.662-21.662-21.662z" fill="#d07c3f"/><path d="M244.578 366.868c-78.375 0-141.785-69.317-141.785-154.782 0-5.908 4.332-10.634 9.846-10.634s9.846 4.726 9.846 10.634c0 73.649 54.745 133.12 122.092 133.12s122.092-59.865 122.092-133.12c0-5.908 4.332-10.634 9.846-10.634s9.846 4.726 9.846 10.634c.002 85.465-63.801 154.782-141.783 154.782z" fill="#cba94f"/><path d="M244.578 354.658c-78.375 0-141.785-64.197-141.785-143.36 0-5.514 4.332-9.846 9.846-9.846s9.846 4.332 9.846 9.846c0 68.135 54.745 123.668 122.092 123.668s122.092-55.532 122.092-123.668c0-5.514 4.332-9.846 9.846-9.846s9.846 4.332 9.846 9.846c.002 79.164-63.801 143.36-141.783 143.36z" fill="#fff"/></svg>