<svg xmlns="http://www.w3.org/2000/svg" viewBox="0 0 456.927 456.927" width="512" height="512"><g fill="#bdbdbd"><path d="M287.153 143.723H151.754c-9.396 0-17.041 7.645-17.041 17.041v135.398c0 9.396 7.645 17.041 17.041 17.041h135.398c9.396 0 17.041-7.645 17.041-17.041V160.764c.001-9.396-7.644-17.041-17.04-17.041zm7.041 152.44c0 3.882-3.159 7.041-7.041 7.041H151.754c-3.882 0-7.041-3.159-7.041-7.041V160.764c0-3.882 3.159-7.041 7.041-7.041h135.398c3.882 0 7.041 3.159 7.041 7.041v135.399z"/><path d="M330.87 162.129h-4.176v-7.336c0-18.511-15.06-33.57-33.57-33.57h-1.705V18.572C291.418 8.332 283.087 0 272.846 0H166.061c-10.241 0-18.572 8.332-18.572 18.572v102.651h-1.705c-18.511 0-33.57 15.06-33.57 33.57v147.34c0 18.511 15.06 33.57 33.57 33.57h1.705v102.651c0 10.241 8.332 18.572 18.572 18.572h106.786c10.241 0 18.572-8.332 18.572-18.572v-102.65h1.705c18.511 0 33.57-15.06 33.57-33.57v-80.379h4.176c7.633 0 13.844-6.21 13.844-13.844v-31.938c-.001-7.633-6.211-13.844-13.844-13.844zM276.418 51.66h-113.93v-17h113.93v17zm0 10v24.215h-113.93V61.66h113.93zM166.061 15h106.786a3.576 3.576 0 0 1 3.572 3.572v6.088h-113.93v-6.088A3.576 3.576 0 0 1 166.061 15zm-3.573 80.875h113.93v25.348h-113.93V95.875zm0 309.392h113.93v17h-113.93v-17zm0-10v-24.215h113.93v24.215h-113.93zm110.358 46.66H166.061a3.576 3.576 0 0 1-3.572-3.572v-6.088h113.93v6.088a3.578 3.578 0 0 1-3.573 3.572zm3.572-80.875h-113.93v-25.348h113.93v25.348zm35.276-58.919c0 10.24-8.331 18.57-18.57 18.57h-147.34c-10.24 0-18.57-8.331-18.57-18.57v-147.34c0-10.24 8.331-18.57 18.57-18.57h147.34c10.24 0 18.57 8.331 18.57 18.57v147.34zm23.019-94.222a3.848 3.848 0 0 1-3.844 3.844h-4.176V172.13h4.176a3.848 3.848 0 0 1 3.844 3.844v31.937z"/></g></svg>