<svg xmlns="http://www.w3.org/2000/svg" viewBox="0 0 504.123 504.123"><path d="M495.852 291.249L310.351 103.778c-1.182-1.182-14.572-11.028-28.751-11.028-38.597.394-116.578 0-157.538 0-18.905 0-25.6 6.302-25.6 25.994v156.751c0 12.209 9.846 27.569 11.028 28.751l187.47 185.502a28.049 28.049 0 0 0 39.778 0l159.114-159.114c11.028-10.634 11.028-28.357 0-39.385zm-312.714-88.222c-14.178 0-25.6-11.422-25.6-25.6s11.422-25.6 25.6-25.6 25.6 11.422 25.6 25.6-11.421 25.6-25.6 25.6z" fill="#efc75e"/><path d="M183.138 140.011c-20.48 0-37.415 16.935-37.415 37.415s16.935 37.415 37.415 37.415 37.415-16.935 37.415-37.415-16.541-37.415-37.415-37.415zm0 55.139c-9.846 0-17.723-7.877-17.723-17.723s7.877-17.723 17.723-17.723 17.723 7.877 17.723 17.723a17.648 17.648 0 0 1-17.723 17.723z" fill="#d07c40"/><path d="M194.56 92.751c-9.452-40.566-45.292-70.892-87.828-70.892-50.412 0-90.978 41.354-90.978 92.554s40.566 92.554 90.585 92.554c33.871 0 63.409-18.905 78.769-47.262 5.514.788 10.634 3.938 13.391 8.665-18.511 32.295-52.775 54.351-92.16 54.351C47.655 222.719 0 174.276 0 114.412S47.655 6.105 106.338 6.105c51.594 0 94.523 37.022 104.369 86.646H194.56z" fill="#e4e7e7"/><path d="M319.015 281.797c16.148 0 29.538-13.391 29.538-29.538s-13.391-29.538-29.538-29.538c-16.148 0-29.538 13.391-29.538 29.538s13.391 29.538 29.538 29.538zm0-43.324c7.483 0 13.785 6.302 13.785 13.785 0 7.483-6.302 13.785-13.785 13.785s-13.785-6.302-13.785-13.785c.001-7.876 6.302-13.785 13.785-13.785zm0 106.339c-16.148 0-29.538 13.391-29.538 29.538s13.391 29.538 29.538 29.538c16.148 0 29.538-13.391 29.538-29.538.001-16.541-13.39-29.538-29.538-29.538zm0 43.323c-7.483 0-13.785-6.302-13.785-13.785s6.302-13.785 13.785-13.785 13.785 6.302 13.785 13.785-6.302 13.785-13.785 13.785zm80.345-82.707H238.277c-4.332 0-7.877 3.545-7.877 7.877s3.545 7.877 7.877 7.877H399.36c4.332 0 7.877-3.545 7.877-7.877.394-4.334-3.151-7.877-7.877-7.877z" fill="#d07c40"/></svg>