<svg xmlns="http://www.w3.org/2000/svg" viewBox="0 0 471 471" width="512" height="512"><g fill="#bdbdbd"><path d="M463.5 61.508H7.5a7.5 7.5 0 0 0-7.5 7.5v293.493a7.5 7.5 0 0 0 7.5 7.5h202.399v24.49h-54.065a7.5 7.5 0 0 0 0 15h159.333a7.5 7.5 0 0 0 0-15h-54.065v-24.49H463.5a7.5 7.5 0 0 0 7.5-7.5V69.008a7.5 7.5 0 0 0-7.5-7.5zM246.102 394.492h-21.203v-24.49h21.203v24.49zM456 355.001H15V76.508h441v278.493z"/><path d="M29.5 328.218h412a5 5 0 0 0 5-5V91.008a5 5 0 0 0-5-5h-412a5 5 0 0 0-5 5v232.21a5 5 0 0 0 5 5zm5-232.21h402v222.21h-402V96.008zm390.301 241.649h-22a5 5 0 0 0 0 10h22a5 5 0 0 0 0-10zm-169.003 0h-40.596a5 5 0 0 0 0 10h40.596a5 5 0 0 0 0-10zm185.705.002c-1.32 0-2.61.53-3.54 1.46-.93.93-1.46 2.22-1.46 3.54s.53 2.6 1.46 3.53c.93.93 2.22 1.47 3.54 1.47 1.31 0 2.6-.54 3.53-1.47s1.47-2.22 1.47-3.53c0-1.32-.54-2.61-1.47-3.54a5.03 5.03 0 0 0-3.53-1.46z"/></g></svg>