<svg xmlns="http://www.w3.org/2000/svg" viewBox="0 0 288.552 288.552" width="512" height="512"><g fill="#bdbdbd"><path d="M287.689 164.585l-18.443-33.623a29.635 29.635 0 0 0-25.988-15.386h-38.565V57.699a7 7 0 0 0-7-7H7a7 7 0 0 0-7 7v155.628a7 7 0 0 0 7 7h20.872c3.021 10.122 12.41 17.524 23.501 17.524s20.48-7.402 23.501-17.524h137.722c3.021 10.122 12.41 17.524 23.501 17.524s20.48-7.402 23.501-17.524h21.953a7 7 0 0 0 7-7v-45.376a6.989 6.989 0 0 0-.862-3.366zM14 64.699h176.692v141.628H74.874c-3.021-10.122-12.41-17.525-23.501-17.525s-20.48 7.403-23.501 17.525H14V64.699zm47.897 148.629c0 5.803-4.722 10.524-10.524 10.524s-10.524-4.721-10.524-10.524 4.722-10.525 10.524-10.525 10.524 4.722 10.524 10.525zm184.725 0c0 5.803-4.722 10.524-10.524 10.524s-10.524-4.721-10.524-10.524 4.722-10.525 10.524-10.525 10.524 4.722 10.524 10.525zm27.93-7h-14.953c-3.021-10.122-12.41-17.525-23.501-17.525s-20.48 7.403-23.501 17.525h-7.904v-76.752h38.565a15.636 15.636 0 0 1 13.713 8.12l17.581 32.05v36.582z"/><path d="M85.944 124.595h49.821l-9.414 9.414a7 7 0 0 0 9.9 9.899l19.463-19.463c3.777-3.777 3.777-9.924 0-13.701l-19.463-19.463a7 7 0 0 0-9.9 9.899l9.414 9.414H85.944a7 7 0 0 0 0 14.001zm-17.504 55.15a6.977 6.977 0 0 0 4.95 2.05 7 7 0 0 0 4.95-11.949l-9.414-9.414h49.821a7 7 0 1 0 0-14h-49.82l9.414-9.414a7 7 0 0 0-9.9-9.899l-19.463 19.463a9.629 9.629 0 0 0-2.837 6.851 9.625 9.625 0 0 0 2.837 6.85l19.462 19.462z"/></g></svg>